<?xml version="1.0" encoding="UTF-8" standalone="no"?>
<!-- Created with Inkscape (http://www.inkscape.org/) -->

<svg
   xmlns:dc="http://purl.org/dc/elements/1.1/"
   xmlns:cc="http://creativecommons.org/ns#"
   xmlns:rdf="http://www.w3.org/1999/02/22-rdf-syntax-ns#"
   xmlns:svg="http://www.w3.org/2000/svg"
   xmlns="http://www.w3.org/2000/svg"
   xmlns:xlink="http://www.w3.org/1999/xlink"
   xmlns:sodipodi="http://sodipodi.sourceforge.net/DTD/sodipodi-0.dtd"
   xmlns:inkscape="http://www.inkscape.org/namespaces/inkscape"
   width="380"
   height="290"
   id="svg3813"
   sodipodi:version="0.32"
   inkscape:version="0.47pre4 r22446"
   version="1.0"
   sodipodi:docname="baroquon_Shopping_Cart.svg"
   inkscape:output_extension="org.inkscape.output.svg.inkscape">
  <defs
     id="defs3815">
    <radialGradient
       inkscape:collect="always"
       xlink:href="#linearGradient3216"
       id="radialGradient3402"
       gradientUnits="userSpaceOnUse"
       gradientTransform="matrix(1, 0, 0, 1.02653, 53.5714, -12.464)"
       cx="300.63495"
       cy="462.18982"
       fx="300.63495"
       fy="462.18982"
       r="10.97111" />
    <linearGradient
       inkscape:collect="always"
       id="linearGradient3206">
      <stop
         style="stop-color: rgb(179, 179, 179); stop-opacity: 1;"
         offset="0"
         id="stop3208" />
      <stop
         style="stop-color: rgb(179, 179, 179); stop-opacity: 0;"
         offset="1"
         id="stop3210" />
    </linearGradient>
    <radialGradient
       inkscape:collect="always"
       xlink:href="#linearGradient3206"
       id="radialGradient3405"
       gradientUnits="userSpaceOnUse"
       gradientTransform="matrix(1, 0, 0, 1.4233, 0, -161.978)"
       cx="408.53793"
       cy="375.87903"
       fx="408.53793"
       fy="375.87903"
       r="8.046875" />
    <linearGradient
       inkscape:collect="always"
       id="linearGradient3216">
      <stop
         style="stop-color: rgb(179, 179, 179); stop-opacity: 1;"
         offset="0"
         id="stop3218" />
      <stop
         style="stop-color: rgb(179, 179, 179); stop-opacity: 0;"
         offset="1"
         id="stop3220" />
    </linearGradient>
    <radialGradient
       inkscape:collect="always"
       xlink:href="#linearGradient3216"
       id="radialGradient3408"
       gradientUnits="userSpaceOnUse"
       gradientTransform="matrix(1, 0, 0, 1.02653, 0, -12.464)"
       cx="300.63495"
       cy="462.18982"
       fx="300.63495"
       fy="462.18982"
       r="10.97111" />
    <linearGradient
       inkscape:collect="always"
       id="linearGradient3186">
      <stop
         style="stop-color: rgb(204, 204, 204); stop-opacity: 1;"
         offset="0"
         id="stop3188" />
      <stop
         style="stop-color: rgb(204, 204, 204); stop-opacity: 0;"
         offset="1"
         id="stop3190" />
    </linearGradient>
    <radialGradient
       inkscape:collect="always"
       xlink:href="#linearGradient3186"
       id="radialGradient3412"
       gradientUnits="userSpaceOnUse"
       gradientTransform="matrix(1, 0, 0, 0.569301, 0, 177.435)"
       cx="270.58206"
       cy="378.09262"
       fx="270.58206"
       fy="378.09262"
       r="72.84153" />
    <linearGradient
       inkscape:collect="always"
       id="linearGradient3244">
      <stop
         style="stop-color: rgb(255, 255, 255); stop-opacity: 1;"
         offset="0"
         id="stop3246" />
      <stop
         style="stop-color: rgb(255, 255, 255); stop-opacity: 0;"
         offset="1"
         id="stop3248" />
    </linearGradient>
    <linearGradient
       inkscape:collect="always"
       xlink:href="#linearGradient3244"
       id="linearGradient3415"
       gradientUnits="userSpaceOnUse"
       x1="277.7323"
       y1="425.51294"
       x2="427.34067"
       y2="425.51294" />
    <inkscape:perspective
       sodipodi:type="inkscape:persp3d"
       inkscape:vp_x="0 : 526.18109 : 1"
       inkscape:vp_y="0 : 1000 : 0"
       inkscape:vp_z="744.09448 : 526.18109 : 1"
       inkscape:persp3d-origin="372.04724 : 350.78739 : 1"
       id="perspective3821" />
    <inkscape:perspective
       id="perspective2844"
       inkscape:persp3d-origin="0.5 : 0.33333333 : 1"
       inkscape:vp_z="1 : 0.5 : 1"
       inkscape:vp_y="0 : 1000 : 0"
       inkscape:vp_x="0 : 0.5 : 1"
       sodipodi:type="inkscape:persp3d" />
    <linearGradient
       inkscape:collect="always"
       xlink:href="#linearGradient3244-5"
       id="linearGradient3415-1"
       gradientUnits="userSpaceOnUse"
       x1="277.7323"
       y1="425.51294"
       x2="427.34067"
       y2="425.51294" />
    <linearGradient
       inkscape:collect="always"
       id="linearGradient3244-5">
      <stop
         style="stop-color: rgb(255, 255, 255); stop-opacity: 1;"
         offset="0"
         id="stop3246-9" />
      <stop
         style="stop-color: rgb(255, 255, 255); stop-opacity: 0;"
         offset="1"
         id="stop3248-8" />
    </linearGradient>
    <radialGradient
       inkscape:collect="always"
       xlink:href="#linearGradient3186-8"
       id="radialGradient3412-4"
       gradientUnits="userSpaceOnUse"
       gradientTransform="matrix(1,0,0,0.569301,0,177.435)"
       cx="270.58206"
       cy="378.09262"
       fx="270.58206"
       fy="378.09262"
       r="72.84153" />
    <linearGradient
       inkscape:collect="always"
       id="linearGradient3186-8">
      <stop
         style="stop-color: rgb(204, 204, 204); stop-opacity: 1;"
         offset="0"
         id="stop3188-1" />
      <stop
         style="stop-color: rgb(204, 204, 204); stop-opacity: 0;"
         offset="1"
         id="stop3190-0" />
    </linearGradient>
    <radialGradient
       inkscape:collect="always"
       xlink:href="#linearGradient3216-0"
       id="radialGradient3408-3"
       gradientUnits="userSpaceOnUse"
       gradientTransform="matrix(1,0,0,1.02653,0,-12.464)"
       cx="300.63495"
       cy="462.18982"
       fx="300.63495"
       fy="462.18982"
       r="10.97111" />
    <linearGradient
       inkscape:collect="always"
       id="linearGradient3216-0">
      <stop
         style="stop-color: rgb(179, 179, 179); stop-opacity: 1;"
         offset="0"
         id="stop3218-4" />
      <stop
         style="stop-color: rgb(179, 179, 179); stop-opacity: 0;"
         offset="1"
         id="stop3220-4" />
    </linearGradient>
    <radialGradient
       inkscape:collect="always"
       xlink:href="#linearGradient3206-4"
       id="radialGradient3405-4"
       gradientUnits="userSpaceOnUse"
       gradientTransform="matrix(1,0,0,1.4233,0,-161.978)"
       cx="408.53793"
       cy="375.87903"
       fx="408.53793"
       fy="375.87903"
       r="8.046875" />
    <linearGradient
       inkscape:collect="always"
       id="linearGradient3206-4">
      <stop
         style="stop-color: rgb(179, 179, 179); stop-opacity: 1;"
         offset="0"
         id="stop3208-7" />
      <stop
         style="stop-color: rgb(179, 179, 179); stop-opacity: 0;"
         offset="1"
         id="stop3210-6" />
    </linearGradient>
    <radialGradient
       inkscape:collect="always"
       xlink:href="#linearGradient3216-0"
       id="radialGradient3402-3"
       gradientUnits="userSpaceOnUse"
       gradientTransform="matrix(1,0,0,1.02653,53.5714,-12.464)"
       cx="300.63495"
       cy="462.18982"
       fx="300.63495"
       fy="462.18982"
       r="10.97111" />
    <radialGradient
       r="10.97111"
       fy="462.18982"
       fx="300.63495"
       cy="462.18982"
       cx="300.63495"
       gradientTransform="matrix(1,0,0,1.02653,53.5714,-12.464)"
       gradientUnits="userSpaceOnUse"
       id="radialGradient2878"
       xlink:href="#linearGradient3216-0"
       inkscape:collect="always" />
    <linearGradient
       inkscape:collect="always"
       xlink:href="#linearGradient3244-5"
       id="linearGradient2959"
       gradientUnits="userSpaceOnUse"
       x1="277.7323"
       y1="425.51294"
       x2="427.34067"
       y2="425.51294" />
    <inkscape:perspective
       id="perspective3749"
       inkscape:persp3d-origin="0.5 : 0.33333333 : 1"
       inkscape:vp_z="1 : 0.5 : 1"
       inkscape:vp_y="0 : 1000 : 0"
       inkscape:vp_x="0 : 0.5 : 1"
       sodipodi:type="inkscape:persp3d" />
    <linearGradient
       inkscape:collect="always"
       xlink:href="#linearGradient3244-2"
       id="linearGradient3415-10"
       gradientUnits="userSpaceOnUse"
       x1="277.7323"
       y1="425.51294"
       x2="427.34067"
       y2="425.51294" />
    <linearGradient
       inkscape:collect="always"
       id="linearGradient3244-2">
      <stop
         style="stop-color: rgb(255, 255, 255); stop-opacity: 1;"
         offset="0"
         id="stop3246-2" />
      <stop
         style="stop-color: rgb(255, 255, 255); stop-opacity: 0;"
         offset="1"
         id="stop3248-9" />
    </linearGradient>
    <radialGradient
       inkscape:collect="always"
       xlink:href="#linearGradient3186-5"
       id="radialGradient3412-7"
       gradientUnits="userSpaceOnUse"
       gradientTransform="matrix(1,0,0,0.569301,0,177.435)"
       cx="270.58206"
       cy="378.09262"
       fx="270.58206"
       fy="378.09262"
       r="72.84153" />
    <linearGradient
       id="linearGradient3186-5">
      <stop
         style="stop-color: rgb(204, 204, 204); stop-opacity: 1;"
         offset="0"
         id="stop3188-6" />
      <stop
         style="stop-color: rgb(204, 204, 204); stop-opacity: 0;"
         offset="1"
         id="stop3190-4" />
    </linearGradient>
    <radialGradient
       inkscape:collect="always"
       xlink:href="#linearGradient3216-3"
       id="radialGradient3408-6"
       gradientUnits="userSpaceOnUse"
       gradientTransform="matrix(1,0,0,1.02653,0,-12.464)"
       cx="300.63495"
       cy="462.18982"
       fx="300.63495"
       fy="462.18982"
       r="10.97111" />
    <linearGradient
       inkscape:collect="always"
       id="linearGradient3216-3">
      <stop
         style="stop-color: rgb(179, 179, 179); stop-opacity: 1;"
         offset="0"
         id="stop3218-7" />
      <stop
         style="stop-color: rgb(179, 179, 179); stop-opacity: 0;"
         offset="1"
         id="stop3220-9" />
    </linearGradient>
    <radialGradient
       inkscape:collect="always"
       xlink:href="#linearGradient3206-49"
       id="radialGradient3405-7"
       gradientUnits="userSpaceOnUse"
       gradientTransform="matrix(1,0,0,1.4233,0,-161.978)"
       cx="408.53793"
       cy="375.87903"
       fx="408.53793"
       fy="375.87903"
       r="8.046875" />
    <linearGradient
       inkscape:collect="always"
       id="linearGradient3206-49">
      <stop
         style="stop-color: rgb(179, 179, 179); stop-opacity: 1;"
         offset="0"
         id="stop3208-1" />
      <stop
         style="stop-color: rgb(179, 179, 179); stop-opacity: 0;"
         offset="1"
         id="stop3210-7" />
    </linearGradient>
    <radialGradient
       inkscape:collect="always"
       xlink:href="#linearGradient3216-3"
       id="radialGradient3402-0"
       gradientUnits="userSpaceOnUse"
       gradientTransform="matrix(1,0,0,1.02653,53.5714,-12.464)"
       cx="300.63495"
       cy="462.18982"
       fx="300.63495"
       fy="462.18982"
       r="10.97111" />
    <radialGradient
       r="10.97111"
       fy="462.18982"
       fx="300.63495"
       cy="462.18982"
       cx="300.63495"
       gradientTransform="matrix(1,0,0,1.02653,53.5714,-12.464)"
       gradientUnits="userSpaceOnUse"
       id="radialGradient3783"
       xlink:href="#linearGradient3216-3"
       inkscape:collect="always" />
    <linearGradient
       inkscape:collect="always"
       xlink:href="#linearGradient3244-2"
       id="linearGradient3870"
       gradientUnits="userSpaceOnUse"
       x1="277.7323"
       y1="425.51294"
       x2="427.34067"
       y2="425.51294" />
    <radialGradient
       inkscape:collect="always"
       xlink:href="#linearGradient3186-5"
       id="radialGradient3872"
       gradientUnits="userSpaceOnUse"
       gradientTransform="matrix(1,0,0,0.569301,0,177.435)"
       cx="270.58206"
       cy="378.09262"
       fx="270.58206"
       fy="378.09262"
       r="72.84153" />
    <radialGradient
       inkscape:collect="always"
       xlink:href="#linearGradient3216-3"
       id="radialGradient3874"
       gradientUnits="userSpaceOnUse"
       gradientTransform="matrix(1,0,0,1.02653,0,-12.464)"
       cx="300.63495"
       cy="462.18982"
       fx="300.63495"
       fy="462.18982"
       r="10.97111" />
    <radialGradient
       inkscape:collect="always"
       xlink:href="#linearGradient3206-49"
       id="radialGradient3876"
       gradientUnits="userSpaceOnUse"
       gradientTransform="matrix(1,0,0,1.4233,0,-161.978)"
       cx="408.53793"
       cy="375.87903"
       fx="408.53793"
       fy="375.87903"
       r="8.046875" />
    <radialGradient
       inkscape:collect="always"
       xlink:href="#linearGradient3216-3"
       id="radialGradient3878"
       gradientUnits="userSpaceOnUse"
       gradientTransform="matrix(1,0,0,1.02653,53.5714,-12.464)"
       cx="300.63495"
       cy="462.18982"
       fx="300.63495"
       fy="462.18982"
       r="10.97111" />
    <radialGradient
       inkscape:collect="always"
       xlink:href="#linearGradient3216-3"
       id="radialGradient3881"
       gradientUnits="userSpaceOnUse"
       gradientTransform="matrix(2.22477,0,0,2.2837931,-456.55713,-464.39799)"
       cx="300.63495"
       cy="462.18982"
       fx="300.63495"
       fy="462.18982"
       r="10.97111" />
    <radialGradient
       inkscape:collect="always"
       xlink:href="#linearGradient3206-49"
       id="radialGradient3884"
       gradientUnits="userSpaceOnUse"
       gradientTransform="matrix(2.22477,0,0,3.1665151,-575.74117,-797.03226)"
       cx="408.53793"
       cy="375.87903"
       fx="408.53793"
       fy="375.87903"
       r="8.046875" />
    <radialGradient
       inkscape:collect="always"
       xlink:href="#linearGradient3216-3"
       id="radialGradient3887"
       gradientUnits="userSpaceOnUse"
       gradientTransform="matrix(2.22477,0,0,2.2837931,-575.74117,-464.39799)"
       cx="300.63495"
       cy="462.18982"
       fx="300.63495"
       fy="462.18982"
       r="10.97111" />
    <radialGradient
       inkscape:collect="always"
       xlink:href="#linearGradient3186-5"
       id="radialGradient3891"
       gradientUnits="userSpaceOnUse"
       gradientTransform="matrix(2.22477,0,0,1.2665638,-575.74117,-41.916399)"
       cx="270.58206"
       cy="378.09262"
       fx="270.58206"
       fy="378.09262"
       r="72.84153" />
    <linearGradient
       inkscape:collect="always"
       xlink:href="#linearGradient3244-2"
       id="linearGradient3894"
       gradientUnits="userSpaceOnUse"
       x1="277.7323"
       y1="425.51294"
       x2="427.34067"
       y2="425.51294"
       gradientTransform="matrix(2.22477,0,0,2.22477,-575.74117,-436.66846)" />
    <linearGradient
       inkscape:collect="always"
       xlink:href="#linearGradient3244-5"
       id="linearGradient3911"
       gradientUnits="userSpaceOnUse"
       x1="277.7323"
       y1="425.51294"
       x2="427.34067"
       y2="425.51294" />
    <linearGradient
       inkscape:collect="always"
       xlink:href="#linearGradient3244-2"
       id="linearGradient3913"
       gradientUnits="userSpaceOnUse"
       gradientTransform="matrix(2.22477,0,0,2.22477,-575.74117,-436.66846)"
       x1="277.7323"
       y1="425.51294"
       x2="427.34067"
       y2="425.51294" />
    <radialGradient
       inkscape:collect="always"
       xlink:href="#linearGradient3186-5"
       id="radialGradient3915"
       gradientUnits="userSpaceOnUse"
       gradientTransform="matrix(2.22477,0,0,1.2665638,-575.74117,-41.916399)"
       cx="270.58206"
       cy="378.09262"
       fx="270.58206"
       fy="378.09262"
       r="72.84153" />
    <radialGradient
       inkscape:collect="always"
       xlink:href="#linearGradient3216-3"
       id="radialGradient3917"
       gradientUnits="userSpaceOnUse"
       gradientTransform="matrix(2.22477,0,0,2.2837931,-575.74117,-464.39799)"
       cx="300.63495"
       cy="462.18982"
       fx="300.63495"
       fy="462.18982"
       r="10.97111" />
    <radialGradient
       inkscape:collect="always"
       xlink:href="#linearGradient3206-49"
       id="radialGradient3919"
       gradientUnits="userSpaceOnUse"
       gradientTransform="matrix(2.22477,0,0,3.1665151,-575.74117,-797.03226)"
       cx="408.53793"
       cy="375.87903"
       fx="408.53793"
       fy="375.87903"
       r="8.046875" />
    <radialGradient
       inkscape:collect="always"
       xlink:href="#linearGradient3216-3"
       id="radialGradient3921"
       gradientUnits="userSpaceOnUse"
       gradientTransform="matrix(2.22477,0,0,2.2837931,-456.55713,-464.39799)"
       cx="300.63495"
       cy="462.18982"
       fx="300.63495"
       fy="462.18982"
       r="10.97111" />
    <radialGradient
       inkscape:collect="always"
       xlink:href="#linearGradient3216-3"
       id="radialGradient3924"
       gradientUnits="userSpaceOnUse"
       gradientTransform="matrix(2.22477,0,0,2.2837931,-456.55713,-464.39799)"
       cx="300.63495"
       cy="462.18982"
       fx="300.63495"
       fy="462.18982"
       r="10.97111" />
    <radialGradient
       inkscape:collect="always"
       xlink:href="#linearGradient3206-49"
       id="radialGradient3927"
       gradientUnits="userSpaceOnUse"
       gradientTransform="matrix(2.22477,0,0,3.1665151,-575.74117,-797.03226)"
       cx="408.53793"
       cy="375.87903"
       fx="408.53793"
       fy="375.87903"
       r="8.046875" />
    <radialGradient
       inkscape:collect="always"
       xlink:href="#linearGradient3216-3"
       id="radialGradient3930"
       gradientUnits="userSpaceOnUse"
       gradientTransform="matrix(2.22477,0,0,2.2837931,-575.74117,-464.39799)"
       cx="300.63495"
       cy="462.18982"
       fx="300.63495"
       fy="462.18982"
       r="10.97111" />
    <radialGradient
       inkscape:collect="always"
       xlink:href="#linearGradient3186-5"
       id="radialGradient3934"
       gradientUnits="userSpaceOnUse"
       gradientTransform="matrix(2.22477,0,0,1.2665638,-575.74117,-41.916399)"
       cx="270.58206"
       cy="378.09262"
       fx="270.58206"
       fy="378.09262"
       r="72.84153" />
    <linearGradient
       inkscape:collect="always"
       xlink:href="#linearGradient3244-2"
       id="linearGradient3937"
       gradientUnits="userSpaceOnUse"
       gradientTransform="matrix(2.22477,0,0,2.22477,-575.74117,-436.66846)"
       x1="277.7323"
       y1="425.51294"
       x2="427.34067"
       y2="425.51294" />
    <linearGradient
       inkscape:collect="always"
       xlink:href="#linearGradient3244-5"
       id="linearGradient3946"
       gradientUnits="userSpaceOnUse"
       x1="277.7323"
       y1="425.51294"
       x2="427.34067"
       y2="425.51294" />
  </defs>
  <sodipodi:namedview
     id="base"
     pagecolor="#ffffff"
     bordercolor="#666666"
     borderopacity="1.0"
     gridtolerance="10000"
     guidetolerance="10"
     objecttolerance="10"
     inkscape:pageopacity="0.0"
     inkscape:pageshadow="2"
     inkscape:zoom="0.36934713"
     inkscape:cx="191.42857"
     inkscape:cy="-46.894725"
     inkscape:document-units="px"
     inkscape:current-layer="layer1"
     showgrid="false"
     inkscape:window-width="1024"
     inkscape:window-height="717"
     inkscape:window-x="0"
     inkscape:window-y="25"
     inkscape:window-maximized="1" />
  <metadata
     id="metadata3818">
    <rdf:RDF>
      <cc:Work
         rdf:about="">
        <dc:format>image/svg+xml</dc:format>
        <dc:type
           rdf:resource="http://purl.org/dc/dcmitype/StillImage" />
        <dc:title></dc:title>
      </cc:Work>
    </rdf:RDF>
  </metadata>
  <g
     inkscape:label="Layer 1"
     inkscape:groupmode="layer"
     id="layer1">
    <g
       id="g3488"
       transform="matrix(2.22477, 0, 0, 2.22477, -587.535, -802.879)"
       inkscape:export-filename="/home/brandon/Desktop/list.png"
       inkscape:export-xdpi="89.997635"
       inkscape:export-ydpi="89.997635">
      <path
         style="overflow: visible; marker: none; fill: rgb(77, 77, 77); fill-opacity: 1; fill-rule: nonzero; stroke: url(#linearGradient3415) rgb(0, 0, 0); stroke-width: 2; stroke-linecap: round; stroke-linejoin: miter; stroke-miterlimit: 4; stroke-dasharray: none; stroke-dashoffset: 0pt; stroke-opacity: 1; visibility: visible; display: inline;"
         d="M 413.01639,368.49129 C 411.75829,368.48998 410.46298,369.17585 409.36115,371.24677 L 401.40399,390.87257 C 401.30871,390.86656 401.21966,390.84446 401.12282,390.84446 L 283.14307,390.84446 C 282.08274,390.89154 281.02676,390.83811 279.96583,390.90069 C 278.6876,391.28367 277.9485,392.63205 278.33503,393.90923 C 278.69637,395.33894 278.82077,396.67603 279.57219,397.98622 L 296.18945,452.8991 C 296.0874,454.81012 295.94267,456.21692 298.01707,456.21693 L 298.49506,456.21693 C 298.83061,456.29065 299.18112,456.26847 299.5354,456.18881 L 381.18773,455.3453 C 382.13888,455.3453 382.2275,455.17977 381.97501,454.83919 C 382.60855,454.63915 383.17089,454.20146 383.46522,453.5458 L 409.41739,395.73685 C 409.52183,395.50418 409.55825,395.24557 409.58609,395.0058 L 415.6594,381.48143 L 421.14226,387.27357 C 421.68872,388.4909 423.10065,389.02568 424.3195,388.48261 C 425.53835,387.93951 427.28404,381.88338 426.73758,380.66603 C 422.80088,377.57775 420.68318,372.11562 416.3061,369.72844 C 415.38363,369.13624 414.2302,368.49254 413.01639,368.49129 z M 290.22861,399.78572 L 396.96147,399.78572 L 392.01284,412.0167 C 391.43925,411.74953 390.80566,411.59494 390.12899,411.59494 L 293.3215,411.59494 L 290.22861,399.78572 z M 295.68334,420.50809 L 388.55443,420.50809 L 384.92731,429.44936 L 298.04518,429.44936 L 295.68334,420.50809 z M 300.37891,438.36251 L 381.18773,438.36251 C 381.22523,438.36251 381.28861,438.36342 381.32831,438.36251 L 377.84178,446.91014 C 377.79792,447.00785 377.80137,447.14887 377.78555,447.30378 L 302.74076,447.30378 L 300.37891,438.36251 z M 311.76638,457.51032 C 305.03318,457.51032 299.56351,463.11325 299.56351,470.02247 C 299.56351,476.93168 305.03319,482.53463 311.76638,482.53462 C 318.49955,482.53462 323.94112,476.93168 323.94112,470.02247 C 323.94112,463.11326 318.49956,457.51033 311.76638,457.51032 z M 365.32963,457.51032 C 358.59646,457.51032 353.12676,463.11325 353.12677,470.02247 C 353.12677,476.93168 358.59645,482.53463 365.32963,482.53462 C 372.06282,482.53462 377.5325,476.93168 377.53249,470.02247 C 377.53249,463.11326 372.06281,457.51033 365.32963,457.51032 z"
         id="rect3280"
         sodipodi:nodetypes="cccccccccccccccccccsccccccccccccccccccccccsssccsssc" />
      <path
         style="overflow: visible; marker: none; fill: url(#radialGradient3412) rgb(0, 0, 0); fill-opacity: 1; fill-rule: nonzero; stroke: none; stroke-width: 1; stroke-linecap: round; stroke-linejoin: miter; stroke-miterlimit: 4; stroke-dasharray: 1, 3; stroke-dashoffset: 0pt; stroke-opacity: 1; visibility: visible; display: inline;"
         d="M 413.03125,370.5 C 411.77315,370.49868 410.47683,373.17908 409.375,375.25 L 408.3125,378.1875 C 410.61719,378.70158 412.86029,379.34607 415.03125,380.125 L 415.15625,379.875 L 415.5625,380.34375 C 418.92891,381.59244 422.12069,383.14437 425.09375,385.03125 C 425.71232,383.46486 426.13509,381.56238 425.8125,380.84375 L 419.21875,374.40625 C 419.08864,373.79201 418.71166,373.22898 418.15625,372.875 C 417.55733,372.22031 416.9452,371.87131 416.3125,371.71875 C 415.39004,371.12654 414.24506,370.50125 413.03125,370.5 z M 344.96875,392.71875 L 283.15625,392.84375 C 282.96996,392.84376 282.77392,392.8843 282.59375,392.90625 C 280.62231,392.53124 281.02854,393.08588 280.34375,393.90625 C 280.70446,395.33832 280.89151,396.6539 281.5625,398 L 298.1875,450.90625 C 298.13112,451.96201 298.07605,452.84172 298.375,453.4375 C 299.35403,450.22872 300.49819,447.02444 301.84375,443.84375 L 300.375,438.375 L 304.34375,438.375 C 305.82634,435.36561 307.45324,432.3644 309.25,429.4375 L 298.03125,429.4375 L 295.6875,420.5 L 315.375,420.5 C 317.67378,417.44544 320.14181,414.4639 322.78125,411.59375 L 293.3125,411.59375 L 290.21875,399.78125 L 335.34375,399.78125 C 337.28188,398.20835 339.28782,396.67991 341.34375,395.21875 C 342.55557,394.3575 343.74613,393.51919 344.96875,392.71875 z"
         id="path2409"
         sodipodi:nodetypes="ccccccccccccccccccccccccccccccsc" />
      <path
         style="overflow: visible; marker: none; opacity: 0.5; fill: rgb(51, 51, 51); fill-opacity: 1; fill-rule: nonzero; stroke: none; stroke-width: 1; stroke-linecap: round; stroke-linejoin: miter; stroke-miterlimit: 4; stroke-dasharray: 1, 3; stroke-dashoffset: 0pt; stroke-opacity: 1; visibility: visible; display: inline;"
         d="M 416.16323,378.67089 C 413.56836,378.8104 411.89271,381.84582 409.94765,384.53431 C 406.5873,389.17902 393.07528,426.66072 385.93242,430.94643 C 379.7842,434.63536 385.16665,433.33082 374.74492,438.35268 L 380.68242,438.35268 C 380.71992,438.35268 380.79897,438.35359 380.83867,438.35268 L 377.33867,446.91518 C 377.29481,447.01292 377.29199,447.13527 377.27617,447.29018 L 352.74492,447.29018 C 339.85069,451.40684 328.7717,453.07143 324.15117,453.07143 C 322.59828,453.07142 320.17321,453.44999 317.40117,454.00893 L 378.68242,453.35268 C 379.63357,453.35269 379.71616,453.19326 379.46367,452.85268 C 380.09721,452.65264 380.66934,452.19584 380.96367,451.54018 L 406.90117,395.72768 C 407.00561,395.49502 407.37333,395.15495 407.40117,394.91518 L 415.59819,380.26274 L 421.2519,386.25893 C 421.79835,387.47626 422.6268,388.40146 423.84565,387.85839 C 424.7011,387.47722 425.4913,384.9974 425.8125,383.17026 C 425.76735,383.01328 425.79578,382.90192 425.875,382.79526 C 425.91901,382.45857 426.3008,382.21175 426.28505,381.95214 C 425.81324,381.58177 423.78867,380.46607 421.27617,379.50893 C 418.46367,378.4375 417.72015,378.58718 416.16323,378.67089 z"
         id="path2411"
         sodipodi:nodetypes="cssccccccsccccccccscccsc" />
      <path
         style="overflow: visible; marker: none; fill: url(#radialGradient3408) rgb(0, 0, 0); fill-opacity: 1; fill-rule: nonzero; stroke: none; stroke-width: 1; stroke-linecap: round; stroke-linejoin: miter; stroke-miterlimit: 4; stroke-dasharray: 1, 3; stroke-dashoffset: 0pt; stroke-opacity: 1; visibility: visible; display: inline;"
         d="M 311.625,458.59375 C 305.56446,458.59374 300.625,463.62478 300.625,469.84375 C 300.62499,474.73825 303.68408,478.88494 307.9375,480.4375 C 306.06909,478.41848 304.90625,475.68938 304.90625,472.6875 C 304.90625,466.46853 309.84571,461.43749 315.90625,461.4375 C 317.19282,461.4375 318.41645,461.6762 319.5625,462.09375 C 317.56694,459.93281 314.75779,458.59376 311.625,458.59375 z"
         id="path3196" />
      <path
         style="overflow: visible; marker: none; fill: url(#radialGradient3405) rgb(0, 0, 0); fill-opacity: 1; fill-rule: nonzero; stroke: none; stroke-width: 1; stroke-linecap: round; stroke-linejoin: miter; stroke-miterlimit: 4; stroke-dasharray: 1, 3; stroke-dashoffset: 0pt; stroke-opacity: 1; visibility: visible; display: inline;"
         d="M 413.00446,371.20089 C 411.74636,371.19959 410.45004,373.87997 409.34821,375.95089 L 403.34821,392.45089 C 403.84132,392.93115 404.27373,393.49259 404.59821,394.10714 C 406.00381,384.07022 412.01611,376.3216 419.44196,375.32589 L 419.22321,375.10714 C 419.0931,374.4929 418.71612,373.96112 418.16071,373.60714 C 417.56178,372.95245 416.94966,372.60345 416.31696,372.45089 C 415.39449,371.8587 414.21827,371.20214 413.00446,371.20089 z"
         id="path3198" />
      <path
         id="path3229"
         d="M 365.19643,458.59375 C 359.13589,458.59374 354.19643,463.62478 354.19643,469.84375 C 354.19642,474.73825 357.25551,478.88494 361.50893,480.4375 C 359.64052,478.41848 358.47768,475.68938 358.47768,472.6875 C 358.47768,466.46853 363.41714,461.43749 369.47768,461.4375 C 370.76425,461.4375 371.98788,461.6762 373.13393,462.09375 C 371.13837,459.93281 368.32922,458.59376 365.19643,458.59375 z"
         style="overflow: visible; marker: none; fill: url(#radialGradient3402) rgb(0, 0, 0); fill-opacity: 1; fill-rule: nonzero; stroke: none; stroke-width: 1; stroke-linecap: round; stroke-linejoin: miter; stroke-miterlimit: 4; stroke-dasharray: 1, 3; stroke-dashoffset: 0pt; stroke-opacity: 1; visibility: visible; display: inline;" />
    </g>
    <g
       id="g3948"
       inkscape:export-filename="/home/xavier/Desktop/cjweb/images/shopping.png"
       inkscape:export-xdpi="12.89"
       inkscape:export-ydpi="12.89">
      <path
         style="fill:#6c77ab;fill-opacity:1;fill-rule:nonzero;stroke:url(#linearGradient3937);stroke-width:4.44954014;stroke-linecap:round;stroke-linejoin:miter;stroke-miterlimit:4;stroke-opacity:1;stroke-dasharray:none;stroke-dashoffset:0;marker:none;visibility:visible;display:inline;overflow:visible"
         d="m 343.1253,383.13991 c -2.79898,-0.002 -5.68075,1.52299 -8.13206,6.13031 l -17.70286,43.66289 c -0.21202,-0.0134 -0.41009,-0.0625 -0.62553,-0.0625 l -262.477811,0 c -2.35899,0.10479 -4.70831,-0.0133 -7.06863,0.12503 -2.84377,0.85205 -4.4881,3.85188 -3.62816,6.69331 0.8039,3.18078 1.08066,6.1555 2.7524,9.07037 l 36.96958,122.16853 c -0.22704,4.25158 -0.54903,7.38138 4.06604,7.3814 l 1.06341,0 c 0.74653,0.16397 1.52633,0.11458 2.31452,-0.0625 l 181.657661,-1.87662 c 2.11609,0 2.31325,-0.36826 1.75151,-1.12598 1.40948,-0.44504 2.66056,-1.4188 3.31538,-2.87749 l 57.73761,-128.61162 c 0.23235,-0.51764 0.31338,-1.09298 0.37532,-1.62642 l 13.51171,-30.08861 12.19811,12.88618 c 1.21574,2.70828 4.35696,3.89804 7.06862,2.68984 2.71166,-1.20828 6.59542,-14.68177 5.37968,-17.3901 -8.75826,-6.87071 -13.46965,-19.02269 -23.20765,-24.33362 -2.05228,-1.31751 -4.6184,-2.74959 -7.31885,-2.75237 z m -273.174571,69.62291 237.456071,0 -11.00956,27.21111 c -1.27611,-0.59439 -2.6857,-0.93832 -4.19114,-0.93832 l -215.374401,0 -6.88097,-26.27279 z m 12.13552,46.1025 206.616821,0 -8.06951,19.89227 -193.292751,0 -5.25456,-19.89227 z m 10.44657,39.72198 179.781041,0 c 0.0834,0 0.22443,0.002 0.31275,0 l -7.75672,19.01651 c -0.0977,0.21736 -0.0899,0.53112 -0.12504,0.87576 l -166.957391,0 -5.25458,-19.89227 z m 25.334501,42.59947 c -14.97982,0 -27.148581,12.46524 -27.148581,27.83666 0,15.3714 12.168781,27.83668 27.148581,27.83666 14.97975,0 27.086,-12.46526 27.086,-27.83666 0,-15.3714 -12.10622,-27.83663 -27.086,-27.83666 z m 119.16591,0 c -14.97975,0 -27.14858,12.46524 -27.14856,27.83666 0,15.3714 12.16878,27.83668 27.14856,27.83666 14.9798,0 27.14858,-12.46526 27.14856,-27.83666 0,-15.3714 -12.16878,-27.83663 -27.14856,-27.83666 z"
         id="rect3280-0"
         sodipodi:nodetypes="cccccccccccccccccccsccccccccccccccccccccccsssccsssc" />
      <path
         style="fill:url(#radialGradient3934);fill-opacity:1;fill-rule:nonzero;stroke:none;stroke-width:1;marker:none;visibility:visible;display:inline;overflow:visible"
         d="m 343.15836,387.60882 c -2.79898,-0.002 -5.68299,5.96034 -8.13431,10.56766 l -2.36382,6.53526 c 5.12741,1.14371 10.11779,2.57756 14.94767,4.3105 l 0.2781,-0.5562 0.90381,1.04286 c 7.48949,2.77805 14.59047,6.23074 21.20484,10.42861 1.37618,-3.48485 2.31674,-7.71743 1.59906,-9.31622 l -14.66958,-14.32196 c -0.28947,-1.36654 -1.12816,-2.61915 -2.36382,-3.40668 -1.33246,-1.45653 -2.69431,-2.23298 -4.10192,-2.57239 -2.05226,-1.31753 -4.59958,-2.70865 -7.30003,-2.71144 z m -151.4234,49.43161 -137.518601,0.2781 c -0.41445,2e-5 -0.8506,0.0901 -1.25143,0.13905 -4.386,-0.83431 -3.48224,0.39963 -5.00574,2.22477 0.8025,3.18602 1.21864,6.11289 2.71144,9.10765 l 36.9868,117.70424 c -0.12547,2.34882 -0.24795,4.30597 0.41715,5.63145 2.17812,-7.1388 4.72361,-14.26759 7.71717,-21.34389 l -3.26763,-12.16671 8.829551,0 c 3.29843,-6.6952 6.9179,-13.3722 10.91528,-19.88388 l -24.959141,0 -5.2143,-19.88389 43.800161,0 c 5.11426,-6.79569 10.60505,-13.42893 16.4772,-19.81435 l -65.561191,0 -6.88288,-26.2801 100.392741,0 c 4.3119,-3.49934 8.77465,-6.89977 13.34862,-10.15051 2.69603,-1.91608 5.34475,-3.78113 8.0648,-5.56193 z"
         id="path2409-8"
         sodipodi:nodetypes="ccccccccccccccccccccccccccccccsc" />
      <path
         style="opacity:0.5;fill:#515887;fill-opacity:1;fill-rule:nonzero;stroke:none;stroke-width:1;marker:none;visibility:visible;display:inline;overflow:visible"
         d="m 350.1263,405.78718 c -5.77299,0.31037 -9.50093,7.06348 -13.82824,13.04476 -7.476,10.33341 -37.53714,93.72157 -53.42836,103.25629 -13.67838,8.20702 -1.70366,5.30472 -24.88961,16.4772 l 13.20957,0 c 0.0834,0 0.25929,0.002 0.34762,0 l -7.7867,19.0496 c -0.0977,0.21736 -0.10389,0.48964 -0.13905,0.83428 l -54.57638,0 c -28.6867,9.15863 -53.3349,12.86196 -63.61452,12.86196 -3.45482,-3e-5 -8.85005,0.8422 -15.0172,2.08572 l 136.33669,-1.46001 c 2.11609,2e-5 2.29983,-0.35467 1.7381,-1.11238 1.40948,-0.44505 2.68234,-1.46132 3.33715,-2.92001 l 57.70498,-124.16998 c 0.23235,-0.51761 1.05044,-1.27419 1.11238,-1.80762 l 18.23649,-32.59831 12.5782,13.34014 c 1.21573,2.70828 3.05884,4.76664 5.7705,3.55843 1.90318,-0.84802 3.66119,-6.36504 4.37579,-10.43001 -0.10034,-0.34925 -0.0372,-0.597 0.13904,-0.83429 0.0979,-0.74906 0.94731,-1.29817 0.91227,-1.87575 -1.04967,-0.82399 -5.55387,-3.30616 -11.14361,-5.43558 -6.25716,-2.38368 -7.91132,-2.05068 -11.37511,-1.86444 z"
         id="path2411-5"
         sodipodi:nodetypes="cssccccccsccccccccscccsc" />
      <path
         style="fill:url(#radialGradient3930);fill-opacity:1;fill-rule:nonzero;stroke:none;stroke-width:1;marker:none;visibility:visible;display:inline;overflow:visible"
         d="m 117.55278,583.59716 c -13.48331,-3e-5 -24.472471,11.19288 -24.472471,25.02866 -2e-5,10.88914 6.80575,20.11457 16.268631,23.56866 -4.15678,-4.49186 -6.74383,-10.56348 -6.74383,-17.24197 0,-13.83578 10.98916,-25.02869 24.47247,-25.02866 2.86232,0 5.58462,0.53105 8.13431,1.46 -4.43966,-4.80759 -10.68937,-7.78667 -17.65911,-7.78669 z"
         id="path3196-3" />
      <path
         style="fill:url(#radialGradient3927);fill-opacity:1;fill-rule:nonzero;stroke:none;stroke-width:1;marker:none;visibility:visible;display:inline;overflow:visible"
         d="m 343.09876,389.16814 c -2.79898,-0.002 -5.68299,5.96034 -8.13431,10.56766 l -13.34862,36.70871 c 1.09705,1.06846 2.05907,2.31754 2.78096,3.68477 3.12714,-22.32984 16.50312,-39.56873 33.02393,-41.78396 l -0.48667,-0.48667 c -0.28946,-1.36654 -1.12816,-2.54963 -2.36382,-3.33715 -1.33248,-1.45654 -2.6943,-2.23298 -4.10192,-2.57239 -2.05228,-1.31749 -4.6691,-2.77818 -7.36955,-2.78097 z"
         id="path3198-9" />
      <path
         id="path3229-4"
         d="m 236.73689,583.59716 c -13.48331,-3e-5 -24.47247,11.19288 -24.47247,25.02866 -2e-5,10.88914 6.80575,20.11457 16.26863,23.56866 -4.15678,-4.49186 -6.74383,-10.56348 -6.74383,-17.24197 0,-13.83578 10.98916,-25.02869 24.47247,-25.02866 2.86232,0 5.58462,0.53105 8.13431,1.46 -4.43966,-4.80759 -10.68937,-7.78667 -17.65911,-7.78669 z"
         style="fill:url(#radialGradient3924);fill-opacity:1;fill-rule:nonzero;stroke:none;stroke-width:1;marker:none;visibility:visible;display:inline;overflow:visible" />
    </g>
  </g>
</svg>
