<?xml version="1.0" encoding="UTF-8" standalone="no"?>
<!-- Created with Inkscape ("http://www.inkscape.org/") -->

<svg
   xmlns:dc="http://purl.org/dc/elements/1.1/"
   xmlns:cc="http://creativecommons.org/ns#"
   xmlns:rdf="http://www.w3.org/1999/02/22-rdf-syntax-ns#"
   xmlns:svg="http://www.w3.org/2000/svg"
   xmlns="http://www.w3.org/2000/svg"
   xmlns:sodipodi="http://sodipodi.sourceforge.net/DTD/sodipodi-0.dtd"
   xmlns:inkscape="http://www.inkscape.org/namespaces/inkscape"
   style="fill:#000000;fill-opacity:1;stroke:none"
   width="184.25197"
   height="131.10236"
   id="svg75"
   sodipodi:docname="chronojump-tux.svg"
   sodipodi:version="0.32"
   inkscape:version="0.47pre4 r22446"
   version="1.1">
  <metadata
     id="metadata42">
    <rdf:RDF>
      <cc:Work
         rdf:about="">
        <dc:format>image/svg+xml</dc:format>
        <dc:type
           rdf:resource="http://purl.org/dc/dcmitype/StillImage" />
        <dc:title></dc:title>
      </cc:Work>
    </rdf:RDF>
  </metadata>
  <defs
     id="defs77">
    <inkscape:perspective
       sodipodi:type="inkscape:persp3d"
       inkscape:vp_x="62.745706 : 293.72528 : 1"
       inkscape:vp_y="11.218535 : 0 : 0"
       inkscape:vp_z="62.745706 : 287.04716 : 1"
       inkscape:persp3d-origin="61.171578 : 290.38623 : 1"
       id="perspective44" />
    <inkscape:perspective
       id="perspective2872"
       inkscape:persp3d-origin="0.5 : 0.33333333 : 1"
       inkscape:vp_z="1 : 0.5 : 1"
       inkscape:vp_y="0 : 1000 : 0"
       inkscape:vp_x="0 : 0.5 : 1"
       sodipodi:type="inkscape:persp3d" />
    <inkscape:perspective
       id="perspective2894"
       inkscape:persp3d-origin="0.5 : 0.33333333 : 1"
       inkscape:vp_z="1 : 0.5 : 1"
       inkscape:vp_y="0 : 1000 : 0"
       inkscape:vp_x="0 : 0.5 : 1"
       sodipodi:type="inkscape:persp3d" />
    <inkscape:perspective
       id="perspective5150"
       inkscape:persp3d-origin="0.5 : 0.33333333 : 1"
       inkscape:vp_z="1 : 0.5 : 1"
       inkscape:vp_y="0 : 1000 : 0"
       inkscape:vp_x="0 : 0.5 : 1"
       sodipodi:type="inkscape:persp3d" />
    <path
       sodipodi:nodetypes="cs"
       id="path10505-0-4-3-4-4-9-1-6-3-8-0-9-1-4-3-4"
       d="m 4008.6343,3896.6696 c 72.7028,-77.6519 123.6575,-111.9828 246.2221,-101.5945"
       style="fill:none;stroke:#000000;stroke-width:0.88108903px;stroke-linecap:butt;stroke-linejoin:miter;stroke-opacity:1" />
    <inkscape:perspective
       id="perspective5255"
       inkscape:persp3d-origin="0.5 : 0.33333333 : 1"
       inkscape:vp_z="1 : 0.5 : 1"
       inkscape:vp_y="0 : 1000 : 0"
       inkscape:vp_x="0 : 0.5 : 1"
       sodipodi:type="inkscape:persp3d" />
  </defs>
  <sodipodi:namedview
     id="base"
     inkscape:zoom="2.1456998"
     inkscape:cx="93.064554"
     inkscape:cy="72.608341"
     inkscape:window-width="1024"
     inkscape:window-height="717"
     inkscape:window-x="0"
     inkscape:window-y="25"
     showgrid="false"
     inkscape:window-maximized="1"
     inkscape:current-layer="svg75"
     showguides="true"
     inkscape:guide-bbox="true" />
  <g
     id="g2985"
     inkscape:export-filename="/home/xavier/informatica/progs_meus/chronojump/chronojump/web/images/chronojump-tux.png"
     inkscape:export-xdpi="177.56"
     inkscape:export-ydpi="177.56">
    <rect
       ry="0.90885872"
       y="14.296119"
       x="27.095598"
       height="114.17079"
       width="151.93791"
       id="rect5243"
       style="fill:#ffffff;fill-opacity:1;fill-rule:evenodd;stroke:#000000;stroke-width:0.12257303;stroke-linecap:butt;stroke-linejoin:round;stroke-miterlimit:4;stroke-opacity:1;stroke-dasharray:none" />
    <g
       transform="translate(11.132717,33.200189)"
       id="g5203">
      <path
         style="font-size:40.40230942px;font-style:normal;font-variant:normal;font-weight:normal;font-stretch:normal;fill:#515156;fill-opacity:1;stroke:none;font-family:MgOpen Cosmetica;-inkscape-font-specification:MgOpen Cosmetica"
         d="m 149.32061,37.433387 c 0.11931,1.6028 0.15813,3.33376 0.13304,5.19292 -0.01,0.65844 -0.0625,1.91654 -0.17754,3.78744 -0.10273,1.87109 -0.16665,3.20886 -0.17754,4.00934 0.16712,-0.0237 0.3546,-0.0507 0.54729,-0.0739 0.19269,-0.0232 0.36359,-0.0317 0.51793,-0.0294 0.1283,0 0.30205,0.0322 0.53261,0.074 0.23056,0.0417 0.401,0.0576 0.51793,0.0592 0.005,-0.49061 0,-1.41219 -0.0284,-2.7814 -0.0189,-1.38204 -0.0237,-2.42264 -0.0142,-3.10693 l 1.64186,0.0592 c 1.28394,0.0171 2.41876,-0.30124 3.40302,-0.94686 0.98473,-0.65849 1.49273,-1.58253 1.5093,-2.79617 0.0142,-1.12326 -0.3849,-1.9787 -1.19873,-2.54469 -0.81383,-0.57891 -1.80566,-0.8723 -2.97362,-0.88768 -0.11551,0 -0.47816,0.0137 -1.09504,0.0445 -0.60268,0.018 -1.09031,0.0194 -1.44965,0.0147 l -1.68636,-0.0739 z m -8.16667,0.26626 -0.6808,0.20717 c -0.1657,1.02024 -0.37448,2.24685 -0.62114,3.66909 -0.2476,1.42213 -0.50562,2.8473 -0.76979,4.26087 -0.26655,1.40117 -0.48432,2.52594 -0.66565,3.40273 l -2.51486,-2.47069 c -0.69689,-0.7199 -1.32608,-1.39117 -1.90887,-1.99726 -0.58137,-0.60613 -1.16417,-1.20753 -1.73086,-1.805 -0.55392,-0.60111 -1.17222,-1.26368 -1.8639,-2.01208 l -0.71015,0.20717 c 0.38254,1.28627 0.69595,2.64374 0.93219,4.06852 0.24382,1.4087 0.45118,2.8813 0.60646,4.43841 0.16712,1.55338 0.32099,3.13028 0.45876,4.71949 0.11551,-0.0618 0.21825,-0.11698 0.32524,-0.16272 0.10321,-0.0581 0.23719,-0.10344 0.3849,-0.14794 0.0734,-0.0223 0.19032,-0.0469 0.36975,-0.0739 0.17943,-0.027 0.32667,-0.0567 0.42893,-0.074 -0.20594,-0.69263 -0.36549,-1.26349 -0.47343,-1.71619 -0.0994,-0.46874 -0.26039,-1.28465 -0.48811,-2.45592 l -0.99136,-5.20773 c 2.39935,2.38987 4.85172,4.97547 7.35285,7.75242 l 0.23671,-0.0888 0.22204,-0.0445 c 0.0748,-1.50513 0.27696,-3.08951 0.59179,-4.7343 l 1.0799,-5.90311 c 0.44455,0.99813 0.88342,2.00763 1.33176,3.01812 0.44786,1.01053 0.87442,2.01624 1.25743,3.03289 0.39531,1.013 0.73003,2.01146 1.02071,2.98857 0.16476,-0.0767 0.34703,-0.15509 0.53261,-0.25153 0.18606,-0.0964 0.34182,-0.17744 0.48811,-0.2219 0.13635,-0.0407 0.29163,-0.0653 0.45875,-0.0888 0.16712,-0.0237 0.37165,-0.0421 0.60647,-0.0592 -0.68364,-1.49164 -1.3417,-2.95066 -1.96758,-4.37923 -0.62587,-1.42853 -1.19068,-2.75897 -1.70151,-3.97975 -0.50941,-1.22074 -1.04297,-2.52178 -1.59735,-3.89103 z m 11.65775,0.51784 c 0.83513,0.0109 1.52539,0.25664 2.07173,0.75455 0.55675,0.49805 0.82472,1.17098 0.81335,1.99726 -0.0142,0.92958 -0.34039,1.63518 -0.97621,2.13044 -0.63582,0.49525 -1.81797,0.73296 -3.55073,0.71014 l 0.0426,-2.95894 c 0.005,-0.43896 0.0284,-0.87618 0.0587,-1.30193 0.0331,-0.42571 0.0592,-0.86344 0.10368,-1.30194 l 1.43497,-0.0294 z m -30.56562,7.41212 c -0.0819,0.0622 -0.18274,0.15173 -0.31057,0.28112 -0.1283,0.12944 -0.22441,0.22673 -0.29589,0.28112 -0.13351,0.10099 -0.26086,0.18412 -0.36975,0.25149 -0.11126,0.0674 -0.22725,0.12749 -0.35508,0.19231 0.45734,0.46136 0.87396,0.93635 1.25744,1.40552 0.37543,0.45889 0.78068,0.97593 1.21292,1.55342 l 1.64233,2.18961 1.0354,1.37593 c 0.74234,0.99009 1.01267,1.97984 0.8285,2.95894 -0.18322,0.97915 -0.77879,1.85656 -1.80472,2.63346 -0.98473,0.74584 -1.95006,1.02536 -2.88508,0.8285 -0.92461,-0.20461 -2.05895,-1.2178 -3.41722,-3.03289 l -2.01208,-2.67786 c -0.3243,-0.43314 -0.60883,-0.83665 -0.85833,-1.21317 -0.23956,-0.38423 -0.53924,-0.88938 -0.91704,-1.52387 -0.009,0.008 -0.13918,0.10363 -0.37022,0.31071 -0.23056,0.20708 -0.40052,0.35138 -0.50278,0.42907 -0.18464,0.1398 -0.34655,0.26436 -0.48858,0.35507 -0.14061,0.0906 -0.28453,0.17815 -0.44361,0.26626 0.23672,0.27326 0.56386,0.64566 0.97669,1.10963 0.42041,0.45619 0.79915,0.90732 1.13907,1.36111 l 2.27815,3.04771 0.84365,1.12439 c 0.97906,1.3098 2.04712,1.99887 3.21034,2.07126 1.15517,0.0621 2.42301,-0.41657 3.78744,-1.44988 1.4255,-1.07989 2.2772,-2.27748 2.54469,-3.59513 0.25991,-1.32788 -0.14771,-2.69553 -1.19873,-4.09811 l -1.93775,-2.60387 c -0.58658,-0.78377 -1.07611,-1.44993 -1.46479,-2.01208 -0.37827,-0.56987 -0.75607,-1.17747 -1.1244,-1.81977 z m -12.13165,9.95686 c -0.12262,0.15154 -0.23625,0.29523 -0.3404,0.42907 -0.10321,0.11556 -0.2566,0.25205 -0.44361,0.42902 -0.0284,0.0265 -0.14771,0.13488 -0.36974,0.31066 -0.22299,0.15766 -0.39627,0.28444 -0.51794,0.39948 1.0335,0.93593 1.8568,1.70506 2.45569,2.30798 0.60835,0.59406 1.3398,1.35633 2.21944,2.27838 0.88011,0.90383 1.77489,1.83166 2.66304,2.78141 0.43935,0.47016 0.80294,0.90325 1.10973,1.28711 0.31435,0.37505 0.60693,0.75356 0.85785,1.15403 0.27412,0.53815 0.34087,1.07777 0.20736,1.6126 -0.12545,0.52598 -0.38584,1.07327 -0.78447,1.62742 l 0.47343,0.34026 c 0.95396,-0.90255 1.53013,-1.87323 1.71619,-2.89977 0.18605,-1.02649 -0.16523,-1.99839 -1.0354,-2.9293 -0.12309,-0.13166 -0.29589,-0.33448 -0.53261,-0.60661 -0.24571,-0.28155 -0.43413,-0.48432 -0.54728,-0.6066 l -2.79656,-2.92931 c -0.19315,-0.20689 -0.82424,-0.94771 -1.89372,-2.20443 -1.069,-1.25672 -1.8781,-2.17958 -2.441,-2.7814 z m -10.119566,6.15459 c -5.49889,0.20926 -9.89754,4.74794 -9.89754,10.29711 0,2.47344 0.88153,4.73549 2.33733,6.50967 l -6.40599,0 -0.0426,-2.18961 c 0,-0.38254 0.0189,-1.5155 0.0426,-3.40278 0.0379,-1.90002 0.0592,-3.41983 0.0592,-4.542 0,-0.34428 0.0189,-0.75815 0.0592,-1.24276 0.0511,-0.48451 0.0994,-0.94231 0.14771,-1.37588 l -0.76885,0.0592 -0.73997,-0.0592 c 0.0895,0.79063 0.15386,1.55361 0.19221,2.2932 0.0379,0.72686 0.0592,1.4648 0.0592,2.20439 l 0,5.17814 -2.89976,-3.0477 c -0.79063,-0.85436 -1.44254,-1.56933 -1.9529,-2.13044 -0.50989,-0.57385 -1.16417,-1.31382 -1.96758,-2.21921 -0.79063,-0.90538 -1.51356,-1.75202 -2.18961,-2.52987 l -0.68032,0 0.0426,2.87013 c 0,0.77789 -0.0189,1.95271 -0.0592,3.52118 -0.0379,1.56848 -0.0592,2.74325 -0.0592,3.5211 0,0.54842 -0.0189,1.02909 -0.0592,1.44992 -0.0237,0.3957 -0.0606,0.964 -0.11836,1.64219 l -6.61288,0 c 0.28785,-0.0861 0.60457,-0.1942 0.96154,-0.32548 0.85454,-0.31881 1.64233,-1.03786 2.38183,-2.16003 0.72671,-1.12212 1.09457,-2.40564 1.09457,-3.84662 0,-2.06577 -0.64955,-3.68149 -1.93775,-4.86748 -1.29436,-1.19281 -2.96557,-1.79904 -5.0302,-1.80491 -0.005,-4e-5 -0.01,0 -0.0142,0 -2.06463,0.006 -3.73584,0.6121 -5.02972,1.80491 -1.28821,1.18599 -1.93823,2.80171 -1.93823,4.86748 0,1.44098 0.36786,2.7245 1.09457,3.84662 0.7395,1.12217 1.52587,1.84122 2.3823,2.16003 0.35697,0.13128 0.67322,0.23941 0.96154,0.32548 l -4.85266,0 c -0.87963,-1.11635 -1.71855,-2.19373 -2.50019,-3.22524 -0.80578,-1.0584 -1.62718,-2.12656 -2.45615,-3.21043 1.08368,-0.28055 1.97231,-0.6735 2.64837,-1.18358 0.67558,-0.51007 1.00604,-1.24805 1.00604,-2.20443 0,-1.02015 -0.41189,-1.76215 -1.22808,-2.23398 -0.8162,-0.48455 -1.773,-0.72496 -2.87041,-0.72496 l -2.81076,0.074 -1.28726,-0.0445 c 0.0639,0.75238 0.10984,1.53624 0.14819,2.35239 0.0379,0.8161 0.0592,1.57292 0.0592,2.24879 0,0.68856 -0.0426,2.02008 -0.13351,4.00934 -0.0739,1.93695 -0.11599,3.30549 -0.11836,4.14252 l -3.00297,0 c -0.005,-0.31436 -0.0473,-0.89185 -0.11835,-1.77537 -0.0639,-0.95637 -0.089,-1.63362 -0.089,-2.04167 l -0.0426,-2.27838 0.0426,-2.89976 c 0,-0.63757 0.005,-1.2857 0.0426,-1.92331 0.0379,-0.63757 0.099,-1.24796 0.16286,-1.83455 -0.0379,0 -0.1908,0.0208 -0.45876,0.0592 -0.26796,0.0256 -0.48337,0.0445 -0.63629,0.0445 -0.0511,0 -0.20547,-0.0189 -0.47343,-0.0445 -0.25471,-0.0383 -0.46822,-0.0592 -0.62114,-0.0592 0,0.0128 0.0189,0.68591 0.0592,2.01208 0.0379,1.32618 0.0592,2.41729 0.0592,3.28443 l -3.58056,0.0592 -3.5654,-0.0592 c 0,-0.34428 0.0189,-1.13022 0.0592,-2.36715 0.0511,-1.23694 0.0738,-2.21523 0.0738,-2.92936 -0.0762,0 -0.24808,0.0208 -0.50278,0.0592 -0.25518,0.0256 -0.45166,0.0445 -0.59179,0.0445 -0.0511,0 -0.20594,-0.0189 -0.47343,-0.0445 -0.26796,-0.0383 -0.48337,-0.0592 -0.63629,-0.0592 0.10179,1.18595 0.16665,2.2061 0.19221,3.04771 0.0379,0.82889 0.0592,1.95982 0.0592,3.38801 0,0.52277 -0.0426,1.55115 -0.13303,3.10684 -0.0743,1.49103 -0.11552,2.55241 -0.11836,3.21048 l -4.48291,0 c 0.76411,-0.19496 1.50503,-0.48394 2.21944,-0.87287 0,-0.25508 0.0142,-0.49544 0.0426,-0.72496 0.0331,-0.22952 0.0862,-0.51173 0.16238,-0.84332 l -0.20689,-0.0739 c -0.66327,0.6121 -1.33649,1.08875 -2.01207,1.42029 -0.66328,0.33154 -1.38432,0.48825 -2.17494,0.4882 -1.46669,5e-5 -2.62234,-0.58738 -3.47688,-1.76054 -0.84128,-1.17317 -1.27211,-2.50464 -1.27211,-4.00934 0,-1.63225 0.40952,-3.00354 1.21293,-4.11298 0.8162,-1.10939 1.99504,-1.67178 3.55073,-1.67178 1.67074,0 2.94995,0.69614 3.81727,2.08603 l 0.22157,0 c 0.0284,-0.34428 0.0866,-0.67038 0.17801,-0.9764 0.089,-0.31881 0.19789,-0.62398 0.32524,-0.91732 -0.75228,-0.3315 -1.50929,-0.57598 -2.24879,-0.75451 -0.7395,-0.17853 -1.48184,-0.28107 -2.23412,-0.28107 -2.10392,0 -3.7846,0.60627 -5.05955,1.8049 -1.26264,1.18595 -1.89372,2.82056 -1.89372,4.91185 0,1.96379 0.58942,3.55248 1.77536,4.76394 0.70873,0.72397 1.5628,1.23177 2.54469,1.52383 l -4.34988,0 0,11.36233 9.45393,0 c -0.52456,-0.1933 -0.9852,-0.50009 -1.37578,-0.93204 -0.70684,-0.78604 -1.06522,-1.81793 -1.06522,-3.09212 0,-1.27012 0.35838,-2.29126 1.06522,-3.0773 0.7073,-0.79015 1.63807,-1.19839 2.7814,-1.19839 1.16369,0 2.09682,0.40824 2.79608,1.19839 0.70304,0.78604 1.05054,1.82498 1.05054,3.13648 0,0.58748 -0.0994,1.14404 -0.28122,1.65701 -0.17753,0.50889 -0.4275,0.95093 -0.75464,1.33152 -0.32336,0.37647 -0.72861,0.66839 -1.21293,0.88768 -0.072,0.0317 -0.13351,0.0617 -0.20737,0.0888 l 5.07471,0 c -0.0852,-0.0322 -0.17943,-0.0632 -0.26607,-0.10354 -0.28217,-0.13247 -0.51841,-0.30025 -0.7253,-0.50307 -0.20547,-0.20684 -0.37969,-0.48507 -0.51793,-0.8285 -0.13256,-0.34338 -0.2031,-0.74092 -0.20689,-1.18358 l 0.96154,0 0,0.074 c 0,0.22758 0.0331,0.43347 0.10368,0.63615 0.0696,0.20277 0.18322,0.41221 0.3404,0.60661 0.15812,0.19031 0.38868,0.34285 0.69499,0.45861 0.31152,0.11589 0.68174,0.16276 1.10972,0.16276 0.32762,0 0.62209,-0.0222 0.87301,-0.0888 0.24997,-0.0661 0.4365,-0.15225 0.57711,-0.25153 0.14629,-0.0993 0.26654,-0.21853 0.35507,-0.35507 0.0885,-0.14061 0.14913,-0.27947 0.17754,-0.39944 0.0284,-0.11992 0.0426,-0.23752 0.0426,-0.36989 0,-0.32264 -0.13256,-0.59851 -0.37022,-0.81368 -0.23482,-0.21513 -0.59368,-0.38547 -1.09457,-0.51779 l -1.96758,-0.53261 c -1.04249,-0.27724 -1.56848,-0.90913 -1.56848,-1.89372 0,-0.74054 0.24998,-1.3196 0.75465,-1.74583 0.50941,-0.43015 1.19873,-0.65096 2.07126,-0.65096 0.91325,0 1.6357,0.22313 2.14511,0.66578 0.50894,0.44266 0.76128,1.06148 0.76933,1.86414 l -0.96154,0 c -0.01,-0.5337 -0.17848,-0.94256 -0.51793,-1.22799 -0.33945,-0.28548 -0.8304,-0.41425 -1.4648,-0.41425 -0.53734,0 -0.97432,0.11755 -1.30193,0.36989 -0.32335,0.24822 -0.48811,0.57749 -0.48811,0.99122 0,0.31436 0.10132,0.56187 0.2959,0.73978 0.19363,0.17787 0.53639,0.34097 1.02071,0.47343 l 1.99741,0.54739 c 0.54113,0.14894 0.95207,0.39872 1.24275,0.75455 0.29542,0.35162 0.44361,0.78239 0.44361,1.28711 0,0.21925 -0.0142,0.42519 -0.0739,0.63615 -0.0525,0.21106 -0.15055,0.43821 -0.2959,0.66579 -0.14581,0.22753 -0.33613,0.4329 -0.56196,0.6066 -0.17754,0.13541 -0.40526,0.24439 -0.68079,0.34026 l 4.86781,0 c -0.33756,-0.1248 -0.62493,-0.28373 -0.85833,-0.48825 -0.25376,-0.22748 -0.47959,-0.47731 -0.66564,-0.75451 -0.18559,-0.28126 -0.32856,-0.59046 -0.42941,-0.91727 -0.10036,-0.32685 -0.17327,-0.63411 -0.22156,-0.93209 -0.0426,-0.30195 -0.0592,-0.60457 -0.0592,-0.90245 0,-0.25651 0.01,-0.51282 0.0426,-0.76933 0.0331,-0.26062 0.0862,-0.54307 0.16286,-0.8285 0.081,-0.28955 0.18985,-0.54653 0.31057,-0.79891 0.12072,-0.25651 0.26938,-0.50397 0.45875,-0.73974 0.19411,-0.23586 0.4081,-0.44105 0.65097,-0.60656 0.24618,-0.16963 0.54823,-0.30015 0.88768,-0.39948 0.34324,-0.10344 0.72056,-0.16276 1.1244,-0.16276 1.73323,0 2.75205,0.8883 3.06262,2.66304 l -1.03539,0 c -0.11268,-0.58738 -0.35176,-1.0164 -0.69547,-1.30193 -0.34324,-0.28955 -0.82045,-0.44379 -1.45012,-0.44379 -0.7679,0 -1.3862,0.31327 -1.83454,0.91722 -0.44834,0.59998 -0.66564,1.41343 -0.66564,2.45597 0,1.0218 0.23103,1.84122 0.69547,2.4411 0.46822,0.59984 1.09078,0.88768 1.87857,0.88768 0.65428,0 1.1618,-0.18572 1.50929,-0.5622 0.35034,-0.38059 0.58516,-0.95969 0.71015,-1.74577 l 1.05054,0 c -0.18037,1.57411 -0.80909,2.56618 -1.89372,2.98853 l 5.23709,0 c -0.52504,-0.1933 -0.98521,-0.50009 -1.37579,-0.93204 -0.70683,-0.78604 -1.06522,-1.81793 -1.06522,-3.09212 0,-1.27012 0.35839,-2.29126 1.06522,-3.0773 0.7073,-0.79015 1.62339,-1.19839 2.76673,-1.19839 1.16416,0 2.09682,0.40824 2.79608,1.19839 0.70257,0.78604 1.06522,1.82498 1.06522,3.13648 0,0.58748 -0.0994,1.14404 -0.28122,1.65701 -0.17801,0.50889 -0.42704,0.95093 -0.75418,1.33152 -0.32382,0.37647 -0.72908,0.66839 -1.2134,0.88768 -0.0715,0.0317 -0.13351,0.0617 -0.20689,0.0888 l 5.07423,0 c -0.0852,-0.0322 -0.1799,-0.0632 -0.26607,-0.10354 -0.28311,-0.13247 -0.51888,-0.30025 -0.72529,-0.50307 -0.205,-0.20684 -0.3797,-0.48507 -0.51746,-0.8285 -0.13304,-0.34338 -0.20358,-0.74092 -0.20737,-1.18358 l 0.96154,0 0,0.074 c 0,0.22758 0.0331,0.43347 0.10368,0.63615 0.0686,0.20277 0.18322,0.41221 0.3404,0.60661 0.15765,0.19031 0.38869,0.34285 0.69547,0.45861 0.31152,0.11589 0.68079,0.16276 1.10925,0.16276 0.32808,0 0.60741,-0.0222 0.85833,-0.0888 0.25044,-0.0661 0.4507,-0.15225 0.59178,-0.25153 0.14582,-0.0993 0.26654,-0.21853 0.35508,-0.35507 0.089,-0.14061 0.14865,-0.27947 0.17753,-0.39944 0.0284,-0.11992 0.0284,-0.23752 0.0284,-0.36989 0,-0.32264 -0.11599,-0.59851 -0.35507,-0.81368 -0.23435,-0.21513 -0.59368,-0.38547 -1.09457,-0.51779 l -1.96758,-0.53261 c -1.04249,-0.27724 -1.56847,-0.90913 -1.56847,-1.89372 0,-0.74054 0.24997,-1.3196 0.75464,-1.74583 0.50942,-0.43015 1.1992,-0.65096 2.07126,-0.65096 0.91325,0 1.63618,0.22313 2.14512,0.66578 0.50893,0.44266 0.76127,1.06148 0.76932,1.86414 l -0.96154,0 c -0.01,-0.5337 -0.17848,-0.94256 -0.51793,-1.22799 -0.33945,-0.28548 -0.82945,-0.41425 -1.46432,-0.41425 -0.53829,0 -0.97479,0.11755 -1.30193,0.36989 -0.32383,0.24822 -0.48858,0.57749 -0.48858,0.99122 0,0.31436 0.10226,0.56187 0.29589,0.73978 0.19411,0.17787 0.5364,0.34097 1.02119,0.47343 l 1.99693,0.54739 c 0.5416,0.14894 0.95159,0.39872 1.24275,0.75455 0.29495,0.35162 0.44408,0.78239 0.44408,1.28711 0,0.21925 -0.0331,0.42519 -0.089,0.63615 -0.053,0.21106 -0.1354,0.43821 -0.28074,0.66579 -0.14629,0.22753 -0.33661,0.4329 -0.56244,0.6066 -0.17753,0.1355 -0.40431,0.24434 -0.68079,0.34026 l 11.59905,0 c -0.0852,-0.0322 -0.16476,-0.0632 -0.2514,-0.10354 -0.28263,-0.13247 -0.51935,-0.30025 -0.72482,-0.50307 -0.20641,-0.20684 -0.38016,-0.48507 -0.51793,-0.8285 -0.13304,-0.34338 -0.2031,-0.74092 -0.20689,-1.18358 l 0.96154,0 0,0.074 c 0,0.22758 0.0331,0.43347 0.10368,0.63615 0.0686,0.20277 0.1818,0.41221 0.34039,0.60661 0.15766,0.19031 0.38822,0.34285 0.695,0.45861 0.31104,0.11589 0.68079,0.16276 1.10972,0.16276 0.32667,0 0.60741,-0.0222 0.85786,-0.0888 0.25139,-0.0661 0.4507,-0.15225 0.59179,-0.25153 0.14629,-0.0993 0.26606,-0.21853 0.35507,-0.35507 0.0885,-0.14061 0.14913,-0.27947 0.17801,-0.39944 0.0284,-0.11992 0.0426,-0.23752 0.0426,-0.36989 0,-0.32264 -0.11647,-0.59851 -0.35507,-0.81368 -0.23435,-0.21513 -0.60884,-0.38547 -1.10925,-0.51779 l -1.96805,-0.53261 c -1.0425,-0.27724 -1.568,-0.90913 -1.568,-1.89372 0,-0.74054 0.24997,-1.3196 0.75417,-1.74583 0.50989,-0.43015 1.19825,-0.65096 2.07173,-0.65096 0.91372,0 1.6357,0.22313 2.14512,0.66578 0.50846,0.44266 0.76127,1.06148 0.76932,1.86414 l -0.96201,0 c -0.01,-0.5337 -0.17801,-0.94256 -0.51746,-1.22799 -0.33945,-0.28548 -0.82992,-0.41425 -1.46479,-0.41425 -0.53687,0 -0.97432,0.11755 -1.30194,0.36989 -0.32288,0.24822 -0.47343,0.57749 -0.47343,0.99122 0,0.31436 0.0866,0.56187 0.28122,0.73978 0.19316,0.17787 0.53545,0.34097 1.02072,0.47343 l 1.9974,0.54739 c 0.5416,0.14894 0.96674,0.39872 1.25743,0.75455 0.29495,0.35162 0.44408,0.78239 0.44408,1.28711 0,0.21925 -0.0331,0.42519 -0.089,0.63615 -0.0525,0.21106 -0.15008,0.43821 -0.2959,0.66579 -0.14534,0.22753 -0.33613,0.4329 -0.56196,0.6066 -0.17706,0.1355 -0.40525,0.24434 -0.68079,0.34026 l 30.787636,0 c -0.24713,-0.0896 -0.49047,-0.19823 -0.72482,-0.34026 -0.63392,-0.38882 -1.13765,-0.91462 -1.50929,-1.56828 -0.37023,-0.65779 -0.56197,-1.36911 -0.56197,-2.13044 0,-0.5791 0.12215,-1.13164 0.3404,-1.65701 0.22157,-0.52546 0.51604,-0.98042 0.88768,-1.36111 0.37212,-0.38475 0.8143,-0.67904 1.33129,-0.90245 0.51746,-0.22758 1.06285,-0.35507 1.62765,-0.35507 0.56623,0 1.09884,0.12749 1.61251,0.35507 0.51272,0.22341 0.94875,0.52181 1.31661,0.90245 0.37164,0.38059 0.66895,0.8358 0.88768,1.36111 0.22204,0.52551 0.3404,1.06716 0.3404,1.64224 0,0.58743 -0.11836,1.14229 -0.3404,1.67178 -0.21873,0.52953 -0.51225,0.99529 -0.88768,1.37593 -0.37591,0.38059 -0.82425,0.67904 -1.34644,0.9025 -0.0914,0.0393 -0.187,0.0711 -0.28074,0.10354 l 39.16169,0 5.48848,0 4.63062,0 0,-11.36233 -4.63062,0 -5.48848,0 -44.04418,0 c 1.46053,-1.77418 2.3378,-4.03623 2.3378,-6.50967 0,-5.6824 -4.61406,-10.29711 -10.2971,-10.29711 -0.13304,0 -0.26749,-0.005 -0.399576,0 z m -0.0284,2.05644 c 0.0691,-0.005 0.137286,0 0.206886,0 l 0.22204,0 c 4.55107,0 8.22584,3.69465 8.22584,8.24067 0,2.64411 -1.24512,5.00104 -3.18098,6.50967 l -10.089736,0 c -1.94012,-1.50863 -3.19565,-3.86556 -3.19565,-6.50967 0,-4.40394 3.45793,-8.01986 7.8116,-8.24067 z m -34.02829,2.5891 c 0.005,0 0.01,-5e-5 0.0142,0 1.17174,0.007 2.12428,0.28922 2.86994,0.85809 0.7395,0.57385 1.3043,1.4415 1.68683,2.58905 0.21683,0.79068 0.32525,1.57449 0.32525,2.35238 0,1.70871 -0.40952,3.1219 -1.22808,4.23129 -0.80909,1.08983 -2.02439,1.63541 -3.65394,1.64218 -0.005,0 -0.01,5e-5 -0.0142,0 -1.62907,-0.007 -2.84342,-0.55235 -3.65393,-1.64218 -0.8162,-1.10939 -1.22808,-2.52258 -1.22808,-4.23129 0,-0.77789 0.10747,-1.5617 0.32572,-2.35238 0.38206,-1.14755 0.94686,-2.0152 1.68636,-2.58905 0.74565,-0.56887 1.69819,-0.85099 2.86993,-0.85809 z m -13.71433,0.13313 c 0.87963,4e-5 1.6196,0.21337 2.21897,0.62142 0.61214,0.39532 0.9175,1.0077 0.9175,1.84932 0,1.08391 -0.41425,1.80296 -1.2579,2.16002 -0.8285,0.35706 -1.87478,0.53261 -3.136,0.53261 l 0,-2.70741 c 0,-0.0765 0,-0.40265 0.0142,-0.97649 0.0142,-0.5738 0.0379,-1.05045 0.0739,-1.42029 l 1.1689,-0.0592 z m 53.586156,0.57701 c -0.15055,-0.005 -0.29542,0.0504 -0.41425,0.16277 l -5.10404,4.82302 c -0.23767,0.22474 -0.23956,0.59089 -0.0142,0.82851 0.2244,0.23766 0.59084,0.25432 0.8285,0.0298 l 5.08937,-4.82312 c 0.23766,-0.22469 0.25423,-0.59084 0.0284,-0.8285 -0.1122,-0.11878 -0.26323,-0.18809 -0.41425,-0.19231 z m -29.426526,1.86414 5.47427,5.7847 c 0.68648,0.73964 1.33839,1.45869 1.93775,2.16007 0.51415,0.57792 0.96722,1.12568 1.39094,1.64219 l -8.55157,0 c -0.17186,-1.53154 -0.25139,-3.02167 -0.25139,-4.468 l 0,-5.11896 z m -37.2088,3.22524 c 0.53593,0 1.33839,0 2.39698,0.0147 1.05812,0.0128 1.84401,0.0298 2.36716,0.0298 l 0,2.04162 -0.0142,1.93813 c 0,0.11476 -0.0237,0.46382 -0.0587,1.05045 -0.0284,0.53678 -0.0426,0.95131 -0.0426,1.28712 l -6.89457,0 c 0,-0.30002 -0.0237,-0.89029 -0.0739,-1.86414 -0.0379,-1.03288 -0.0592,-1.83771 -0.0592,-2.41156 l 0,-2.04162 2.38183,-0.0445 z m 11.79174,0.17754 0.4436,0 c 0.79063,0.9309 1.5538,1.91327 2.2933,2.95894 0.72009,1.00594 1.4397,2.08603 2.15979,3.22524 l -4.76366,0 c 0,-0.31095 -0.0237,-0.89791 -0.0743,-1.83454 -0.0379,-0.9819 -0.0611,-1.74895 -0.0587,-2.32279 l 0,-2.02685 z m -29.58941,9.37984 3.21034,0 c 0.36359,0 0.69357,0.0528 0.97621,0.14795 0.28264,0.091 0.5113,0.19964 0.68079,0.3403 0.16949,0.14061 0.30536,0.31265 0.41425,0.50297 0.11268,0.19037 0.19553,0.36956 0.23672,0.54743 0.0426,0.17379 0.0592,0.35057 0.0592,0.53261 0,0.83158 -0.36407,1.42791 -1.09505,1.77536 0.50468,0.20277 0.86401,0.45492 1.09505,0.76933 0.22961,0.3144 0.35507,0.72089 0.35507,1.21316 0,0.69921 -0.22298,1.26046 -0.65097,1.6866 -0.42798,0.42201 -0.99467,0.63615 -1.7015,0.63615 l -3.58009,0 0,-8.15186 z m 46.09982,0 1.25791,0 2.33732,3.96498 2.26395,-3.96498 1.21292,0 -2.98829,4.9562 0,3.19566 -1.02119,0 0,-3.19566 -3.06262,-4.9562 z m 14.61764,0 6.24313,0 0,0.93204 -2.60387,0 0,7.21982 -1.02072,0 0,-7.21982 -2.61854,0 0,-0.93204 z m 7.4267,0 5.50363,0 0,0.93204 -4.49759,0 0,2.5891 4.33473,0 0,0.91727 -4.33473,0 0,2.79622 4.70495,0 0,0.91723 -5.71099,0 0,-8.15186 z m 7.08678,0 1.42029,0 2.352006,7.10145 2.32311,-7.10145 1.39047,0 0,8.15186 -0.94687,0 0,-6.82034 -2.24878,6.82034 -1.065216,0 -2.26347,-6.82034 0,6.82034 -0.96154,0 0,-8.15186 z m 15.327296,0.54743 c -0.61735,0 -1.18689,0.16551 -1.71618,0.4882 -0.5293,0.31857 -0.95112,0.75171 -1.25743,1.30193 -0.30726,0.5461 -0.45876,1.1448 -0.45876,1.79014 0,0.63719 0.1515,1.22519 0.45876,1.77536 0.30631,0.55027 0.70683,0.99402 1.2276,1.31675 0.52125,0.32269 1.09552,0.48825 1.70151,0.48825 0.63487,0 1.21624,-0.16968 1.74554,-0.48825 0.53356,-0.31852 0.95538,-0.74106 1.2579,-1.28711 0.30726,-0.55027 0.45876,-1.16199 0.45876,-1.81977 0,-0.47987 -0.0994,-0.93744 -0.28122,-1.37589 -0.17801,-0.43858 -0.41804,-0.82069 -0.72529,-1.13921 -0.30631,-0.32269 -0.67086,-0.56836 -1.09458,-0.75451 -0.4204,-0.19027 -0.85501,-0.29589 -1.31661,-0.29589 z m -79.713836,0.23671 c -0.84413,0 -1.53581,0.31564 -2.05658,0.93204 -0.51793,0.61224 -0.76933,1.42101 -0.76933,2.42633 0,1.00529 0.2514,1.80988 0.76933,2.42634 0.52077,0.61228 1.20867,0.91727 2.05658,0.91727 0.84081,0 1.52019,-0.29433 2.04143,-0.90246 0.52504,-0.61233 0.784,-1.41622 0.784,-2.39678 0,-1.03005 -0.25233,-1.85429 -0.76885,-2.4707 -0.51793,-0.62057 -1.19967,-0.93204 -2.05658,-0.93204 z m 23.61235,0 c -0.84413,0 -1.52114,0.31564 -2.04191,0.93204 -0.51793,0.61224 -0.76932,1.42101 -0.76932,2.42633 0,1.00529 0.25139,1.80988 0.76932,2.42634 0.52077,0.61228 1.20867,0.91727 2.05658,0.91727 0.84081,0 1.52066,-0.29433 2.04143,-0.90246 0.52646,-0.61233 0.78448,-1.41622 0.78448,-2.39678 0,-1.03005 -0.25234,-1.85429 -0.76933,-2.4707 -0.51698,-0.62057 -1.21435,-0.93204 -2.07125,-0.93204 z m -33.45118,0.1479 0,2.5891 1.96805,0 c 0.50941,0 0.90851,-0.0973 1.18358,-0.2959 0.27506,-0.20267 0.3991,-0.54274 0.3991,-1.00604 0,-0.25645 -0.0331,-0.47721 -0.11836,-0.65096 -0.081,-0.17792 -0.19695,-0.30844 -0.35507,-0.39948 -0.15339,-0.091 -0.32525,-0.1551 -0.50279,-0.19231 -0.17422,-0.0374 -0.3759,-0.0445 -0.60646,-0.0445 l -1.96805,0 z m 87.718126,0.6806 0.0142,0 2.23412,0 c 1.03019,0 1.53865,0.46221 1.53865,1.40548 0,0.25238 -0.0426,0.46415 -0.13351,0.62137 -0.0847,0.15723 -0.23245,0.31872 -0.45828,0.48821 0.17375,0.11589 0.29306,0.26355 0.36975,0.42907 0.0805,0.16134 0.11836,0.32273 0.11836,0.48825 0,0.16129 0.005,0.3162 0,0.47343 -0.009,0.15717 0,0.30318 0.0284,0.44379 0.0379,0.1407 0.1122,0.25759 0.22156,0.3403 l 0,0.28112 -0.85785,0 c -0.12168,-0.28131 -0.17896,-0.56437 -0.16286,-0.85814 l 0.0142,-0.44379 c 0,-0.26891 -0.0649,-0.47187 -0.17754,-0.59179 -0.10889,-0.12001 -0.27459,-0.17753 -0.51793,-0.17753 l -1.46432,0 0,2.07125 -0.76933,0 0,-4.97102 z m 0.76933,0.71015 0,1.49424 1.40561,0 c 0.28169,0 0.49237,-0.0576 0.62114,-0.17754 0.13304,-0.12413 0.19221,-0.30981 0.19221,-0.56219 0,-0.26475 -0.0634,-0.45705 -0.19221,-0.57697 -0.12877,-0.11997 -0.33519,-0.17754 -0.62114,-0.17754 l -1.40561,0 z m -88.487456,2.1008 0,2.81104 2.48551,0 c 0.27175,5e-5 0.4971,-0.0464 0.69547,-0.13318 0.19789,-0.091 0.3475,-0.21025 0.44408,-0.35507 0.10131,-0.14889 0.17706,-0.2949 0.22204,-0.44384 0.0426,-0.14894 0.0587,-0.30148 0.0587,-0.45866 0,-0.4303 -0.1231,-0.77912 -0.36975,-1.03558 -0.24619,-0.25646 -0.5899,-0.38471 -1.05055,-0.38471 l -2.48551,0 z"
         id="text8329-4-6-1-5-6-3-0-4-8-1-3-5-7-2-5-1-6-7-6-6-0-31-4-8-7-6-1" />
      <g
         id="g289"
         transform="matrix(0.05953525,0,0,0.05953525,127.24567,46.973617)">
        <path
           transform="translate(-188.771,11.2936)"
           id="path4"
           style="fill:#ffffff;fill-opacity:1;stroke:none"
           d="m 344.427,534.692 51.63,82.284 66.957,33.882 101.646,-33.075 61.31,-95.192 -6.453,-88.739 -50.017,-111.326 -23.394,-44.369 -125.041,1.613 -6.454,37.916 -43.562,73.41 -29.042,79.865 2.42,63.731 z" />
        <g
           transform="translate(107.656,-154.861)"
           id="g5"
           style="fill:#000000;fill-opacity:1;stroke:none">
          <path
             id="path108"
             d="m 329.336,727.552 c -14.112,-1.224 -25.2,-11.736 -26.208,-32.616 3.24,-55.44 6.48,-112.824 -31.896,-149.832 -5.976,-46.08 -27.216,-63 -37.224,-92.592 l -15.768,-11.304 18.864,-29.52 8.064,0.216 78.768,159.264 16.488,80.28 -11.088,76.104 z"
             style="fill:#c1c1bf" />
          <path
             id="path107"
             d="m 136.232,439.696 c -2.376,15.552 -3.672,30.816 -1.44,45.576 -16.416,22.32 -28.872,44.856 -30.312,68.04 -12.456,33.192 -42.048,61.272 -36.936,126.792 16.632,17.352 39.888,33.48 59.832,50.256 25.056,20.952 10.152,48.6 -25.128,42.048 -7.848,-8.64 -25.632,-62.784 -59.328,-96.12 l 6.624,-43.704 31.824,-85.176 39.6,-63.36 4.392,-27.36 -5.544,-69.912 4.608,-25.56 11.808,78.48 0,0 z"
             style="fill:#c1c1bf" />
          <path
             id="path106"
             d="m 115.64,341.416 c 0.936,-5.04 2.16,-9.792 3.672,-14.256 l 2.376,15.624 -6.048,-1.368 z"
             style="fill:#c1c1bf" />
          <path
             id="path105"
             d="m 120.968,500.464 c -12.6,23.328 -16.992,45.792 11.952,49.752 -15.912,3.672 -35.712,18.432 -55.728,43.272 l 0.432,-50.472 23.832,-39.744 19.512,-2.808 z"
             style="fill:#c1c1bf" />
          <path
             id="path104"
             d="m -33.256,818.488 c 43.776,19.656 74.664,18.576 102.528,32.472 22.032,11.592 44.28,10.224 57.672,-3.816 11.376,-14.688 19.8,-15.408 36.576,-16.92 27.432,-1.656 54.216,-1.944 78.408,0.576 l 27.648,2.232 c -0.504,31.032 58.464,34.848 75.816,11.304 20.952,-24.912 49.752,-36.072 74.448,-54.144 L 289.304,725.536 c -33.48,80.928 -158.256,102.096 -175.536,37.728 l -147.024,55.224 z"
             style="fill:#c1c1bf" />
          <path
             id="path103"
             d="m 286.424,711.568 c -12.6,-0.072 -25.488,4.032 -24.48,20.592 l 4.248,44.28 38.232,-19.8 -18,-45.072 z"
             style="fill:#c1c1bf" />
          <path
             id="path102"
             d="m -37.36,821.224 c 44.496,19.656 75.96,18.504 104.328,32.472 22.392,11.52 45,10.224 58.68,-3.888 11.592,-14.616 20.16,-15.336 37.224,-16.848 27.864,-1.728 55.152,-1.944 79.776,0.504 l 28.08,2.304 c -0.504,31.032 59.544,34.776 77.184,11.232 21.312,-24.912 50.616,-36 75.744,-54.144 L 290.816,728.272 C 256.76,809.128 129.824,830.296 112.256,766 L -37.36,821.224 z" />
          <path
             id="path101"
             d="m 382.328,691.984 c 21.312,6.984 7.56,28.296 18.432,40.536 4.68,10.368 14.544,19.512 31.032,28.008 27.576,13.896 -5.544,38.808 -39.024,51.552 -40.824,13.536 -48.744,50.832 -93.456,39.816 -16.2,-5.4 -20.952,-20.088 -20.448,-42.768 5.4,-46.368 -1.08,-78.696 -0.072,-110.304 -0.072,-12.672 4.752,-14.184 28.44,-10.872 2.808,38.376 45.144,39.384 75.096,4.032 z"
             style="fill:#b77200" />
          <path
             id="path100"
             d="m 339.632,826.624 c 31.968,-12.312 64.224,-28.512 90.216,-44.496 7.992,-4.68 9.072,-16.2 -2.16,-19.8 -24.336,-13.824 -37.584,-31.104 -34.776,-53.568 0.432,-7.848 -9.216,-16.2 -11.808,-8.712 -21.24,71.424 -89.784,67.608 -80.352,-3.096 0.504,-2.088 1.008,-4.176 1.512,-6.192 -12.312,-2.52 -17.064,0.216 -16.488,9.648 l 9.504,106.2 c 2.376,24.192 22.032,29.52 44.352,20.016 z"
             style="fill:#f2b700" />
          <path
             id="path99"
             d="m 354.464,537.544 c 24.696,32.256 49.968,113.544 29.952,154.008 -23.472,46.224 -76.608,51.696 -78.912,4.248 3.312,-56.16 6.48,-114.264 -31.824,-151.704 -5.976,-46.728 -27.288,-63.864 -37.296,-93.816 l -33.264,-24.192 -69.552,9 c -2.808,17.064 -4.464,33.696 -2.016,49.824 -16.488,22.464 -28.944,45.144 -30.384,68.4 -12.456,33.336 -42.048,61.632 -36.936,127.44 16.632,17.496 39.888,33.696 59.832,50.544 25.056,21.096 11.448,45 -23.832,38.376 C 78.848,746.056 56.744,722.872 35.288,699.328 12.392,683.056 3.896,662.176 27.368,630.496 43.424,609.04 47.96,562.456 62,543.664 74.312,525.16 92.24,508.6 105.272,490.096 c 6.912,-12.168 9.072,-21.528 7.992,-35.64 l -2.952,-85.32 c -1.944,-61.92 32.112,-94.896 79.488,-93.888 53.712,0.504 97.776,37.224 98.352,103.032 4.536,32.04 -4.896,50.4 20.52,96.192 25.848,48.24 29.88,45.648 45.792,63.072 z" />
          <path
             id="path98"
             d="m 261.296,503.632 2.232,8.568 c -5.832,-10.512 -12.816,-28.584 -21.6,-36.504 -2.664,-2.16 -6.12,-2.088 -8.208,-0.072 -11.664,11.304 -40.608,34.488 -63.792,31.464 -17.856,-1.8 -35.28,-13.824 -39.096,-26.856 -2.016,-9.36 -1.08,-17.064 0.144,-24.912 l 109.728,-1.8 c -2.232,9.648 12.384,33.48 20.592,50.112 z"
             style="fill:#c1c1bf" />
          <path
             id="path97"
             d="m 143.144,363.232 c 10.944,0 20.736,13.608 20.664,32.4 -0.072,12.6 -8.28,15.84 -14.472,21.384 -2.736,2.52 -3.384,16.128 -6.768,16.128 -10.872,0 -19.08,-19.368 -19.08,-37.512 0,-18.072 8.784,-32.4 19.656,-32.4 z"
             style="fill:#c1c1bf" />
          <path
             id="path96"
             d="m 144.368,375.04 c 9.72,0 16.488,4.896 17.28,16.272 0.576,7.848 -1.512,20.448 -6.984,23.112 -2.52,1.224 -11.232,12.24 -14.256,12.096 C 128.096,425.944 125,402.112 125.936,390.736 126.8,379.36 134.72,375.04 144.368,375.04 z"
             style="fill:#ffffff" />
          <path
             id="path95"
             d="m 141.848,382.672 c 6.696,-0.576 12.888,7.056 13.752,16.992 0.864,9.936 -3.96,18.576 -10.656,19.152 -6.696,0.576 -12.888,-7.056 -13.752,-17.064 -0.864,-9.936 3.96,-18.504 10.656,-19.08 z" />
          <path
             id="path94"
             d="m 151.064,397.288 c 0.36,1.8 -1.656,2.736 -2.232,0.936 -0.576,-2.232 -1.944,-4.896 -3.744,-7.056 -1.152,-1.296 0,-2.736 1.44,-1.728 2.52,2.088 3.96,4.68 4.536,7.848 z"
             style="fill:#c1c1bf" />
          <path
             id="path93"
             d="m 216.944,360.712 c 15.768,0 28.656,16.704 28.656,37.08 0,20.448 -12.888,37.08 -28.656,37.08 -15.768,0 -28.512,-16.632 -28.512,-37.08 0,-20.376 12.744,-37.08 28.512,-37.08 z"
             style="fill:#c1c1bf" />
          <path
             id="path92"
             d="m 224.792,374.968 c 10.872,3.888 17.136,12.456 17.928,21.6 0.936,10.512 -3.312,22.392 -12.456,29.376 -2.592,1.944 -32.544,-9.864 -34.272,-14.328 -2.592,-6.408 -4.176,-18.72 -2.232,-25.992 0.792,-2.88 3.456,-7.056 7.416,-9.288 6.264,-3.528 15.48,-4.248 23.616,-1.368 z"
             style="fill:#ffffff" />
          <path
             id="path91"
             d="m 216.872,380.944 c 8.712,0 15.84,8.352 15.84,18.504 0,10.224 -7.128,18.576 -15.84,18.576 -8.712,0 -15.84,-8.352 -15.84,-18.576 0,-10.152 7.128,-18.504 15.84,-18.504 z" />
          <path
             id="path90"
             d="m 227.096,392.392 c 1.008,1.656 -0.648,3.384 -1.872,1.728 -1.44,-2.016 -3.816,-4.176 -6.336,-5.688 -1.656,-0.864 -1.08,-2.808 0.792,-2.232 3.24,1.08 5.688,3.168 7.416,6.192 z"
             style="fill:#c1c1bf" />
          <path
             id="path89"
             d="m 164.96,404.488 c 7.416,-2.16 19.152,-1.44 27.288,0.144 8.136,2.16 29.808,13.608 52.776,26.064 2.952,1.512 3.816,6.408 0,7.992 -5.904,0.432 4.248,14.976 -6.12,20.16 -15.552,4.032 -40.464,27.144 -52.776,29.016 -6.84,1.512 -13.896,1.728 -21.528,0 -24.048,-4.896 -30.384,-32.256 -41.688,-37.8 -3.096,-3.24 -1.512,-8.856 -0.504,-10.008 1.224,-5.832 27.288,-33.84 42.552,-35.568 z"
             style="fill:#b77200" />
          <path
             id="path88"
             d="m 185.408,405.856 c 13.032,1.44 40.68,18.072 54,24.768 3.312,1.8 3.096,7.2 0.144,8.064 -3.168,1.8 -4.104,-0.432 -6.624,-0.792 -4.032,-2.16 -10.656,3.024 -15.912,6.984 -30.312,22.896 -36.36,20.376 -60.84,17.784 -8.496,-2.088 -14.04,-4.68 -16.488,-6.696 1.8,-10.08 20.808,-48.312 27.072,-49.176 1.584,-2.088 13.176,-2.16 18.648,-0.936 z"
             style="fill:#f2b700" />
          <path
             id="path87"
             d="m 190.664,412.048 3.096,1.368 c 2.304,1.296 -0.504,4.752 -3.024,3.672 l -4.536,-1.584 c -2.664,-2.232 0.504,-5.4 4.464,-3.456 z"
             style="fill:#b77200" />
          <path
             id="path86"
             d="m 268.568,452.368 c 4.464,2.016 10.656,4.824 13.968,7.776 2.952,3.96 4.248,7.92 3.888,11.88 -0.648,2.52 -2.304,4.32 -5.184,5.4 -3.384,0.792 -7.56,0 -9.864,-3.312 -1.512,-2.664 -6.12,-11.952 -7.416,-13.536 -1.728,-3.456 -2.016,-6.12 -1.08,-8.208 1.152,-1.08 3.168,-1.368 5.688,0 z"
             style="fill:#b77200" />
          <path
             id="path85"
             d="m 273.752,461.584 c 1.728,0.792 4.176,1.872 5.472,3.096 1.152,1.584 1.656,3.096 1.512,4.68 -0.216,0.936 -0.936,1.656 -2.016,2.088 -1.368,0.36 -2.952,0 -3.888,-1.296 -0.576,-1.008 -2.376,-4.68 -2.88,-5.328 -0.72,-1.368 -0.864,-2.376 -0.504,-3.24 0.504,-0.432 1.296,-0.504 2.304,0 z"
             style="fill:#c1c1bf" />
          <path
             id="path84"
             d="m 238.616,358.552 c 0.432,0.648 0.36,1.224 -0.216,1.728 -0.504,0.504 -1.224,0.432 -2.16,-0.072 l -4.608,-3.96 c -0.576,-0.504 -0.72,-1.296 -0.36,-2.16 1.008,-0.648 1.872,-0.648 2.664,0 l 4.68,4.464 z"
             style="fill:#b77200" />
          <path
             id="path83"
             d="m 235.592,305.992 c 4.032,2.232 5.256,7.92 2.592,12.6 -2.592,4.608 -8.064,6.552 -12.168,4.248 -4.032,-2.304 -5.256,-7.92 -2.592,-12.6 2.592,-4.68 8.064,-6.552 12.168,-4.248 z"
             style="fill:#b77200" />
          <path
             id="path82"
             d="m 374.912,680.536 c 3.384,2.592 -1.656,6.84 -3.888,5.76 -1.872,-0.648 -3.24,-2.808 -4.104,-3.888 -0.792,-1.224 -0.72,-3.24 0,-3.96 0.792,-1.008 2.808,-0.792 4.104,0.072 1.296,0.648 2.592,1.368 3.888,2.016 z"
             style="fill:#b77200" />
          <path
             id="path81"
             d="m 297.44,551.512 c 41.544,21.384 52.56,60.048 34.632,112.68 -1.08,2.448 2.088,4.176 3.168,1.872 19.584,-55.728 6.192,-94.752 -36.216,-117.504 -2.16,-1.008 -3.744,1.872 -1.584,2.952 z"
             style="fill:#b77200" />
          <path
             id="path80"
             d="m 72.008,569.512 c -33.696,57.744 -33.912,93.168 -9.504,111.816 1.224,0.936 1.944,-1.296 0.792,-2.16 -27,-23.688 -14.4,-63.648 10.872,-108.288 0.72,-1.296 -1.656,-2.448 -2.16,-1.368 z"
             style="fill:#b77200" />
          <path
             id="path79"
             d="m 289.376,586.864 c -0.144,2.304 -1.008,2.664 -2.952,0.504 -6.624,-11.52 -51.336,-35.928 -73.08,-38.664 -4.104,-1.44 -3.888,-3.312 0.144,-3.888 15.696,0 27.792,-6.912 41.472,-6.912 3.744,0.144 7.344,1.584 9.432,3.744 5.112,3.312 23.688,28.944 24.984,45.216 z"
             style="fill:#c1c1bf" />
          <path
             id="path78"
             d="m 180.152,546.832 c 0.72,3.96 -16.344,-1.152 -15.408,9.864 0.288,3.024 -4.248,4.68 -4.104,0 0,-8.424 0.432,-8.28 -7.92,-9.864 -1.512,-0.072 -1.368,-2.304 0,-2.016 l 0,0 c 5.976,1.656 14.04,-1.944 13.68,-5.976 -0.144,-1.368 2.16,-1.152 2.088,0 -0.504,6.408 13.176,3.312 11.664,7.992 z"
             style="fill:#c1c1bf" />
          <path
             id="path77"
             d="m 151.568,705.376 c 0.072,2.952 -2.808,2.304 -3.024,0.216 -8.352,-25.056 -4.824,-86.76 3.312,-106.632 0.576,-2.88 4.392,-2.016 3.888,0 -8.64,36.504 -8.496,74.088 -4.176,106.416 z"
             style="fill:#c1c1bf" />
          <path
             id="path76"
             d="m 51.704,684.424 c 23.976,23.4 39.672,58.824 62.928,90.864 33.84,40.752 6.84,83.016 -48.168,70.272 -27.576,-10.368 -67.248,-9.216 -99.144,-19.728 -22.392,-5.472 -23.184,-16.56 -11.736,-38.232 4.032,-13.824 4.392,-36.288 0.648,-55.008 -2.016,-14.184 4.536,-22.104 19.656,-23.76 l 0,0 c 12.816,-0.144 30.672,5.04 40.392,-22.392 7.272,-13.104 24.696,-13.464 35.424,-2.016 z"
             style="fill:#b77200" />
          <path
             id="path75"
             d="m 24.632,699.04 c -0.792,-18.072 14.688,-21.744 25.056,-10.728 18.504,22.68 35.424,47.736 50.688,76.68 24.336,39.168 4.248,77.688 -32.472,63.072 -18.216,-10.224 -61.776,-14.76 -85.248,-18.936 -15.696,-1.296 -17.784,-11.52 -11.808,-17.28 8.208,-9.432 9.072,-32.04 1.296,-51.336 -7.704,-11.952 6.768,-25.128 18.144,-19.656 C 0.8,727.048 25.64,713.08 24.632,699.04 z"
             style="fill:#f2b700" />
        </g>
      </g>
    </g>
  </g>
  <text
     xml:space="preserve"
     style="font-size:6px;font-style:normal;font-weight:normal;fill:#000000;fill-opacity:1;stroke:none;font-family:DejaVu Sans;-inkscape-font-specification:DejaVu Sans"
     x="0.9320972"
     y="6.201376"
     id="text2941"><tspan
       sodipodi:role="line"
       id="tspan2943"
       x="0.9320972"
       y="6.201376">Export draw:</tspan></text>
</svg>
