<?xml version="1.0" encoding="UTF-8" standalone="no"?>
<!-- Created with Inkscape (http://www.inkscape.org/) -->

<svg
   xmlns:dc="http://purl.org/dc/elements/1.1/"
   xmlns:cc="http://creativecommons.org/ns#"
   xmlns:rdf="http://www.w3.org/1999/02/22-rdf-syntax-ns#"
   xmlns:svg="http://www.w3.org/2000/svg"
   xmlns="http://www.w3.org/2000/svg"
   xmlns:xlink="http://www.w3.org/1999/xlink"
   xmlns:sodipodi="http://sodipodi.sourceforge.net/DTD/sodipodi-0.dtd"
   xmlns:inkscape="http://www.inkscape.org/namespaces/inkscape"
   width="1155.5201"
   height="478.51358"
   id="svg2"
   version="1.1"
   inkscape:version="0.47 r22583"
   sodipodi:docname="chronojump-boscosystem-schema.svg"
   inkscape:export-filename="/home/xavier/informatica/progs_meus/chronojump/chronojump/web/images/chronojump-boscosystem-schema.png"
   inkscape:export-xdpi="35.049999"
   inkscape:export-ydpi="35.049999">
  <defs
     id="defs4">
    <inkscape:perspective
       sodipodi:type="inkscape:persp3d"
       inkscape:vp_x="0 : 526.18109 : 1"
       inkscape:vp_y="0 : 1000 : 0"
       inkscape:vp_z="744.09448 : 526.18109 : 1"
       inkscape:persp3d-origin="372.04724 : 350.78739 : 1"
       id="perspective10" />
    <inkscape:perspective
       id="perspective3614"
       inkscape:persp3d-origin="0.5 : 0.33333333 : 1"
       inkscape:vp_z="1 : 0.5 : 1"
       inkscape:vp_y="0 : 1000 : 0"
       inkscape:vp_x="0 : 0.5 : 1"
       sodipodi:type="inkscape:persp3d" />
    <inkscape:perspective
       id="perspective3673"
       inkscape:persp3d-origin="0.5 : 0.33333333 : 1"
       inkscape:vp_z="1 : 0.5 : 1"
       inkscape:vp_y="0 : 1000 : 0"
       inkscape:vp_x="0 : 0.5 : 1"
       sodipodi:type="inkscape:persp3d" />
    <inkscape:perspective
       id="perspective3714"
       inkscape:persp3d-origin="0.5 : 0.33333333 : 1"
       inkscape:vp_z="1 : 0.5 : 1"
       inkscape:vp_y="0 : 1000 : 0"
       inkscape:vp_x="0 : 0.5 : 1"
       sodipodi:type="inkscape:persp3d" />
    <inkscape:perspective
       id="perspective3753"
       inkscape:persp3d-origin="0.5 : 0.33333333 : 1"
       inkscape:vp_z="1 : 0.5 : 1"
       inkscape:vp_y="0 : 1000 : 0"
       inkscape:vp_x="0 : 0.5 : 1"
       sodipodi:type="inkscape:persp3d" />
    <inkscape:perspective
       id="perspective3789"
       inkscape:persp3d-origin="0.5 : 0.33333333 : 1"
       inkscape:vp_z="1 : 0.5 : 1"
       inkscape:vp_y="0 : 1000 : 0"
       inkscape:vp_x="0 : 0.5 : 1"
       sodipodi:type="inkscape:persp3d" />
    <inkscape:perspective
       id="perspective4113"
       inkscape:persp3d-origin="0.5 : 0.33333333 : 1"
       inkscape:vp_z="1 : 0.5 : 1"
       inkscape:vp_y="0 : 1000 : 0"
       inkscape:vp_x="0 : 0.5 : 1"
       sodipodi:type="inkscape:persp3d" />
    <inkscape:perspective
       id="perspective4159"
       inkscape:persp3d-origin="0.5 : 0.33333333 : 1"
       inkscape:vp_z="1 : 0.5 : 1"
       inkscape:vp_y="0 : 1000 : 0"
       inkscape:vp_x="0 : 0.5 : 1"
       sodipodi:type="inkscape:persp3d" />
    <inkscape:perspective
       id="perspective4181"
       inkscape:persp3d-origin="0.5 : 0.33333333 : 1"
       inkscape:vp_z="1 : 0.5 : 1"
       inkscape:vp_y="0 : 1000 : 0"
       inkscape:vp_x="0 : 0.5 : 1"
       sodipodi:type="inkscape:persp3d" />
    <inkscape:perspective
       id="perspective4314"
       inkscape:persp3d-origin="0.5 : 0.33333333 : 1"
       inkscape:vp_z="1 : 0.5 : 1"
       inkscape:vp_y="0 : 1000 : 0"
       inkscape:vp_x="0 : 0.5 : 1"
       sodipodi:type="inkscape:persp3d" />
    <inkscape:perspective
       id="perspective7535"
       inkscape:persp3d-origin="0.5 : 0.33333333 : 1"
       inkscape:vp_z="1 : 0.5 : 1"
       inkscape:vp_y="0 : 1000 : 0"
       inkscape:vp_x="0 : 0.5 : 1"
       sodipodi:type="inkscape:persp3d" />
    <path
       sodipodi:nodetypes="cs"
       id="path10505-0-4-3-4-4-9-1-6-3-8-0-9-1-4-3-4"
       d="m 4008.6343,3896.6696 c 72.7028,-77.6519 123.6575,-111.9828 246.2221,-101.5945"
       style="fill:none;stroke:#000000;stroke-width:0.88108903px;stroke-linecap:butt;stroke-linejoin:miter;stroke-opacity:1" />
    <inkscape:perspective
       id="perspective2873"
       inkscape:persp3d-origin="0.5 : 0.33333333 : 1"
       inkscape:vp_z="1 : 0.5 : 1"
       inkscape:vp_y="0 : 1000 : 0"
       inkscape:vp_x="0 : 0.5 : 1"
       sodipodi:type="inkscape:persp3d" />
    <inkscape:perspective
       id="perspective2895"
       inkscape:persp3d-origin="0.5 : 0.33333333 : 1"
       inkscape:vp_z="1 : 0.5 : 1"
       inkscape:vp_y="0 : 1000 : 0"
       inkscape:vp_x="0 : 0.5 : 1"
       sodipodi:type="inkscape:persp3d" />
    <inkscape:perspective
       id="perspective2917"
       inkscape:persp3d-origin="0.5 : 0.33333333 : 1"
       inkscape:vp_z="1 : 0.5 : 1"
       inkscape:vp_y="0 : 1000 : 0"
       inkscape:vp_x="0 : 0.5 : 1"
       sodipodi:type="inkscape:persp3d" />
    <inkscape:perspective
       id="perspective3713"
       inkscape:persp3d-origin="0.5 : 0.33333333 : 1"
       inkscape:vp_z="1 : 0.5 : 1"
       inkscape:vp_y="0 : 1000 : 0"
       inkscape:vp_x="0 : 0.5 : 1"
       sodipodi:type="inkscape:persp3d" />
    <inkscape:perspective
       id="perspective3735"
       inkscape:persp3d-origin="0.5 : 0.33333333 : 1"
       inkscape:vp_z="1 : 0.5 : 1"
       inkscape:vp_y="0 : 1000 : 0"
       inkscape:vp_x="0 : 0.5 : 1"
       sodipodi:type="inkscape:persp3d" />
    <inkscape:perspective
       id="perspective3757"
       inkscape:persp3d-origin="0.5 : 0.33333333 : 1"
       inkscape:vp_z="1 : 0.5 : 1"
       inkscape:vp_y="0 : 1000 : 0"
       inkscape:vp_x="0 : 0.5 : 1"
       sodipodi:type="inkscape:persp3d" />
    <inkscape:perspective
       id="perspective3779"
       inkscape:persp3d-origin="0.5 : 0.33333333 : 1"
       inkscape:vp_z="1 : 0.5 : 1"
       inkscape:vp_y="0 : 1000 : 0"
       inkscape:vp_x="0 : 0.5 : 1"
       sodipodi:type="inkscape:persp3d" />
    <inkscape:perspective
       id="perspective3801"
       inkscape:persp3d-origin="0.5 : 0.33333333 : 1"
       inkscape:vp_z="1 : 0.5 : 1"
       inkscape:vp_y="0 : 1000 : 0"
       inkscape:vp_x="0 : 0.5 : 1"
       sodipodi:type="inkscape:persp3d" />
    <inkscape:perspective
       id="perspective3909"
       inkscape:persp3d-origin="0.5 : 0.33333333 : 1"
       inkscape:vp_z="1 : 0.5 : 1"
       inkscape:vp_y="0 : 1000 : 0"
       inkscape:vp_x="0 : 0.5 : 1"
       sodipodi:type="inkscape:persp3d" />
    <inkscape:perspective
       id="perspective3961"
       inkscape:persp3d-origin="0.5 : 0.33333333 : 1"
       inkscape:vp_z="1 : 0.5 : 1"
       inkscape:vp_y="0 : 1000 : 0"
       inkscape:vp_x="0 : 0.5 : 1"
       sodipodi:type="inkscape:persp3d" />
    <inkscape:perspective
       id="perspective3987"
       inkscape:persp3d-origin="0.5 : 0.33333333 : 1"
       inkscape:vp_z="1 : 0.5 : 1"
       inkscape:vp_y="0 : 1000 : 0"
       inkscape:vp_x="0 : 0.5 : 1"
       sodipodi:type="inkscape:persp3d" />
    <inkscape:perspective
       id="perspective3987-1"
       inkscape:persp3d-origin="0.5 : 0.33333333 : 1"
       inkscape:vp_z="1 : 0.5 : 1"
       inkscape:vp_y="0 : 1000 : 0"
       inkscape:vp_x="0 : 0.5 : 1"
       sodipodi:type="inkscape:persp3d" />
  </defs>
  <sodipodi:namedview
     id="base"
     pagecolor="#ffffff"
     bordercolor="#666666"
     borderopacity="1.0"
     inkscape:pageopacity="1"
     inkscape:pageshadow="2"
     inkscape:zoom="0.27170056"
     inkscape:cx="117.12135"
     inkscape:cy="274.90189"
     inkscape:document-units="px"
     inkscape:current-layer="capa1"
     showgrid="false"
     inkscape:window-width="1024"
     inkscape:window-height="718"
     inkscape:window-x="0"
     inkscape:window-y="25"
     inkscape:window-maximized="1"
     showguides="false"
     inkscape:guide-bbox="true"
     inkscape:snap-global="true">
    <sodipodi:guide
       orientation="0,1"
       position="383.44566,21.405526"
       id="guide4298" />
    <sodipodi:guide
       orientation="0,1"
       position="845.86969,0.80247543"
       id="guide4300" />
    <sodipodi:guide
       orientation="1,0"
       position="460.7071,-14.0215"
       id="guide4530" />
    <sodipodi:guide
       orientation="0,1"
       position="499.50054,455.89337"
       id="guide3833" />
    <sodipodi:guide
       orientation="0,1"
       position="991.26188,374.00001"
       id="guide3893" />
    <sodipodi:guide
       orientation="0,1"
       position="983.57141,349.91668"
       id="guide3895" />
    <sodipodi:guide
       orientation="1,0"
       position="893.30951,386.34525"
       id="guide3897" />
    <sodipodi:guide
       orientation="1,0"
       position="952.40474,386.54763"
       id="guide3899" />
    <sodipodi:guide
       orientation="1,0"
       position="1155.5201,201.76005"
       id="guide3975" />
    <sodipodi:guide
       orientation="1,0"
       position="1120.4208,213.41352"
       id="guide3977" />
    <sodipodi:guide
       orientation="1,0"
       position="739.11635,153.54882"
       id="guide2918" />
  </sodipodi:namedview>
  <metadata
     id="metadata7">
    <rdf:RDF>
      <cc:Work
         rdf:about="">
        <dc:format>image/svg+xml</dc:format>
        <dc:type
           rdf:resource="http://purl.org/dc/dcmitype/StillImage" />
        <dc:title></dc:title>
      </cc:Work>
    </rdf:RDF>
  </metadata>
  <g
     inkscape:label="Capa 1"
     inkscape:groupmode="layer"
     id="capa1"
     transform="translate(-17.221418,-179.3998)">
    <text
       xml:space="preserve"
       style="font-size:40px;font-style:normal;font-weight:normal;fill:#000000;fill-opacity:1;stroke:none;font-family:Bitstream Vera Sans"
       x="920.54028"
       y="604.62433"
       id="text3631"><tspan
         sodipodi:role="line"
         id="tspan3633"
         x="920.54028"
         y="604.62433">Athlete</tspan></text>
    <path
       sodipodi:type="arc"
       style="fill:none;stroke:#6c77ab;stroke-width:4.06622458;stroke-linejoin:round;stroke-miterlimit:4;stroke-opacity:1;stroke-dasharray:none;stroke-dashoffset:0"
       id="path2820"
       sodipodi:cx="251.42857"
       sodipodi:cy="689.50507"
       sodipodi:rx="108.57143"
       sodipodi:ry="48.57143"
       d="m 360,689.50507 c 0,26.82526 -48.60908,48.57143 -108.57143,48.57143 -59.96234,0 -108.57142,-21.74617 -108.57142,-48.57143 0,-26.82526 48.60908,-48.57143 108.57142,-48.57143 59.96235,0 108.57143,21.74617 108.57143,48.57143 z"
       transform="translate(740.07853,-99.792854)" />
    <g
       id="g3877">
      <path
         transform="translate(-32.77857,-99.792857)"
         d="m 360,689.50507 c 0,26.82526 -48.60908,48.57143 -108.57143,48.57143 -59.96234,0 -108.57142,-21.74617 -108.57142,-48.57143 0,-26.82526 48.60908,-48.57143 108.57142,-48.57143 59.96235,0 108.57143,21.74617 108.57143,48.57143 z"
         sodipodi:ry="48.57143"
         sodipodi:rx="108.57143"
         sodipodi:cy="689.50507"
         sodipodi:cx="251.42857"
         id="path2820-6"
         style="fill:none;stroke:#6c77ab;stroke-width:4.06622458;stroke-linejoin:round;stroke-miterlimit:4;stroke-opacity:1;stroke-dasharray:none;stroke-dashoffset:0"
         sodipodi:type="arc" />
      <text
         id="text3635"
         y="604.62433"
         x="121.12071"
         style="font-size:40px;font-style:normal;font-weight:normal;fill:#000000;fill-opacity:1;stroke:none;font-family:Bitstream Vera Sans"
         xml:space="preserve"><tspan
           y="604.62433"
           x="121.12071"
           id="tspan3637"
           sodipodi:role="line">Evaluator</tspan></text>
    </g>
    <g
       id="g3871"
       transform="translate(0,3.4746933e-5)">
      <rect
         y="205.77759"
         x="54.715408"
         height="102.15489"
         width="327.8692"
         id="rect3659-0"
         style="fill:none;stroke:#6c77ab;stroke-width:5.12381029;stroke-linejoin:round;stroke-miterlimit:4;stroke-opacity:1;stroke-dasharray:none;stroke-dashoffset:0" />
      <text
         id="text3661-5"
         y="246.76715"
         x="218.62071"
         style="font-size:40px;font-style:normal;font-weight:normal;text-align:center;text-anchor:middle;fill:#000000;fill-opacity:1;stroke:none;font-family:Bitstream Vera Sans"
         xml:space="preserve"><tspan
           y="246.76715"
           x="218.62071"
           id="tspan3663-3"
           sodipodi:role="line">Chronojump</tspan><tspan
           id="tspan3693"
           y="296.76715"
           x="218.62071"
           sodipodi:role="line">Server</tspan></text>
    </g>
    <text
       xml:space="preserve"
       style="font-size:40px;font-style:normal;font-weight:normal;fill:#000000;fill-opacity:1;stroke:none;font-family:Bitstream Vera Sans"
       x="509.78894"
       y="435.83618"
       id="text3661-7"><tspan
         sodipodi:role="line"
         id="tspan3663-2"
         x="509.78894"
         y="435.83618">Chronopic</tspan></text>
    <text
       xml:space="preserve"
       style="font-size:40px;font-style:normal;font-weight:normal;text-align:center;text-anchor:middle;fill:#000000;fill-opacity:1;stroke:none;font-family:Bitstream Vera Sans"
       x="991.44849"
       y="414.36157"
       id="text3661-7-3"><tspan
         sodipodi:role="line"
         id="tspan3663-2-8"
         x="991.44849"
         y="414.36157">Capture</tspan><tspan
         sodipodi:role="line"
         x="991.44849"
         y="464.36157"
         id="tspan3779">devices</tspan></text>
    <rect
       style="fill:#6c77ab;fill-opacity:1;stroke:none"
       id="rect4304"
       width="475.81625"
       height="20.5"
       x="-493.0379"
       y="-657.91132"
       transform="scale(-1,-1)" />
    <path
       style="fill:none;stroke:#000000;stroke-width:2;stroke-linecap:butt;stroke-linejoin:miter;stroke-miterlimit:4;stroke-opacity:1;stroke-dasharray:none;display:inline"
       d="m 201.42859,362.68586 0,-77.17954"
       id="path4520"
       inkscape:connector-type="polyline"
       transform="translate(17.221418,178.45492)"
       inkscape:connection-end="#rect3659" />
    <path
       style="fill:none;stroke:#000000;stroke-width:2;stroke-linecap:butt;stroke-linejoin:miter;stroke-miterlimit:4;stroke-opacity:1;stroke-dasharray:none;display:inline"
       d="m 201.42859,203.00821 0,-73.53065"
       id="path4522"
       inkscape:connector-type="polyline"
       transform="translate(17.221418,178.45492)"
       inkscape:connection-end="#rect3659-0"
       inkscape:connection-start="#rect3659" />
    <path
       style="fill:none;stroke:#000000;stroke-width:2;stroke-linecap:butt;stroke-linejoin:miter;stroke-miterlimit:4;stroke-opacity:1;stroke-dasharray:none;display:inline"
       d="m 737.39959,246.3461 92.81551,0"
       id="path4526"
       inkscape:connector-type="polyline"
       transform="translate(17.221418,178.45492)"
       inkscape:connection-end="#rect3659-6-5-6"
       inkscape:connection-start="#rect3659-6-5-6-4" />
    <g
       id="g3866"
       transform="translate(0,2.0888708)">
      <rect
         y="381.46313"
         x="54.543804"
         height="82.4981"
         width="328.2124"
         id="rect3659"
         style="fill:none;stroke:#6c77ab;stroke-width:4.60694027;stroke-linejoin:round;stroke-miterlimit:4;stroke-opacity:1;stroke-dasharray:none;stroke-dashoffset:0" />
      <text
         id="text3661"
         y="433.74734"
         x="96.550392"
         style="font-size:40px;font-style:normal;font-weight:normal;fill:#000000;fill-opacity:1;stroke:none;font-family:Bitstream Vera Sans"
         xml:space="preserve"><tspan
           y="433.74734"
           x="96.550392"
           id="tspan3663"
           sodipodi:role="line">Chronojump</tspan></text>
    </g>
    <rect
       style="fill:none;stroke:#6c77ab;stroke-width:4.75354338;stroke-linejoin:round;stroke-miterlimit:4;stroke-opacity:1;stroke-dasharray:none;stroke-dashoffset:0"
       id="rect3659-6-5-6"
       width="169.78699"
       height="169.78699"
       x="900.76123"
       y="-267.72946"
       transform="matrix(0.84853647,0.52913689,-0.84853647,0.52913689,0,0)" />
    <rect
       style="fill:none;stroke:#6c77ab;stroke-width:4.75354338;stroke-linejoin:round;stroke-miterlimit:4;stroke-opacity:1;stroke-dasharray:none;stroke-dashoffset:0"
       id="rect3659-6-5-6-4"
       width="169.78699"
       height="169.78699"
       x="676.28271"
       y="-43.250957"
       transform="matrix(0.84853647,0.52913689,-0.84853647,0.52913689,0,0)" />
    <path
       style="fill:none;stroke:#000000;stroke-width:2;stroke-linecap:butt;stroke-linejoin:miter;stroke-miterlimit:4;stroke-opacity:1;stroke-dasharray:none;display:inline"
       d="m 991.50706,541.14078 -2e-5,-26.49925"
       id="path4520-3"
       inkscape:connector-type="polyline"
       inkscape:connection-end="#rect3659-6-5-6"
       inkscape:connection-start="#path2820" />
    <path
       style="fill:none;stroke:#000000;stroke-width:2;stroke-linecap:butt;stroke-linejoin:miter;stroke-miterlimit:4;stroke-opacity:1;stroke-dasharray:none;display:inline"
       d="m 365.53479,246.97179 83.72393,0.3192"
       id="path3882"
       transform="translate(17.221418,178.45492)"
       inkscape:connector-type="polyline"
       inkscape:connection-start="#g3866" />
    <path
       style="fill:#ffffff;fill-opacity:1;fill-rule:evenodd;stroke:#ffffff;stroke-width:0.33260062;stroke-miterlimit:4;stroke-opacity:1;stroke-dasharray:none"
       d="m 478.19291,563.01803 0,94.66525 246.20243,0 0,-94.66525 -246.20243,0 z m 142.33418,46.26231 c 8.96048,0 16.22842,7.35413 16.22842,16.41836 0,9.06419 -7.26794,16.40795 -16.22842,16.40795 -8.96052,0 -16.22848,-7.34376 -16.22848,-16.40795 0,-9.06423 7.26796,-16.41836 16.22848,-16.41836 z"
       id="rect12340-7-5-57-9-74-5-9"
       inkscape:export-filename="/home/xavier/Desktop/maj-estil-tr.png"
       inkscape:export-xdpi="24"
       inkscape:export-ydpi="24" />
    <path
       style="fill:#ffffff;fill-opacity:1;fill-rule:evenodd;stroke:#6c77ab;stroke-width:1;stroke-opacity:1;stroke-miterlimit:4;stroke-dasharray:none"
       d="m 478.19271,586.357 0,51.56194 132.14699,0 c -3.56865,-3.01057 -5.83998,-7.54566 -5.83998,-12.61511 0,-9.06423 7.26461,-16.40795 16.22093,-16.40795 8.95633,0 16.21053,7.34372 16.21053,16.40795 0,5.06919 -2.26126,9.60454 -5.82957,12.61511 l 93.29369,0 0,-51.56194 -246.20259,0 z"
       id="rect12340-7-5-57-9-74-4" />
    <text
       inkscape:export-filename="/home/xavier/Desktop/maj-estil.png"
       inkscape:export-ydpi="24.178509"
       inkscape:export-xdpi="24.178509"
       id="text8329-4-6-1-5-6-3-0-4-8-1-3-5-7-2-5-1-6-7-6"
       y="637.52234"
       x="476.49756"
       style="font-size:34.5824585px;font-style:normal;font-variant:normal;font-weight:normal;font-stretch:normal;fill:#6c77ab;fill-opacity:1;stroke:none;font-family:MgOpen Cosmetica;-inkscape-font-specification:MgOpen Cosmetica"
       xml:space="preserve"><tspan
         style="font-size:34.5824585px;font-style:normal;font-variant:normal;font-weight:normal;font-stretch:normal;fill:#6c77ab;fill-opacity:1;font-family:MgOpen Cosmetica;-inkscape-font-specification:MgOpen Cosmetica"
         y="637.52234"
         x="476.49756"
         sodipodi:role="line"
         id="tspan47690-74-9">CHRON</tspan></text>
    <text
       inkscape:export-ydpi="24.178509"
       inkscape:export-xdpi="24.178509"
       id="text8329-4-1-53-0-4-9-8-2-8-5-3-7-0-85-3-1-91-7-1-4"
       style="font-size:40px;font-style:normal;font-weight:normal;fill:#6c77ab;fill-opacity:1;stroke:none;font-family:Bitstream Vera Sans"
       xml:space="preserve"
       transform="matrix(0.33018662,0.01609631,-0.016191,0.33212923,-611.33274,-740.95968)"
       inkscape:export-filename="/home/xavier/Desktop/maj-estil.png"><textPath
         id="textPath10510-2-4-2-0-3-2-9-7-4-0-0-5-2-4-07-9"
         xlink:href="#path10505-0-4-3-4-4-9-1-6-3-8-0-9-1-4-3-4"
         style="font-size:105.3084259px;font-style:normal;font-variant:normal;font-weight:normal;font-stretch:normal;fill:#6c77ab;fill-opacity:1;font-family:MgOpen Cosmetica;-inkscape-font-specification:MgOpen Cosmetica">JUMP</textPath></text>
    <path
       id="path6162-4-7-42-2-0-2-6-0-6-1-1-4-2-6-6-3-2-5-8-9-9-0-9"
       d="m 619.91089,606.98301 c -9.94183,0.37824 -17.91471,8.57814 -17.91471,18.61094 0,6.91743 3.78498,12.95868 9.39379,16.16897 l 18.44466,0 c 5.6088,-3.21029 9.4042,-9.25154 9.4042,-16.16897 0,-10.27358 -8.34671,-18.61094 -18.62133,-18.61094 -0.24084,0 -0.46806,-0.009 -0.70661,0 z m 0.32211,3.7097 c 0.12527,0 0.25595,0.0103 0.3845,0.0103 8.2273,0 14.89081,6.67169 14.89081,14.89084 0,8.21912 -6.66351,14.90119 -14.89081,14.90119 -8.22733,0 -14.90125,-6.6821 -14.90125,-14.90119 0,-7.96227 6.27117,-14.49181 14.14267,-14.89084 0.12695,-0.007 0.24882,-0.012 0.37408,-0.0103 z"
       style="fill:#6c77ab;fill-opacity:1;stroke:none"
       inkscape:export-filename="/home/xavier/Desktop/maj-estil.png"
       inkscape:export-xdpi="24.178509"
       inkscape:export-ydpi="24.178509" />
    <rect
       transform="matrix(0.68703898,0.72662056,-0.72662056,0.68703898,0,0)"
       ry="1.0673394"
       y="-34.706627"
       x="880.89667"
       height="14.814166"
       width="2.1346788"
       id="rect11376-2-3-3-0-6-72-0"
       style="fill:#6c77ab;fill-opacity:1;stroke:none"
       inkscape:export-filename="/home/xavier/Desktop/maj-estil.png"
       inkscape:export-xdpi="24.178509"
       inkscape:export-ydpi="24.178509" />
    <path
       id="rect10577-6-3-5-3-0-9-4-3-2-9-4-1-09-2-2"
       d="m 478.03263,637.38002 0,20.53334 17.06258,0 c -0.94785,-0.34952 -1.77833,-0.91288 -2.48351,-1.69378 -1.27673,-1.42114 -1.91205,-3.2868 -1.91202,-5.59055 -3e-5,-2.29631 0.63529,-4.14863 1.91202,-5.56977 1.27665,-1.42866 2.9544,-2.15103 5.01901,-2.15103 2.10111,0 3.7777,0.72237 5.03983,2.15103 1.26937,1.42114 1.9016,3.31296 1.9016,5.68409 0,1.06211 -0.16011,2.05483 -0.48838,2.9823 -0.32102,0.92003 -0.78076,1.72268 -1.37166,2.4108 -0.58364,0.68068 -1.30672,1.22465 -2.18219,1.62105 -0.12931,0.0575 -0.26172,0.10691 -0.39487,0.15586 l 9.16519,0 c -0.15386,-0.0584 -0.31171,-0.11396 -0.4676,-0.18701 -0.51079,-0.23936 -0.94762,-0.54794 -1.31972,-0.91444 -0.37206,-0.37403 -0.68719,-0.86516 -0.93522,-1.48599 -0.24078,-0.62082 -0.36681,-1.34027 -0.37409,-2.14062 l 1.74575,0 0,0.11429 c -3e-5,0.4114 0.063,0.80777 0.18704,1.17424 0.12403,0.36654 0.3285,0.71882 0.61311,1.0703 0.28447,0.34409 0.70289,0.62191 1.25734,0.8313 0.56176,0.20943 1.2322,0.31178 2.00552,0.31178 0.59096,0 1.10633,-0.057 1.55873,-0.17667 0.4523,-0.11964 0.80458,-0.26728 1.05989,-0.44681 0.26269,-0.17953 0.47338,-0.39747 0.63389,-0.6443 0.16047,-0.25428 0.27104,-0.48971 0.32211,-0.70661 0.051,-0.21688 0.0728,-0.44648 0.0728,-0.6858 0,-0.58345 -0.21388,-1.06584 -0.64426,-1.45479 -0.42317,-0.38899 -1.08021,-0.70628 -1.98474,-0.94563 l -3.56425,-0.96638 c -1.88219,-0.50115 -2.81608,-1.63855 -2.81608,-3.41878 0,-1.33884 0.44937,-2.38851 1.36129,-3.15897 0.91922,-0.77787 2.16509,-1.17424 3.74089,-1.17424 1.64878,0 2.93592,0.40511 3.85521,1.2054 0.91916,0.80035 1.38819,1.92614 1.40282,3.37721 l -1.74575,0 c -0.0146,-0.96486 -0.32242,-1.70765 -0.93522,-2.22376 -0.61281,-0.51611 -1.49407,-0.76892 -2.63941,-0.76896 -0.9703,4e-5 -1.74711,0.22958 -2.33807,0.68583 -0.58365,0.44878 -0.88325,1.03934 -0.88325,1.78732 0,0.56845 0.17969,1.01885 0.52997,1.34047 0.35018,0.32168 0.96382,0.6024 1.83926,0.84171 l 3.60582,0.99757 c 0.97755,0.26932 1.72965,0.72843 2.25491,1.37166 0.53257,0.63582 0.80012,1.40475 0.80012,2.31726 0,0.39647 -0.0434,0.78236 -0.14545,1.16383 -0.0949,0.38151 -0.27772,0.78363 -0.54035,1.19503 -0.2627,0.41136 -0.59948,0.77694 -1.00798,1.09107 -0.32025,0.24474 -0.72939,0.45024 -1.22618,0.62349 l 8.79109,0 c -0.61001,-0.22552 -1.12762,-0.51365 -1.54833,-0.88325 -0.45961,-0.4114 -0.8594,-0.87052 -1.19499,-1.37166 -0.33561,-0.50863 -0.59704,-1.06132 -0.77933,-1.65225 -0.18239,-0.59089 -0.30726,-1.15522 -0.39491,-1.69377 -0.0802,-0.54601 -0.12469,-1.0825 -0.12469,-1.62105 0,-0.46374 0.0249,-0.92871 0.0831,-1.39245 0.0584,-0.47122 0.16273,-0.96987 0.30136,-1.48598 0.14588,-0.52352 0.32149,-1.00891 0.54035,-1.46516 0.21884,-0.46374 0.50923,-0.91415 0.85209,-1.34047 0.35019,-0.42637 0.73654,-0.7815 1.17421,-1.08071 0.44502,-0.30665 0.97706,-0.5583 1.5899,-0.7378 0.62009,-0.18701 1.29681,-0.28058 2.0263,-0.28058 3.12978,0 4.97685,1.61277 5.53861,4.82159 l -1.88085,0 c -0.20421,-1.06208 -0.61647,-1.85312 -1.23656,-2.36923 -0.62012,-0.52353 -1.50131,-0.78974 -2.63941,-0.78974 -1.38612,0 -2.48425,0.54982 -3.29404,1.64186 -0.8099,1.0846 -1.21584,2.5626 -1.21581,4.44751 -3e-5,1.84747 0.41838,3.32138 1.25737,4.40594 0.84628,1.08452 1.97533,1.62105 3.39796,1.62105 1.18183,0 2.09514,-0.33771 2.72254,-1.01839 0.63472,-0.68812 1.06238,-1.73777 1.28853,-3.15897 l 1.89123,0 c -0.32564,2.84593 -1.47092,4.63997 -3.42915,5.40351 l 9.46655,0 c -0.94793,-0.34952 -1.77834,-0.91288 -2.48355,-1.69378 -1.2767,-1.42114 -1.91202,-3.2868 -1.91202,-5.59055 0,-2.29631 0.63532,-4.14863 1.91202,-5.56977 1.27669,-1.42866 2.94403,-2.15103 5.00863,-2.15103 2.10105,0 3.78811,0.72237 5.05021,2.15103 1.2694,1.42114 1.90163,3.31296 1.90163,5.68409 0,1.06211 -0.16011,2.05483 -0.48841,2.9823 -0.32098,0.92003 -0.78073,1.72268 -1.37166,2.4108 -0.58361,0.68068 -1.30675,1.22465 -2.18219,1.62105 -0.12935,0.0575 -0.26169,0.10691 -0.39487,0.15586 l 9.16519,0 c -0.1539,-0.0584 -0.31161,-0.11396 -0.46763,-0.18701 -0.51069,-0.23936 -0.94763,-0.54794 -1.31969,-0.91444 -0.37209,-0.37403 -0.68716,-0.86516 -0.93522,-1.48599 -0.24075,-0.62082 -0.36678,-1.34027 -0.37409,-2.14062 l 1.74575,0 0,0.11429 c 0,0.4114 0.063,0.80777 0.18704,1.17424 0.124,0.36654 0.3286,0.71882 0.61308,1.0703 0.28457,0.34409 0.70288,0.62191 1.25737,0.8313 0.56173,0.20943 1.22179,0.31178 1.99514,0.31178 0.59089,0 1.11678,-0.057 1.56908,-0.17667 0.4524,-0.11964 0.80454,-0.26728 1.05995,-0.44681 0.26263,-0.17953 0.47338,-0.39747 0.63386,-0.6443 0.16051,-0.25428 0.27097,-0.48971 0.32215,-0.70661 0.0509,-0.21688 0.0727,-0.44648 0.0727,-0.6858 -3e-5,-0.58345 -0.21385,-1.06584 -0.64426,-1.45479 -0.42314,-0.38899 -1.09052,-0.70628 -1.99515,-0.94563 l -3.55384,-0.96638 c -1.88222,-0.50115 -2.82649,-1.63855 -2.82645,-3.41878 -4e-5,-1.33884 0.45971,-2.38851 1.37166,-3.15897 0.91919,-0.77787 2.16506,-1.17424 3.74089,-1.17424 1.64875,0 2.93595,0.40511 3.85518,1.2054 0.91926,0.80035 1.38825,1.92614 1.40285,3.37721 l -1.74575,0 c -0.0146,-0.96486 -0.32245,-1.70765 -0.93522,-2.22376 -0.61285,-0.51611 -1.49403,-0.76892 -2.63941,-0.76896 -0.97027,4e-5 -1.74715,0.22958 -2.33804,0.68583 -0.58375,0.44878 -0.88332,1.03934 -0.88328,1.78732 -4e-5,0.56845 0.17976,1.01885 0.52994,1.34047 0.35028,0.32168 0.96382,0.6024 1.83929,0.84171 l 3.60578,0.99757 c 0.97766,0.26932 1.72966,0.72843 2.25495,1.37166 0.53253,0.63582 0.80015,1.40475 0.80015,2.31726 0,0.39647 -0.0537,0.78236 -0.15589,1.16383 -0.0948,0.38151 -0.26728,0.78363 -0.52998,1.19503 -0.26262,0.41136 -0.5994,0.77694 -1.00794,1.09107 -0.32059,0.24504 -0.739,0.45011 -1.23659,0.62349 l 20.96981,0 c -0.15393,-0.0584 -0.31175,-0.11396 -0.46763,-0.18701 -0.51069,-0.23936 -0.94773,-0.54794 -1.31969,-0.91444 -0.37206,-0.37403 -0.68723,-0.86516 -0.93526,-1.48599 -0.24068,-0.62082 -0.36677,-1.34027 -0.37408,-2.14062 l 1.74574,0 0,0.11429 c 0,0.4114 0.063,0.80777 0.18708,1.17424 0.12403,0.36654 0.32854,0.71882 0.61308,1.0703 0.2845,0.34409 0.70285,0.62191 1.25737,0.8313 0.56173,0.20943 1.22172,0.31178 1.99514,0.31178 0.59089,0 1.11675,-0.057 1.56908,-0.17667 0.4523,-0.11964 0.80457,-0.26728 1.05992,-0.44681 0.26263,-0.17953 0.47335,-0.39747 0.63385,-0.6443 0.16055,-0.25428 0.27108,-0.48971 0.32215,-0.70661 0.0511,-0.21688 0.0728,-0.44648 0.0728,-0.6858 0,-0.58345 -0.21385,-1.06584 -0.6443,-1.45479 -0.42313,-0.38899 -1.09051,-0.70628 -1.99514,-0.94563 l -3.55381,-0.96638 c -1.88225,-0.50115 -2.82645,-1.63855 -2.82645,-3.41878 0,-1.33884 0.45964,-2.38851 1.37166,-3.15897 0.91922,-0.77787 2.16502,-1.17424 3.74089,-1.17424 1.64872,0 2.93591,0.40511 3.85518,1.2054 0.91919,0.80035 1.38822,1.92614 1.40281,3.37721 l -1.74575,0 c -0.0146,-0.96486 -0.32238,-1.70765 -0.93518,-2.22376 -0.61291,-0.51611 -1.49397,-0.76892 -2.63944,-0.76896 -0.97031,4e-5 -1.75752,0.22958 -2.34842,0.68583 -0.58374,0.44878 -0.87287,1.03934 -0.87287,1.78732 0,0.56845 0.17973,1.01885 0.52994,1.34047 0.35015,0.32168 0.96375,0.6024 1.83929,0.84171 l 3.60578,0.99757 c 0.97756,0.26932 1.72963,0.72843 2.25495,1.37166 0.5325,0.63582 0.80011,1.40475 0.80011,2.31726 0,0.39647 -0.0538,0.78236 -0.15588,1.16383 -0.0948,0.38151 -0.26735,0.78363 -0.52995,1.19503 -0.26266,0.41136 -0.59944,0.77694 -1.00797,1.09107 -0.32052,0.24504 -0.739,0.45011 -1.23656,0.62349 l 55.60417,0 c -0.44661,-0.16198 -0.88651,-0.36668 -1.30928,-0.62349 -1.14548,-0.70308 -2.0514,-1.65503 -2.72257,-2.83682 -0.67106,-1.1893 -1.00791,-2.46849 -1.00794,-3.84481 3e-5,-1.04715 0.19838,-2.04275 0.59229,-2.99271 0.40129,-0.94992 0.93951,-1.77458 1.61068,-2.46277 0.67119,-0.6956 1.46656,-1.23788 2.40042,-1.6418 0.93369,-0.4114 1.91936,-0.62348 2.94074,-0.62348 1.02134,0 1.99344,0.21208 2.91999,0.62348 0.92647,0.40392 1.71572,0.94327 2.3796,1.63143 0.67117,0.68812 1.2063,1.51281 1.60027,2.46273 0.40122,0.94996 0.6027,1.94264 0.6027,2.98234 0,1.06212 -0.20148,2.06647 -0.6027,3.02391 -0.39397,0.9574 -0.93219,1.78498 -1.61064,2.47311 -0.67855,0.68815 -1.48013,1.23792 -2.42121,1.64187 -0.16616,0.0713 -0.33987,0.12832 -0.50919,0.18701 l 80.61623,0 0,-20.53334 -246.52471,0 z m 0.0103,5.76723 5.81916,0 c 0.6566,0 1.24543,0.0878 1.75612,0.25976 0.51066,0.16457 0.9198,0.3692 1.22622,0.62348 0.30632,0.25432 0.55119,0.56001 0.74818,0.90407 0.2042,0.34406 0.3427,0.67592 0.41565,0.99757 0.0729,0.31414 0.11426,0.63728 0.11429,0.96638 -3e-5,1.50347 -0.66428,2.56186 -1.98473,3.19017 0.91191,0.3665 1.57922,0.8344 1.99514,1.40285 0.41582,0.56848 0.62348,1.30249 0.62348,2.19256 0,1.26409 -0.39052,2.28464 -1.16383,3.05506 -0.77342,0.76291 -1.78878,1.14305 -3.06547,1.14305 l -6.48421,0 0,-14.73495 z m 83.26598,0 2.25494,0 4.22927,7.18044 4.09423,-7.18044 2.18215,0 -5.40351,8.95735 0,5.7776 -1.82888,0 0,-5.7776 -5.5282,-8.95735 z m 26.39406,0 11.27465,0 0,1.67299 -4.71768,0 0,13.06196 -1.82888,0 0,-13.06196 -4.72809,0 0,-1.67299 z m 13.40489,0 9.93415,0 0,1.67299 -8.11567,0 0,4.69689 7.82471,0 0,1.65225 -7.82471,0 0,5.0502 8.48976,0 0,1.66262 -10.30824,0 0,-14.73495 z m 12.81254,0 2.54587,0 4.26049,12.83335 4.17729,-12.83335 2.5355,0 0,14.73495 -1.72494,0 0,-12.33453 -4.05266,12.33453 -1.92239,0 -4.08379,-12.33453 0,12.33453 -1.73537,0 0,-14.73495 z m 27.66181,0.99757 c -1.11622,0 -2.15136,0.28946 -3.107,0.87287 -0.95571,0.57593 -1.71084,1.36401 -2.26535,2.35886 -0.55442,0.98729 -0.83131,2.06487 -0.83131,3.23169 0,1.1519 0.27689,2.22652 0.83131,3.22133 0.55451,0.99481 1.29305,1.78578 2.23416,2.36923 0.94111,0.58341 1.96072,0.87287 3.05506,0.87287 1.14534,0 2.20323,-0.28657 3.15897,-0.8625 0.96296,-0.57589 1.71819,-1.36112 2.26532,-2.34841 0.55445,-0.99481 0.83131,-2.08403 0.83131,-3.2733 0,-0.86765 -0.17049,-1.70109 -0.49879,-2.49393 -0.32098,-0.79286 -0.75489,-1.47118 -1.30931,-2.04708 -0.55448,-0.58344 -1.2188,-1.04545 -1.98473,-1.38207 -0.75879,-0.34402 -1.548,-0.51956 -2.37964,-0.51956 z m -143.95158,0.42603 c -1.52465,0 -2.75822,0.55857 -3.69932,1.67302 -0.93376,1.10704 -1.40286,2.56755 -1.40282,4.38516 -4e-5,1.81757 0.46909,3.29145 1.40282,4.40594 0.9411,1.107 2.17766,1.65224 3.70973,1.65224 1.5174,0 2.74791,-0.54235 3.68892,-1.64187 0.94849,-1.10697 1.41322,-2.55006 1.41322,-4.32281 0,-1.86243 -0.45871,-3.3538 -1.39241,-4.46825 -0.93386,-1.12197 -2.17347,-1.68343 -3.72014,-1.68343 z m 42.65657,0 c -1.52476,0 -2.75825,0.55857 -3.69933,1.67302 -0.93383,1.10704 -1.39244,2.56755 -1.39244,4.38516 0,1.81757 0.45861,3.29145 1.39244,4.40594 0.94108,1.107 2.1776,1.65224 3.70973,1.65224 1.51744,0 2.74778,-0.54235 3.68892,-1.64187 0.94836,-1.10697 1.42363,-2.55006 1.42363,-4.32281 0,-1.86243 -0.46902,-3.3538 -1.40285,-4.46825 -0.93379,-1.12197 -2.1735,-1.68343 -3.7201,-1.68343 z m -60.40502,0.24939 0,4.68652 3.54347,0 c 0.9192,0 1.63416,-0.18133 2.13025,-0.54035 0.49603,-0.36651 0.73774,-0.96 0.73777,-1.79769 -3e-5,-0.46374 -0.0754,-0.86007 -0.22861,-1.17424 -0.14591,-0.32162 -0.35976,-0.56283 -0.64426,-0.7274 -0.27726,-0.16456 -0.57264,-0.27559 -0.89366,-0.34289 -0.3137,-0.0673 -0.68567,-0.10395 -1.10149,-0.10395 l -3.54347,0 z m 158.40595,1.23659 4.04226,0 c 1.8603,0 2.79529,0.85089 2.79529,2.55627 0,0.45629 -0.0785,0.82769 -0.23902,1.11186 -0.15319,0.28428 -0.43324,0.57663 -0.84168,0.88328 0.3137,0.20946 0.53683,0.46976 0.67542,0.76897 0.14591,0.29169 0.2182,0.58411 0.2182,0.88324 0.007,0.29176 0.004,0.57826 -0.0103,0.8625 -0.0146,0.28421 0.004,0.55625 0.0623,0.81053 0.0656,0.25435 0.19792,0.4531 0.39488,0.6027 l 0,0.51957 -1.5483,0 c -0.21893,-0.5086 -0.32019,-1.02767 -0.29096,-1.55871 l 0.0103,-0.81052 c 0,-0.48615 -0.0972,-0.84302 -0.30133,-1.05992 -0.19699,-0.21694 -0.51838,-0.32215 -0.95601,-0.32215 l -2.63944,0 0,3.7513 -1.37166,0 0,-8.99892 z m 1.37166,1.27815 0,2.71213 2.5459,0 c 0.51066,0 0.87846,-0.10521 1.11186,-0.32215 0.24078,-0.22435 0.36372,-0.56206 0.36372,-1.01832 0,-0.4787 -0.11988,-0.8326 -0.35331,-1.04954 -0.23347,-0.21687 -0.60433,-0.32212 -1.12227,-0.32212 l -2.5459,0 z m -159.77761,3.81362 0,5.07098 4.46832,0 c 0.48878,3e-5 0.91022,-0.0819 1.26771,-0.23898 0.35753,-0.16457 0.62505,-0.3721 0.80016,-0.63389 0.18235,-0.26925 0.31463,-0.54129 0.39487,-0.81053 0.0803,-0.26928 0.11432,-0.5471 0.11432,-0.83131 0,-0.7779 -0.22013,-1.39633 -0.66505,-1.86007 -0.44501,-0.4637 -1.0804,-0.69617 -1.91201,-0.6962 l -4.46832,0 z"
       style="fill:#6c77ab;fill-opacity:1;stroke:#ffffff;stroke-width:0;stroke-miterlimit:4;stroke-opacity:1;stroke-dasharray:none"
       inkscape:export-filename="/home/xavier/Desktop/maj-estil.png"
       inkscape:export-xdpi="24.178509"
       inkscape:export-ydpi="24.178509" />
    <rect
       style="fill:#6c77ab;fill-opacity:1;stroke:none"
       id="rect4304-8"
       width="458.40402"
       height="20.5"
       x="-1172.7416"
       y="-657.91132"
       transform="scale(-1,-1)" />
    <rect
       style="fill:#6c77ab;fill-opacity:1;stroke:#6c77ab;stroke-width:1.5829128;stroke-linejoin:round;stroke-miterlimit:4;stroke-opacity:1;stroke-dasharray:none;stroke-dashoffset:0"
       id="rect3659-6-5-6-4-1"
       width="33.957397"
       height="33.957397"
       x="845.03906"
       y="-404.65533"
       transform="matrix(0.84853647,0.52913691,-0.84853647,0.52913691,0,0)" />
    <path
       sodipodi:type="arc"
       style="fill:#6c77ab;fill-opacity:1;stroke:#6c77ab;stroke-width:7.5;stroke-linejoin:round;stroke-miterlimit:4;stroke-opacity:1;stroke-dasharray:none;stroke-dashoffset:0"
       id="path2820-1"
       sodipodi:cx="251.42857"
       sodipodi:cy="689.50507"
       sodipodi:rx="108.57143"
       sodipodi:ry="48.57143"
       d="m 360,689.50507 a 108.57143,48.57143 0 1 1 -217.14285,0 108.57143,48.57143 0 1 1 217.14285,0 z"
       transform="matrix(0.26372498,0,0,0.26372498,638.87747,69.151655)" />
    <rect
       style="fill:#6c77ab;fill-opacity:1;stroke:#6c77ab;stroke-width:1.41623759;stroke-linejoin:round;stroke-miterlimit:4;stroke-opacity:1;stroke-dasharray:none;stroke-dashoffset:0"
       id="rect3659-0-7"
       width="58.216152"
       height="20.514744"
       x="841.30322"
       y="240.73399" />
    <flowRoot
       xml:space="preserve"
       id="flowRoot3815"
       style="font-size:33px;font-style:normal;font-weight:normal;fill:#000000;fill-opacity:1;stroke:none;font-family:Bitstream Vera Sans"
       transform="translate(-175.07259,175.41073)"><flowRegion
         id="flowRegion3817"><rect
           id="rect3819"
           width="475.71481"
           height="43.607189"
           x="824.57233"
           y="18.279366"
           style="font-size:33px" /></flowRegion><flowPara
         id="flowPara3825"
         style="font-size:33px">Person</flowPara></flowRoot>    <flowRoot
       xml:space="preserve"
       id="flowRoot3815-5"
       style="font-size:33px;font-style:normal;font-weight:normal;fill:#000000;fill-opacity:1;stroke:none;font-family:Bitstream Vera Sans"
       transform="translate(155.37906,175.9183)"><flowRegion
         id="flowRegion3817-3"><rect
           id="rect3819-7"
           width="475.71481"
           height="43.607189"
           x="824.57233"
           y="18.279366"
           style="font-size:33px" /></flowRegion><flowPara
         id="flowPara3825-3"
         style="font-size:33px">Hardware</flowPara></flowRoot>    <flowRoot
       xml:space="preserve"
       id="flowRoot3815-8"
       style="font-size:33px;font-style:normal;font-weight:normal;fill:#000000;fill-opacity:1;stroke:none;font-family:Bitstream Vera Sans"
       transform="translate(-27.128268,175.9183)"><flowRegion
         id="flowRegion3817-1"><rect
           id="rect3819-76"
           width="475.71481"
           height="43.607189"
           x="824.57233"
           y="18.279366"
           style="font-size:33px" /></flowRegion><flowPara
         id="flowPara3825-8"
         style="font-size:33px">Software</flowPara></flowRoot>    <text
       xml:space="preserve"
       style="font-size:30px;font-style:normal;font-weight:normal;fill:#000000;fill-opacity:1;stroke:none;font-family:Bitstream Vera Sans"
       x="610.59656"
       y="103.57612"
       id="text4079"><tspan
         sodipodi:role="line"
         id="tspan4081"
         x="610.59656"
         y="103.57612">exportar pag: width 450</tspan><tspan
         sodipodi:role="line"
         x="610.59656"
         y="141.07611"
         id="tspan4083">small fer width 150</tspan></text>
  </g>
</svg>
