<?xml version="1.0" encoding="UTF-8" standalone="no"?>
<!DOCTYPE svg PUBLIC "-//W3C//DTD SVG 20010904//EN"
"http://www.w3.org/TR/2001/REC-SVG-20010904/DTD/svg10.dtd">
<!-- Created with Sodipodi ("http://www.sodipodi.com/") -->
<svg
   width="48pt"
   height="48pt"
   viewBox="0 0 48 48"
   style="overflow:visible;enable-background:new 0 0 48 48"
   xml:space="preserve"
   xmlns="http://www.w3.org/2000/svg"
   xmlns:xap="http://ns.adobe.com/xap/1.0/"
   xmlns:xapGImg="http://ns.adobe.com/xap/1.0/g/img/"
   xmlns:rdf="http://www.w3.org/1999/02/22-rdf-syntax-ns#"
   xmlns:xml="http://www.w3.org/XML/1998/namespace"
   xmlns:xapMM="http://ns.adobe.com/xap/1.0/mm/"
   xmlns:pdf="http://ns.adobe.com/pdf/1.3/"
   xmlns:dc="http://purl.org/dc/elements/1.1/"
   xmlns:a="http://ns.adobe.com/AdobeSVGViewerExtensions/3.0/"
   xmlns:x="adobe:ns:meta/"
   xmlns:sodipodi="http://sodipodi.sourceforge.net/DTD/sodipodi-0.dtd"
   xmlns:xlink="http://www.w3.org/1999/xlink"
   id="svg548"
   sodipodi:version="0.32"
   sodipodi:docname="/home/david/Desktop/temp/devices/gnome-dev-cdrom.svg"
   sodipodi:docbase="/home/david/Desktop/temp/devices/">
  <defs
     id="defs579" />
  <sodipodi:namedview
     id="base" />
  <metadata
     id="metadata549">
    <xpacket>begin='﻿' id='W5M0MpCehiHzreSzNTczkc9d'    </xpacket>
    <x:xmpmeta
       x:xmptk="XMP toolkit 3.0-29, framework 1.6">
      <rdf:RDF>
        <rdf:Description
           rdf:about="uuid:a878ce0e-5a33-4cea-8726-4213c547832c">
          <pdf:Producer>
Adobe PDF library 5.00</pdf:Producer>
        </rdf:Description>
        <rdf:Description
           rdf:about="uuid:a878ce0e-5a33-4cea-8726-4213c547832c" />
        <rdf:Description
           rdf:about="uuid:a878ce0e-5a33-4cea-8726-4213c547832c" />
        <rdf:Description
           rdf:about="uuid:a878ce0e-5a33-4cea-8726-4213c547832c">
          <xap:CreateDate>
2004-01-26T11:58:28+02:00</xap:CreateDate>
          <xap:ModifyDate>
2004-03-29T09:16:58Z</xap:ModifyDate>
          <xap:CreatorTool>
Adobe Illustrator 10.0</xap:CreatorTool>
          <xap:MetadataDate>
2004-02-17T10:35:10+01:00</xap:MetadataDate>
          <xap:Thumbnails>
            <rdf:Alt>
              <rdf:li
                 rdf:parseType="Resource">
                <xapGImg:format>
JPEG</xapGImg:format>
                <xapGImg:width>
256</xapGImg:width>
                <xapGImg:height>
256</xapGImg:height>
                <xapGImg:image>
/9j/4AAQSkZJRgABAgEASABIAAD/7QAsUGhvdG9zaG9wIDMuMAA4QklNA+0AAAAAABAASAAAAAEA
AQBIAAAAAQAB/+4ADkFkb2JlAGTAAAAAAf/bAIQABgQEBAUEBgUFBgkGBQYJCwgGBggLDAoKCwoK
DBAMDAwMDAwQDA4PEA8ODBMTFBQTExwbGxscHx8fHx8fHx8fHwEHBwcNDA0YEBAYGhURFRofHx8f
Hx8fHx8fHx8fHx8fHx8fHx8fHx8fHx8fHx8fHx8fHx8fHx8fHx8fHx8fHx8f/8AAEQgBAAEAAwER
AAIRAQMRAf/EAaIAAAAHAQEBAQEAAAAAAAAAAAQFAwIGAQAHCAkKCwEAAgIDAQEBAQEAAAAAAAAA
AQACAwQFBgcICQoLEAACAQMDAgQCBgcDBAIGAnMBAgMRBAAFIRIxQVEGE2EicYEUMpGhBxWxQiPB
UtHhMxZi8CRygvElQzRTkqKyY3PCNUQnk6OzNhdUZHTD0uIIJoMJChgZhJRFRqS0VtNVKBry4/PE
1OT0ZXWFlaW1xdXl9WZ2hpamtsbW5vY3R1dnd4eXp7fH1+f3OEhYaHiImKi4yNjo+Ck5SVlpeYmZ
qbnJ2en5KjpKWmp6ipqqusra6voRAAICAQIDBQUEBQYECAMDbQEAAhEDBCESMUEFURNhIgZxgZEy
obHwFMHR4SNCFVJicvEzJDRDghaSUyWiY7LCB3PSNeJEgxdUkwgJChgZJjZFGidkdFU38qOzwygp
0+PzhJSktMTU5PRldYWVpbXF1eX1RlZmdoaWprbG1ub2R1dnd4eXp7fH1+f3OEhYaHiImKi4yNjo
+DlJWWl5iZmpucnZ6fkqOkpaanqKmqq6ytrq+v/aAAwDAQACEQMRAD8A9U4q7FXYq7FXYq7FXYq7
FXYq7FXYq7FXYq7FXYq7FXYq7FXYq7FXYq7FXYq7FXYq7FXYq7FXYq7FXYq7FXYq7FXYq7FXYq7F
XYq7FXYq7FXYq7FXYq7FXYq7FXYq7FXYq7FXYq7FXYq7FXYq7FXYq7FXYq7FXYq7FXYq7FXYq7FX
Yq7FXYq7FXYq7FXYqluteZfL+iQ+rq+o29ihFV9eRUZv9VSeTfQMtx4ZzNRBKCaee61/zkb5CsSy
WC3WqSDYNFH6Uf8AwUpRvuU5scfY+aXOosDkDDNS/wCcodZcsNM0O3gH7LXMrz/eEEH68zYdhx/i
kfh+CxOVj11/zkT+ZE5JjltLUHtFbggf8jTJmRHsfAO8/FHiFAN+e/5qFiRrQUE1Ci1tKD23iJyz
+StP/N+0/rRxldF+fX5poSW1dZQezWtqB/wsS4nsrT/zftP614ymtl/zkj+YEDfv4rG7XuJIXU9u
hjkT9WUy7GwnlxBPiFk2lf8AOUS/CuraCR/NLaz1+6ORf+N8xcnYf82XzDIZWd6F+en5casVQ6gd
OmbpFfIYfvkBeIf8HmBl7Lzw6X7vxbITDOrW7tbuBLi0mjuIJBVJomDow9mUkHMCUSDR2ZquBXYq
7FXYq7FXYq7FXYq7FXYq7FXYq7FXYq7FXYq7FXYq7FXYqwrzt+bvk7ynzgurj63qa9NPtaPID/xY
32Y/9ka+xzO03Z+XNuBUe8sZTAeG+bP+cgvO2stJDprLolk1Qq255Tlf8qdhWvugXN7p+ycUN5eo
/Z8mo5CWBWthr+v3zm3hudTvZDylcB5nJP7Ttv8AeTmxMoQHQBgzbRfyF876gFe6EOnxnciRvUko
f8mMMv3sMwsnaWKPLdaZppv/ADjZp6gHUdTuJm7iFY4R/wAN6xzDn2v3BlwlkFr+QPkaED1bZ7in
eSeXf/kWY8ol2rkK8BRy/kn5BVQo0yOg23eYn7zJlf8AKeTvXgWS/kf5AkFDpqCnTjJOv/EZBhHa
eTv+5eBJtS/5x88pyClsZrcn+SYn7vUWTL8fasuq8BYvqf8AzjreKC2nagTStEmRWr/slKn/AIXM
uHakTzRwlhOt/lR530kFpbA3MS9ZLar/AHIQsh/4HMzHq8c+RQk2k+YPM3lq9ZtNvLnTblT+9jVm
SpHaSM/C3yYZPJhhkHqAISCQ9c8n/wDOS17EY7bzVZC4j2B1C0ASQe7wmiN78SvyzT6jsUHfGa8j
+tmMne9u8u+afL/mOy+uaLfR3kIpz4GjoT2kRqOh9mGaLNgnjNSFNoNprlSXYq7FXYq7FXYq7FXY
q7FXYq7FXYq7FXYq7FXYql+veYNH0DTZNS1e6S0tIurudy3ZUUbsx7AZZiwyyS4Yiygmnzn+Yf5/
a7rjS2Hl7npOlGqmcGl1KPdlP7seymvv2zpNJ2TCG8/VL7GmWS+TA/K/krzN5puzFpNo84B/fXT/
AAxIT/PIe/sKn2zY5tRDELkWFPbvKP8AzjxoVgqXHmCY6ldDc26VS3U/IfE9Pc09s0mftaR2gKDM
Qepafo+l6dbpbWNrFbQJ9iKNAqj5AADNXPLKRslnwhGZWlrFXYVaxV2KFKT7WTCVmFW0QOwUioPX
5YCaVCeYPJvljzDB6Or6dDdAAqkjLxkQH+SRaOv0HHFqcmM3EqYgvGvOX/ON9xEsl15UujOBVv0d
dEK/c0jm2U+AD0/1s3Wn7YB2yCvMMDj7nk8U3mnyhrfJDc6Pq1saEbxvSvcHZ0anupzakY80ekol
huHu/wCXP/OQen6mYtM81cLC/NFj1FfhtpT0/eA/3Te/2f8AV6ZoNZ2RKPqx7ju6/tbY5O97MrBg
GU1B3BHQjNK2OxV2KuxV2KuxV2KuxV2KuxV2KuxV2KuxVi3n/wDMTQ/Jel/Wr5vWvJQRZ6ehAllY
d/8AJQftMf17Zl6TRzzyocupYylT5T83+dfMfnLV/repymRieNpZx19KIMdkjTfc+PU986zT6aGG
NR+bQZW9K/Lj8g5rtYtU82Bobc0eLS1JWRh/xcw3X/VG/jTpmu1nagj6cfPvTGNveNP06w060js7
GCO2tYhxjhiUKoHsBmhnOUjZNltARGRVrFXVxVrCrq4q1irWKFFz8RyYS1XCqvaruW+gZXMpCJyt
LWFUj81+TPLnmmx+p6zaLMFB9CcfDNET3jkG46dOh7g5fg1M8RuJQQC+a/zI/KHXPJ7veRE3+hM1
EvUX4o+XRZ1H2fDl9k+xNM6XR9oQzbcpd36mmUaTL8q/zq1LyvJFpWsM975fJCr+1LaivWP+ZPFP
u8DVr+zY5fVHaf3pjOn07p2o2OpWMF/YTpc2dygkgnjNVZT/AJ7jOWnAxJBFEN6IyKuxV2KuxV2K
uxV2KuxV2KuxV2KsU/MX8wdL8laI17c0mvpqpp9iDRpXHUnwRa1Zv4kZl6PSSzzocupYylT5N1fV
/MPm/wAwtd3bPfapfOEiiQE0qfgjjTso7DOux44YYUNohoJt9AflZ+UFj5cjj1TVVS61thUd47ev
7Mfi3i/0D30Wu15yemO0WUYvT+Waqmx3LGla5Y0ruWGla5Y0rXLGkO5Y0rXLDSu5Y0qgW3ydJa5Y
aQjYhxQDv3yiW5ZL+WCktcsaV3LGlWTRwzwvDMiywyKUkjcBlZWFCCDsQcIJBsIfO/5t/ku+j+tr
vlyMyaVu93ZD4nt+5ePxj8R1X5dOj0HaPH6Z/V97VKNMd/Kr809Q8makIbhnuPL9y3+mWg3KE/7t
hBOzDuP2h9BF2v0IzRsfWERlT6w07UbHUrCC/sJluLO5QSQTJ0ZWFQf7M5KcDEkHmHIRGRV2KuxV
2KuxV2KuxV2KuxVLPM3mPTPLmiXWsalJwtbVakD7TsdlRB3ZjsMtw4ZZJCMeZQTT4883+a9Z85eY
5NSvOTzTsIrS1SrCOOtI4ox9P0nfOy0+COGHCHHJt7t+U/5YQ+WrNNQ1GNX165X4yaEW6MP7tDuO
X8zD5DbrpddrPEND6R9qQHpoIAoNgM1ba7ljSu5Y0rXLDSu5Y0hrljSu5Y0rXLDSu5Y0q0tscNKo
8snSr4fikA7Dc5GXJQjOWU0ydyxpXcsNK7ljSu5Y0q16MpU7g4hXzn+cv5WDRpZPMOixU0qZ/wDT
LVBtbux2ZQP91se37J9iKdH2freMcEvq+9plFR/JP80pPLOpLouqSk6Dev8ACzdLeZtuY8Eb9r7/
AByPamh8SPHH6x9oTCVPqJWV1DKaqwqCOhBzlm9vFXYq7FXYq7FXYq7FXYq+WPz0/MVvMvmA6TYS
8tE0pyicT8M1wNnl26hfsp7VP7WdX2Xo/ChxH6pfc0TlbJfyM/LtYYE82apF+/lBGkwuKcUOzTkH
u3RPbfuKU9o6qz4cfj+pAD2ePYk5pyyiqcsjTN3LGkNcsNK1yxpXcsaVrlhpXcsaVrljSu5Y0ha7
fCcICqPLJ0lE2uylvHYZXNIVuWQpLuWNK7ljSu5Y0ruWNK1yxpVC7t4LqCW3uI1lgmUpLE4qrKwo
VIPYjJxJG4Yl8pfmX5LHlXzHJa27erps9ZLKStSFrvEx/mTp8qHOp0mfxIAnm0l7L+QH5jNqmnf4
b1KXlfWKj6pIx3eHoB816fdmg7V0fhz44/TL726EreyZqGx2KuxV2KuxV2KuxV55+d/nhvLHlB4b
SThquq8ra0IPxIlP30o/1VNAezEZsezNL4uSz9Md2E5UHzz+WXktvNnmmGylB/R1uPrGouKj9yhH
wAgjeRiFFOla9s6TWajwoWPqPJpAfVaRxxxrHGgjjRQqIoAVVUUCgDoAM5hkuU0xTFvlgpk1yw0r
XLGldyxpWuWGldyxpDXLGldyxpWuWGlWSN8OEBVPkSadzkqVGr8KhfDKSyXcsFJdyxpDXLGldyxp
XcsaVppFUVY0GEBUh1rVp/U9CFuCU+Jh9o17VzO0+AVZaZyYR5x8uRa/ok1mQBcr+8tJD+zKo238
G6HNlinwm2sPDND1fUPLuvQX8IMd1ZS/vImqpNDxdG8KiozMz4RlgYnq2A0+zfLGvWuu6LbajbuH
SZFav+sKg07f1zickDCRieYckFNcgrsVdirsVdirsVfIv50ebm8x+erxon5WGnE2VmAaqRESJHHb
45KmvhTOw7N0/h4h3ncuPM2Xsv5M+U10DyXbzypx1DWON7cttURsP9Hjr4CM8qHoWOanX5/Eynuj
t+v8eSQKDOTmGq04VC3lhpm1yxpXcsaVrlhpDXLGldyxpWuWNK7lhpWuWNKpyt0yQCt2+8ley74J
ckhF8sqpLuWNK7ljStcsNK7ljSqUtyqbDdvDJRhaCUJJOWqznYfcBloiglj9zL607yfzHb5dBmwh
GhTQTaicmxeNfm35fFlrKapClLfUB+9p0Eyfa/4JaH51zO087FdzIM5/5x083lBPoNw/wxH1IAT/
ALrkbf8A4GQ1/wBlmj7a09SGQdefvcjGej6AzSNjsVdirsVdirGvzI8x/wCHPJOraqj8LiOEx2p7
+vN+7jI/1Wbl9GZWjw+JljHoxkaD5R/L7y5/iTzlpekuK2803O7O/wDcRAyS7joSikD3Odbq83h4
zLr097REWX105qxNKDsB0AzlAGZWHJIWnCqwjCkFbhS7FLWKGsKuxVLdT17T9P8AhlfnN/vlN2+n
w+nMnDpZ5OXJWOXXnS/kJFvGkK9ifjb8aD8M2EOzoDmbRaAfzFrTdbph8go/UMyBpMQ6Kuj8y6yh
BNxzA7Mqn+FcB0eM9FTjTfOwQ8L2DY9ZYv8Amk/1zEzdnX9J+aQWU2d9aXkIltpRIncjqD4EdRmr
yYpQNSFMlfK1diq1mCipNBhAVDS3JOybDx75ZGDElRyxCXajdihhQ7/tn+GZGGHUsJy6JcFZjQCp
zItrVVtWP2jT275AzY2x/wDMLy9HqnlK9hReVxbr9Ztz1POIEkD/AFl5L9OWYMpEwoO7xTyNrR0b
zTYXhbjD6gin/wCMcvwN91a/RmXr8PiYZDrz+TfE0X2ZpF39b0+KUmr04v8A6y7fj1zi3IRmKuxV
2KuxV4h/zk/rZi0nR9ERt7maS7mUfywrwSvsTKfuze9iYrlKfds1ZCkn/ONmi1uda111IEUUdjbv
+yTK3qS/SojT/gsyO18n0w+LGL3A5p0rThQtOFVpwoWnCyBaxZNYoawqxnzH5mMDNZ2TfvRtLMP2
f8lffxzZaTR8Xqly7kMQZmZizEliaknck5twFcASQAKk9AMSVRsWi6vKKpZy0PQlCB+NMx5azFHn
IfNNFSn07ULdeU9tJGv8zIQPvpTJw1GOf0yB+KKQ+WqiLG/urGcT2zlHHUdiPAjuMry4ozFSV6Fo
mtW+qW3NfgnSgmi8D4j2OaDU6Y4pV0ZAo2WdU26t4ZRGNqShHkZzVj8hloFIWHbJIQlxcyMCkHfr
J0H0ZbCAG5a5TQi2qjdzyOWmbUSqhVUUAoMjaGjhQtIBFDuD1GFXzH5p0v8ARPmPUNPUcUgnYRD/
AIrY8o/+FIzdYpcUQW4HZ9S/lFrp1Py1aO7cnkgRm/4yJ+7k/EZxWqxcGSUe4uVE2GeZQl2KuxV2
Kvlr/nIvUzd/mK1rX4dPtIIKeBcGc/hKM6vseFYb7yf1NGQ7vUPyM01bL8tLKYAh9SuLi6kr4q/o
L/wsIzW9oz4s5/ogD9KRyZ2cw1WnChacKrThQtOFWjioLVcLIFKfMmqnT7A+maXE3wRe3i30ZlaP
B4k9+QSXn5JJqdyepzfoTLRNEuNUn4r8ECf3sxGw9h4nMPWayOGO+8ugSBbOtO0iw09AtvEA37Up
3c/Ns5jPqsmU+o/Do2AUjcx0uxVI9Y8q2N6rSW6i3ueoKiiMf8pR+sZs9L2nPGal6o/axMWDXNtP
bTvBOhSWM0ZTnS48kZxEo7gtarpuoTWF2lxETts6j9pT1GDNiGSNFWfwypNEksZ5I4DKfY75oJRI
NFXNIi96nwGIDEzAQ8jl+vTwywCmoyJUzkmC04VaOFC04VWnCrw386LAQea47lR8N5bI7H/LQlD/
AMKq5s9HK4U2Q5PQP+ceNVJ0wWxO0Fy0YHtMAf8AiRzn+2IVmvvA/U5WM7Pd81TN2KuxV2Kvjf8A
Nq7N3+ZHmCUmvG7aH/kSBF/xpnaaCNYI+5x5830r5GgSDyH5ajQUB0y2lI95Yw7fi2c5nN5Zn+kW
fQJycrQtOFC04VWnChacKrTihacKsA8z3rXOrSryrHB+6Qdhx+1/w2b/AEWPhxjz3ZBLYIZJpo4Y
xWSRgij3Y0GZE5iIJPIJem6dYQ2NnHbRDZB8Td2bux+ecZqMxyzMi2gMb8//AJjaT5QtE9ZfrWpT
ittYqwUkdObnfile9N+3fMjRaGWc90R1RKVPEr/86/zCu7gyx36WaEUEFvDHwH0yCR/vbOhh2Xgi
Kq/e0mZTXyx+fPmaxnWPXFXVbNm+NwqRTopoDwKBUagqaMNz+0Mp1HZGOQ9HpP2JGQvedJ1bT9X0
6DUdOmW4s7heUUq/cQQdwQdiD0Oc1lxSxyMZCiG4G0o85aWs1mL6Nf31vs5HeMn/AI1ObPsnU8M+
A8pfexkGE50jBk/le7eS1ktmYn0SCgP8rdvvGazW46kJd7VNOTmG1rThVacKFpwq0cKFpwqtOFXl
H5621Y9HuQOhnjY/MIy/qOZ+iPMM4LfyGvDHeajFX7PpSqPep/5pzWduR3gff+hycT6eBBFR0OaF
tdirsVdir4l88yiXzt5glUUEmpXjAHrRp3OdxpRWKP8AVH3ONLm+u9PhaDR9MhYANFZwIwHSqoBt
nJ3cpHzLaVU4WK04ULThVacKFpwqtOKFpwq8vuXL3Mrnqzsx+ZNc6eAoAMk08pwrJrkJbcRhnp7h
SB+JzB7UnWA+bKPN6DnKNr5M/MHWrnWPOOq3cz8lW4khgAJosMLFIwKk/srU+9TnbaPEMeKMR3ON
I2Xofk/8r7KSyi9e2W4upAPVeUF/jIrwRPbxznNV2nknM8J4Y9KbowCT/mr+VVx5YsoNZhjEdlNK
IJYwwPF2UspAqSAeJzZdla6WQmE9z3sJxpO/+cdtdk9fVNCkcmPgt7bp2UgiOXf35JlfbeIVGfwT
jPR7RdQie1mhIqJEZCP9YUzQ4p8Mge4tpeV53DSnHlZyL+RezRn7wRmHrR6B72E+TKDmsaVpwqtO
FC04VaOFC04VWnCrzX88UU6Fp70+IXVAfYxtX9WZmi+osoMf/JKQrr12nZ4h+FcxO3B6Y+9ycT6q
tG5WkLfzRqfvAznG5VxV2KuxV8Tee4li88eYYl2VNTvFWvgLhwM7jSm8UP6o+5xpc311p0zT6JpV
wxDNNZwOWHQlowainzzkiKlIeZbSqnJMVpwoWnCq04ULThVacULThV5fdRmO5mjbqjsp+YNM6eBu
ILJM/Kcyxa5By2EgZK+5U0/EZhdpw4sB8mUeb0LOTbXyf+YuhXGi+c9UtZV4pJO9xbGlA0MzF0p8
q8T7g522izDJiiR3ONIUXsH5Vfmx5QWyjj1y7XT7+3i4Eyhijmu7o4BG47HfOf1XZWSMiYDii2xm
GNfnl+bOk+Z7e20LQWabToJRcXN4ysgkkVSqLGrANxXkakjc/LfY9l6CWImc+fcxnK0X/wA48eX5
VbUtfljKxuos7VzUchyEk1B3FVTf55T23mFRh8U4x1eyXkwgtJpiaCNGev8AqiuaLFDimI95bS8s
zt2lOfKyE38jdljP3kjMPWn0D3sJ8mTnNY0rThVacKFpwq0cKFpwqtOFXmv54uo0LT0/aN0SPkI2
B/XmZovqLKDHfyUU/wCILhuwjAP0hv6ZiduH0x97k4n1Tpv/ABzrX/jDH/xEZzjciMVdirsVfHP5
vWbWn5la/EwoWufW+iZFlH/E87Ps+V4I+5x5830r5FnS5/LzyzMhqF0+3iJ94o1jP4oc5vUCs0x/
SLZ0CbnIsVpwoWnCq04ULThVacULWIAJJoPHJBXn/mW3WLVpXQ1jm/eAjxP2vxzfaOd4xfRkEthl
eGVJYzR42DKfAg1GZMoiQIPIpem6ZqEN/ZR3MZ+0KOv8rDqM4zU4DimYltBtIvPXkDSPN+niG6Jg
vYQfql6gBZCezDbkhPVf1Zbo9bLBLbeJ5hEo28R1X8jvPtncGO1totRgqeE8EsabV25LK0bA08Kj
3zocfa2CQ3PC1HGU28sfkFr91PHLr8qafaA1kgiYSztQ/ZqtY1qO/I/LKdR2zjiPR6j9iRjPV7pp
WlWGk6dBp2nwiCztlCRRL2HiSdySdyT1znMuWU5GUuZbQKSXznqqxWosI2/ezUMtOyA1/wCGObTs
nTGUvEPIcvexkWF50bBk/le2KWsk5G8rUX/VX+0nNZrZ3IDuaplOTmG1rThVacKFpwq0cKFpwqtO
FXlH563I4aPbA7kzyMPlwVf1nM/RDmWcEN+R8B+uX09P5FB+SvX/AIkM1vbkt4D3/ocnE+n7JeNn
AvTjGg+5RmgbVbFXYq7FXy7/AM5HaYbX8wVuwPh1CzhlLf5UZaEj6BGudV2NO8Ndx/a0ZBu9P/IT
UUvvywitlFH0u6ngb35P69funzWdpw4dRf8AOA/V+hlH6WcnMVC04ULThVacKFKWaKMfGwHt3yUY
kqg5dQPSNfpP9Muji71Qckskhq7E5cIgKgNU0mfULci3jLzw1ZQPDuPpy/DnGM7nYqGIkEGh65tm
SP0fWrrTJ+cfxxN/ewk7MP4H3zF1ekjmjR59CkGmdabrum6go9GULKesL7OD8u/0ZzGo0WTEdxt3
9GwG0wzFS0zKoJYgAdSemEC1SDWPNtnaq0VmRcXHTkN41+Z7/Rm00nZc5m5+mP2sTJhM881xM80z
F5ZDVmPc50kICIAHINapY2ct5cpBH1b7TeC9zgyZBCNlBNM4hhSGJIoxREAVR8s0kpEmy0Fs4ELT
hVacKFpwq0cKFpwqtOFXhn5z34uPNiWynazt0Rh4O5Mh/wCFZc2ekjUL72yHJlv5Jaew0p5qb3Ej
FT8yqD8YznP9sTvNXcB+tysY2fRagKoUdAKDNUzdirsVdirxT/nJ3RDNoek60i1azne2lI/knXkp
PsGip9ObzsTLU5R7xfya8gSL/nGPXFj1XWNBlY8byFLqBSdg0JKSADxZZR/wOZHbWL0xmOhpjjPR
7e6lWKnqDQ5pwbUqZIAqdhkkIWa+gTZTzPt0+/LY4iVQc19O+wPBfAf1y6OMBCGJr1yxVpwqjrPS
ZZqPLWOPw/aOUZM4Gw5shFOYYYoUCRqFUeGYcpEmyzAYr5q8pG4Zr/T0/fmrTwD9v/KX/K8R3za6
HX8Pony6FBDBmVlYqwKsDQg7EHN2DbF2KomPU9SjXjHdzIvgsjAfgcplp8Z5xj8gtqc13dz/AN/N
JL/rsW/WcnDFCP0gBbUsmqtaWdxdzCKBCzHqewHiT2yE8giLKCWYaXpcVhBxHxTP/eSePsPbNRnz
nIfJqJtGHKWK04ULThVacKFpwq0cKFpwqsYgAkmgG5Jwq+Y/M2qfpbzDqGoA1S4ndovH0weKf8KB
m6xx4YgNwD6I/KjRja2On2zLRk4mT5xryb/h65xWqy+JklLvLlRFB61lCXYq7FXYqx78wvLn+I/J
mraQorNcQFrYf8XRESRfe6AZk6TN4eWMvNEhYfJXkTzE3lrzhpesNUR2k4FyKEn0XBjmFPHgzU98
67VYfFxmPeP7HHiaL611HUkZxJbiqONnPQ+4pnMYcW1Ftklcs0sh+NifbtmUIgcmCkckrRwquigl
mfhGpZv1fPBKQG5UBObPSooaPJSSX8B8sw8mcy2HJmIo3KGTsKHYqlWr+W9L1OrTR8J+08ezfT2P
05lYNZPHyO3cimC33lqeGd0t5VmRSQCfhJp94/HN3j1gI3FMLUD5e1kGn1Y/Qyn+OWfm8fejiC6P
y3rDneHgPFmUfqJOA6zGOq8QTG08o0Ia7mr/AJEf/NR/pmPPX/zQxM08trS3tY/TgjCJ7dT8z3zB
nMyNlgSqHIoWnCq04ULThVacKFpwq0cKFpwqxX8ydcGkeUryRWpcXQ+q2/jylBDH6E5HL9PDimEx
G7w/yjpp1DX7SEryjRvVl8OMfxUPzNBmX2hm8PDI9eXzciAsvrHyPp/oxFyP7pAn+yb4mzjHIZZi
rsVdirsVdir5I/O3ykfLvnq7aJONhqlb21IHwj1CfVQU2+GSu3gRnX9majxMQ747OPMUXqH5OeaB
r3lBbCZq3+kcbd/ExU/cP0/lXh/sa98wdbi8PJY5S/BZxNhl5BBoeoylC04UIyz0yWejyVSLx7n5
ZTkzCPLmkRTiGCKFOEa8R38T88xJSJO7MBUyKtYpdhQ7FUPez+haySdwKL8zsMnjjxSAQSxdRydR
4kDNoeTSmhzFYrThVo4ULTiq04ULThVacKFpwqtOFC04VaOFC04VeFfnB5kXUtfXTYH5WumAo1Oh
nb+8/wCBoF+dc2mkx8Mb72yITj8nvL5IbUZV3mPwV/33Gf8AjZ/1ZpO2dRxTEB/D97k4x1fSWi2h
tdOiQijv8b/Nv6DNK2I7FXYq7FXYq7FXn/52eR280eT5HtY+eq6UWurMAVZ1A/exD/XUVH+UBmw7
N1XhZN/plsWE42Hzf+Xnm6Tyt5mt78kmyk/cX8Y7wuRUjY7oQGHjSnfOn1WDxIV16NMTRfUHprdp
HcWhE0Uyh0dCCrKwqrAjahHfOfE+HYtpCYWelxxUeWjydh+yMx8mcnYKIo7KWTsUOxVrFLsKHYqk
2vT/AN3AD/lt+oZl6WPMsJlK7cVnQe9fu3zKnya0xOY7FacKtHChacVWnChacKrThQtOFVpwoWnC
rRwoY15981R+XNBluVYfXp6xWKHeshH2qeCDc/d3y/Bi45V0SBb5/wBJ0651jVYrVWJknflLKdyF
6u5rmx1GcYsZkejfEWX055A8uxRR28Kx8YUVWZfCNBRF+nOJnMyJJ5lyXpWRV2KuxV2KuxV2KuxV
8s/nr+XbeXPMB1exipo2quXUKPhhuDu8fsG+0v0jtnVdlazxIcB+qP3NE40yf8gvzIi4L5Q1WSkl
SdInbow6tbsfEdUr7r/KMo7V0h/vI/H9bLHLo9vZaH2zSAs1uFXYodirWKXYUNYqxa9n9e5kl7E/
D8hsM2mOPDEBpJdZCs1fAHBk5IKOOUsVpwq0cKFpxVacKFpwqtOFC04VWnChacKqVzPDbwSXE7iO
CFGklkY0VVUVJJPgMIUB83+d/Nlx5l1t7tqpaRVjsoT+zGD1I/mbqfu7ZusOLgjXVsAp6B+Vvk5r
eEXd1HS4nAaQEbrH1WP5t1P9mc12prPFnwx+mP2lyYRp9C6Hp31KzAYUmk+KT28F+jNUzTDFXYq7
FXYq7FXYq7FUr8zeXNN8x6JdaPqKc7a5WhI+0jDdXU/zKdxlmHLLHISjzCCLfHvm3yrrXk7zFJp9
0WjmgcSWd2lV5qDVJY2HQ/qOdlptRHPCx8Q45FF9BflF+acPmywGm6m6x+YLVBz6KLlFH96gFAG/
nUfMbbDQ6/QnEeKP0H7G2MrehspBzXgsmsKHYq1il2FCD1Sf0bNyPtP8C/T1/DLcEbkiR2Y3myaU
VYDdz8hlWVBRRypC04VaOFC04qtOFC04VWnChacKrThQtPQkmgG5J2AA6knCrxD80/zETWJDomkS
8tKiYG5uFqBcSKagDxiUio8Tv4Zs9Lp+H1S5/d+1tApLPy+8ny6ndx39xHytkb/R4yNpHB6n/JXM
PtTXcA8OP1Hn5NsI3u+k/J3l9IkWd1rHGaqT+3J/N8hnMtzL8VdirsVdirsVdirsVdirsVYn+Y/5
e6Z5z0VrWcCK/hBaxvKVaNz2PirdxmVpNVLDPiHLqO9jKNvk7UtN8w+UfMHoTiSx1SxkDwzISNwf
hdG7g/2HOuxZYZ4WN4loIIL6F/Kz84rHzTGmlawUtfMCii/sxXIHeOp2cftJ9K9wug13Z5xeqO8P
ubYzt6QyEfLNcCypbhQ1il2FCRa5PynWEHaMVPzP9mZumjQtrmUszKYI2xFIifE5Rk5oKucghacK
tHChacVWnChacKrThQtOFVrFVjklkdYoYVMk00jBI0RRVmdmoFUeJxJpQLeKfmV+aY1VJNF0B2TS
z8N3e0KPc/5Kg0ZIvY7t3p0zZ6XSEeqfPoO79rYBTGPJ/k+41q4WaZWWwVqEj7UrfyJ/E5DtDtAY
Rwx+v7myELfRPk3ykqqiBBHHGArlRQIo6Rp75ycpEmzzb3oscaRRrHGoVEFFUdgMCrsVdirsVdir
sVdirsVdirsVdirEvzC/LnRvOWmGG5URX0QJtbtR8SNTv4jxGZOl1U8Mrj8u9Eo2+VPNfk/XvKeq
m01GJo2VqwXKV4OBuGVvHOs0urhnjcfiHHlEh6b+XP5/z2ix6Z5vLT2ygLFqygtKtNgJ0G7in7Q+
LxDVrmv1fZQPqx8+79TOOTve62V5YajaR3mn3Ed1ayisc8LB0ahoaMtR1zRyBiakKLYvIIO+KrXd
URnbZVBJPsMIFoYrPK0sryN1ck/fm1iKFNJU8khMLUUt196n8cx580FUORQtOFWjhQtOKrThQtOF
Vpwql3mPzDoPlm0F1rt0LcsvKCySj3U3+pHUUG32mouHGJZDUBfn0DIQ73g3nv8AM3WfNTfVVX6h
oqNWLT42J5EdHnfb1H/Adhm30+kjj3O8u/8AUyW+UPId1qkkdzeo0doxBjiGzy/80r7/AO3mHr+0
xj9MN5fczjC3vvlDyaEVFRFjjjAUsoAWNf5UHjnMykZGzuW96Lb28NvCsMK8UXoP4nIqqYq7FXYq
7FXYq7FXYq7FXYq7FXYq7FUo8zeVdG8x6c9jqkCyxsKKxHxKfEHJ48koHiiaKkPm38wfyT1zy7K9
zpyte6aTVSu7r7e/y6/POi0fa8ZenJse/p+xplj7mI+WPOnmnypeGTSbx7b4v39o45QuQRUPE21d
qVFGHYjNnm0+PMPUL82AJD27yl/zkT5d1BVt/MVu2lXNAPrMYaa2Y0G+w9SOprtRgB1bNJn7JnHe
B4h9rYMg6vRpb/TtT0wT6XeQ3VvMSFngdZYzxPxAMhI6ihzBxxMZeoVTIixsk0lncJ1So8V3zOGQ
FrMSoEEbHJsU0jHGNB4AZjHmxccULThVo4ULTiq+K1uJv7qNn9wNvvwSmBzKRElL9e1vy15cTn5g
1WCyegItFPq3LA9KRR8mp79MOPjyf3cSfPkGXh97yvzR+f1wQ1t5SsvqKdP0ldhZbk9N0j+KKP8A
4b6M2GLsy98pvyHL9qbA5PL1j1vX9SeQmbUL+Y8pp5GLue1Xdj7dzmwnkx4Y71GKgEvRvKH5Yojr
cXgW5uVNaH+4jP0/bP8AnTvnPaztaWT0w9MftbY465vavLfkxY1WWcFEPUkUdx7fyrmnbGZxRRwx
rHEoRFFFUdMVXYq7FXYq7FXYq7FXYq7FXYq7FXYq7FXYq7FVskcciNHIoeNhRkYVBHgQcVeb+d/y
S8va8Hns0FtdnpQ0+5qH7mBHyzL02tyYfpO3d0YmILwzzP8AlH5n0SZgIjNH+yDRXI9t+Df7Fvoz
e6ftjHLafpP2NRxli1tea7od4XtprnTbsbMUZ4Xp4GnGozZ+jIOkh82G4Zpo/wCennexAS7aDUo6
gkzxhHC+CtF6Y+llOYs+zsZ5bMhMsusP+chdGm21XRZogOht3Sev0SCGn35iy7MkPpl+hlxsutPz
0/Ki7QNM1zZMf2JYHqP+RBlGYJ7O1MeVH4/rW4oj/lbv5Ot/0unT2+r3f/VE4Pyeq/m/aP1oqKx/
zd/J9a01iV6dAtvc7/fEMI0eq/mj5j9a1FLL38+fywtmK29rqF8d6Okaolff1JI2/wCFyyPZ2pPM
xH49y+ljep/85J8Q66J5cgiYf3c95IZT9MaKlP8AkZmRDsgn65n4LxDoGEa/+c35ia0Gjl1V7O3b
/dFiBbge3NP3pHsXOZuLs7DDlGz57oMyWMWGi6xqsha1t5JyxPKY7LU9eTttX6cuzanHiHqIH47k
CJLNdA/KqWZ1bUJDKR1t4Khf9lIafh9+abUdtdMY+J/U2DH3vWPLH5dqkSxwW6xQD9lBxSvizdWO
aTJllM3I2WwCnomleXLGxVTxEki/ZNKKv+quVpTXFXYq7FXYq7FXYq7FXYq7FXYq7FXYq7FXYq7F
XYq7FXYqsnggnjMU8ayxN9pHAZT9BxViWuflf5b1RCoiENf2GUSx1/1XrT6Dk4ZJQNxNKQ851z/n
HqIlntIvflbSFT/wEnIfdmwxdrZo8zxe9gcYYRqX5LatasQsskf+TNCf+JKf4Zmw7c/nR+RY+Ekk
/wCWXmGMkCS3fwHJ1P8AwyDMmPbWE8xIfj3sfDKHP5d+ZR/uuI/89Bk/5Xwd5+S+GVy/l15kJoVh
UeJk2/AHAe2MHn8l8Mou3/K/WZCBLcwJXsnNz93Fcql23j6CRT4ZTqw/J/kQbiaeUeCIIh97c8xc
nbkz9MQPfv8AqSMbMNE/KKzQq0OnqzD/AHZIGmPz3qgzAy9o5p85fLZmIAM7038uCoU3BCgU+FjW
nyVdvvOYVsmU2PlrS7RQBH6hHTkBxHyUbYqmoAAoBQDoMVdirsVdirsVdirsVdirsVdirsVdirsV
dirsVdirsVdirsVdirsVdirsVcQCKEVB6g4qhpdL06X+8to29+IB/DFUK3lnQWNTZp9HIfqOKtf4
X0Ef8ea/e39cVVU0HSE+zbL9JY/rOKoiOxsov7uCNT4hRX78VV8VdirsVdirsVdirsVdirsVdirs
VdirsVdirsVdirsVdirsVdirsVdirsVdirsVdirsVdirsVdirsVdirsVdirsVdirsVdirsVdirsV
dirsVdirsVf/2Q==</xapGImg:image>
              </rdf:li>
            </rdf:Alt>
          </xap:Thumbnails>
        </rdf:Description>
        <rdf:Description
           rdf:about="uuid:a878ce0e-5a33-4cea-8726-4213c547832c">
          <xapMM:DocumentID>
uuid:9fea329d-40ab-4d6e-ae7c-ff8423084ef5</xapMM:DocumentID>
        </rdf:Description>
        <rdf:Description
           rdf:about="uuid:a878ce0e-5a33-4cea-8726-4213c547832c">
          <dc:format>
image/svg+xml</dc:format>
          <dc:title>
            <rdf:Alt>
              <rdf:li
                 xml:lang="x-default">
mime.ai</rdf:li>
            </rdf:Alt>
          </dc:title>
        </rdf:Description>
      </rdf:RDF>
    </x:xmpmeta>
    <xpacket>end='w'    </xpacket>
  </metadata>
  <g
     id="Layer_1">
    <g
       id="g551">
      <path
         style="opacity:0.2;"
         d="M22.086,4.396L22.086,4.396c-5.454,0.671-10.319,3.427-13.701,7.758      c-3.381,4.33-4.874,9.719-4.203,15.173c0.671,5.453,3.426,10.319,7.757,13.701c8.941,6.979,21.893,5.385,28.874-3.555      c3.376-4.324,4.865-9.712,4.193-15.173c-0.672-5.459-3.425-10.325-7.749-13.702C32.928,5.217,27.539,3.725,22.086,4.396       M23.817,25.814c-0.31-0.242-0.487-0.608-0.487-1.004c0-0.285,0.092-0.555,0.268-0.779c0.208-0.268,0.51-0.438,0.848-0.479      c0.336-0.042,0.669,0.05,0.935,0.259c0.268,0.208,0.438,0.509,0.479,0.846c0.042,0.338-0.051,0.671-0.259,0.938      C25.17,26.146,24.37,26.245,23.817,25.814z"
         id="path552" />
      <path
         style="opacity:0.2;"
         d="M21.524,4.114L21.524,4.114C16.07,4.786,11.205,7.541,7.823,11.872c-3.381,4.33-4.874,9.719-4.203,15.173      c0.671,5.453,3.426,10.319,7.757,13.701c8.941,6.979,21.893,5.385,28.874-3.555c3.376-4.324,4.865-9.712,4.193-15.173      c-0.672-5.459-3.425-10.325-7.749-13.702C32.365,4.936,26.977,3.443,21.524,4.114 M23.255,25.533      c-0.31-0.242-0.487-0.608-0.487-1.004c0-0.285,0.092-0.555,0.268-0.779c0.208-0.268,0.51-0.438,0.848-0.479      c0.336-0.042,0.669,0.05,0.936,0.259c0.267,0.208,0.437,0.509,0.478,0.846c0.042,0.338-0.051,0.671-0.259,0.938      C24.607,25.865,23.808,25.964,23.255,25.533z"
         id="path553" />
      <path
         style="fill:#3A3AA9;"
         d="M21.243,3.552L21.243,3.552C15.789,4.223,10.923,6.979,7.542,11.31c-3.381,4.33-4.874,9.719-4.203,15.173      c0.671,5.453,3.426,10.319,7.757,13.701c8.941,6.979,21.893,5.385,28.874-3.555c3.376-4.324,4.865-9.712,4.193-15.173      c-0.672-5.459-3.425-10.325-7.749-13.702C32.084,4.373,26.695,2.881,21.243,3.552 M22.974,24.971      c-0.31-0.242-0.487-0.608-0.487-1.004c0-0.285,0.092-0.555,0.268-0.779c0.208-0.268,0.51-0.438,0.848-0.48      c0.336-0.041,0.669,0.051,0.936,0.26c0.267,0.208,0.437,0.509,0.478,0.846c0.042,0.338-0.05,0.671-0.258,0.938      C24.326,25.303,23.526,25.401,22.974,24.971z"
         id="path554" />
      <linearGradient
         id="XMLID_3_"
         gradientUnits="userSpaceOnUse"
         x1="4.6367"
         y1="23.9688"
         x2="42.875"
         y2="23.9688">
        <stop
           offset="0"
           style="stop-color:#E6EDFF"
           id="stop556" />
        <stop
           offset="1"
           style="stop-color:#B3CAFF"
           id="stop557" />
        
        
        
      </linearGradient>
      <path
         style="fill:url(#XMLID_3_);"
         d="M8.687,12.203c-6.498,8.323-5.019,20.338,3.303,26.835      c8.323,6.498,20.337,5.02,26.835-3.304c6.498-8.322,5.018-20.337-3.305-26.835S15.184,3.88,8.687,12.203 M25.902,25.645      c-0.924,1.185-2.639,1.396-3.823,0.472c-1.183-0.925-1.395-2.639-0.47-3.823c0.924-1.184,2.639-1.396,3.822-0.471      C26.615,22.746,26.827,24.461,25.902,25.645z"
         id="path561" />
      <path
         style="fill:#FFFFFF;"
         d="M26.139,25.342c0.906-1.16,0.679-2.856-0.504-3.781c-1.184-0.924-2.883-0.731-3.789,0.429      c-0.04,0.05-0.075,0.103-0.11,0.156c0.948-1.05,2.563-1.207,3.695-0.323s1.372,2.49,0.582,3.663      C26.057,25.438,26.1,25.393,26.139,25.342 M12.464,38.431c-8.271-6.457-9.887-18.229-3.656-26.379      c-0.041,0.051-0.082,0.101-0.122,0.152c-6.498,8.323-5.019,20.338,3.303,26.835c8.323,6.498,20.337,5.02,26.835-3.304      c0.039-0.051,0.078-0.104,0.118-0.154C32.547,43.602,20.736,44.89,12.464,38.431z"
         id="path562" />
      <path
         style="opacity:0.3;fill:#9B95FF;"
         d="M35.521,8.899c-2.782-2.172-5.978-3.452-9.24-3.884l-0.978,6.973l-1.299,9.271      c0.503,0.045,1,0.229,1.428,0.563c0.354,0.277,0.618,0.624,0.795,1.007l8.538-3.453l6.668-2.696      C40.213,13.713,38.229,11.014,35.521,8.899z"
         id="path563" />
      <path
         style="opacity:0.7;fill:#FFFFFF;"
         d="M39.523,13.15c-1.08-1.575-2.416-3.013-4.003-4.251c-1.665-1.3-3.478-2.28-5.365-2.951      c-1.57,4.299-2.998,8.209-2.998,8.209s-1.212,3.317-2.63,7.201c0.319,0.094,0.626,0.246,0.905,0.463      c0.197,0.155,0.366,0.333,0.509,0.525C30.023,19.583,35.765,15.697,39.523,13.15z"
         id="path564" />
      <path
         style="opacity:0.3;fill:#9B95FF;"
         d="M23.174,26.626c-0.387-0.084-0.762-0.251-1.095-0.51c-0.405-0.318-0.694-0.729-0.864-1.178l-8.801,3.559      l-6.404,2.59c1.213,3.034,3.219,5.796,5.98,7.951c2.688,2.099,5.759,3.364,8.906,3.837l0.98-6.989L23.174,26.626z"
         id="path565" />
      <path
         style="opacity:0.7;fill:#FFFFFF;"
         d="M22.079,26.116c-0.2-0.158-0.372-0.34-0.516-0.536c-3.474,2.352-6.464,4.377-6.464,4.377      s-3.375,2.285-7.119,4.82c1.083,1.579,2.421,3.021,4.009,4.261c1.625,1.269,3.39,2.231,5.228,2.9      c1.588-4.348,3.963-10.852,5.627-15.405C22.575,26.438,22.316,26.301,22.079,26.116z"
         id="path566" />
      <path
         style="fill:#9B95FF;"
         d="M18.077,19.535c-2.445,3.131-1.886,7.668,1.245,10.113c3.131,2.445,7.668,1.887,10.111-1.244      c2.445-3.131,1.887-7.668-1.244-10.113C25.059,15.846,20.522,16.404,18.077,19.535 M25.902,25.645      c-0.924,1.185-2.639,1.396-3.823,0.472c-1.183-0.925-1.395-2.639-0.47-3.823c0.924-1.184,2.639-1.396,3.822-0.471      C26.615,22.746,26.827,24.461,25.902,25.645z"
         id="path567" />
      <path
         style="fill:#E6E6E6;"
         d="M20.044,21.071c-1.597,2.046-1.233,5.012,0.813,6.609s5.012,1.232,6.609-0.813      c1.598-2.047,1.233-5.012-0.814-6.61C24.606,18.659,21.642,19.024,20.044,21.071 M25.902,25.645      c-0.924,1.185-2.639,1.396-3.823,0.472c-1.183-0.925-1.395-2.639-0.47-3.823c0.924-1.184,2.639-1.396,3.822-0.471      C26.615,22.746,26.827,24.461,25.902,25.645z"
         id="path568" />
      <rect
         x="2.842"
         y="2.632"
         style="opacity:0.5;fill:none;"
         width="42.14"
         height="42.141"
         id="rect569" />
      <linearGradient
         id="XMLID_4_"
         gradientUnits="userSpaceOnUse"
         x1="23.9126"
         y1="16.2363"
         x2="23.9126"
         y2="8.4939">
        <stop
           offset="0"
           style="stop-color:#E1E1FF"
           id="stop571" />
        <stop
           offset="1"
           style="stop-color:#FFFFFF"
           id="stop572" />
        
        
        
      </linearGradient>
      <path
         style="opacity:0.7;fill:url(#XMLID_4_);"
         d="M23.912,5.307c-7.798,0-14.143,3.792-14.143,8.454      c0,3.138,2.901,5.939,7.362,7.395c0.24-0.566,0.549-1.113,0.946-1.62c2.445-3.13,6.981-3.689,10.112-1.245      c1.021,0.799,1.765,1.821,2.224,2.944c4.576-1.438,7.642-4.311,7.642-7.474C38.055,9.099,31.71,5.307,23.912,5.307z"
         id="path576" />
    </g>
    <polyline
       id="_x3C_Slice_x3E_"
       style="fill:none;"
       points="0,48 0,0 48,0 48,48 " />
  </g>
</svg>
