/* XPM */
static char * off_xpm[] = {
"35 35 159 2",
"  	c None",
". 	c #E8E8E8",
"+ 	c #A3A3A3",
"@ 	c #E5E5E5",
"# 	c #E4E4E4",
"$ 	c #D9D9D9",
"% 	c #D8D8D8",
"& 	c #B6B6B6",
"* 	c #3C3C3C",
"= 	c #303030",
"- 	c #E0E0E0",
"; 	c #DCDCDC",
"> 	c #D2D2D2",
", 	c #747474",
"' 	c #323232",
") 	c #D6D6D6",
"! 	c #DADADA",
"~ 	c #D7D7D7",
"{ 	c #B0B0B0",
"] 	c #464646",
"^ 	c #C2C2C2",
"/ 	c #BDBDBD",
"( 	c #BABABA",
"_ 	c #737373",
": 	c #BEBEBE",
"< 	c #B8B8B8",
"[ 	c #AFAFAF",
"} 	c #4E4E4E",
"| 	c #A8A8AC",
"1 	c #99999B",
"2 	c #A8A8AE",
"3 	c #B2B2B5",
"4 	c #AFAFB4",
"5 	c #B1B1B4",
"6 	c #B3B3B5",
"7 	c #B0B0B4",
"8 	c #B4B4B6",
"9 	c #3CE464",
"0 	c #34E75E",
"a 	c #22AF4B",
"b 	c #959595",
"c 	c #B9B9BC",
"d 	c #ABABAF",
"e 	c #A3A3A7",
"f 	c #BBBBBF",
"g 	c #AFAFB3",
"h 	c #A2A2A6",
"i 	c #B8B8BB",
"j 	c #B4B4B8",
"k 	c #9F9FA3",
"l 	c #53A76E",
"m 	c #4DA569",
"n 	c #4FA66A",
"o 	c #ADADAD",
"p 	c #929294",
"q 	c #ABABAC",
"r 	c #A9A9AA",
"s 	c #AEAEB0",
"t 	c #ACACAD",
"u 	c #ADADAF",
"v 	c #ADADAE",
"w 	c #AAAAAB",
"x 	c #B6B6B7",
"y 	c #BDBDBE",
"z 	c #C1C1C1",
"A 	c #C3C3C3",
"B 	c #BEBEBF",
"C 	c #9C9C9E",
"D 	c #A4A4A4",
"E 	c #9E9E9F",
"F 	c #A6A6A8",
"G 	c #B3B3B3",
"H 	c #A7A7A8",
"I 	c #A6A6A6",
"J 	c #A7A7A7",
"K 	c #B2B2B2",
"L 	c #ACACAE",
"M 	c #AFAFB1",
"N 	c #B2B2B4",
"O 	c #A9A9AC",
"P 	c #989898",
"Q 	c #939393",
"R 	c #979797",
"S 	c #AEAEAE",
"T 	c #C9C9C9",
"U 	c #A5A5A5",
"V 	c #4F4F4F",
"W 	c #4D4D4D",
"X 	c #454545",
"Y 	c #7F7F7F",
"Z 	c #5E5E5E",
"` 	c #404040",
" .	c #BFBFBF",
"..	c #797979",
"+.	c #4A4A4A",
"@.	c #FF7878",
"#.	c #CD553E",
"$.	c #888888",
"%.	c #545454",
"&.	c #FF4E4E",
"*.	c #FF4848",
"=.	c #F9403D",
"-.	c #C03619",
";.	c #FD7C7C",
">.	c #FF7979",
",.	c #FB706E",
"'.	c #CB5038",
").	c #DD9A50",
"!.	c #E1AD57",
"~.	c #D49F4B",
"{.	c #F0634C",
"].	c #FE4140",
"^.	c #BE391B",
"/.	c #D19494",
"(.	c #FB6E6E",
"_.	c #FF6565",
":.	c #CD4730",
"<.	c #E6BF22",
"[.	c #FF8D41",
"}.	c #FF4949",
"|.	c #F6423E",
"1.	c #B4442A",
"2.	c #BAAFAA",
"3.	c #BCBCBC",
"4.	c #7E7E7E",
"5.	c #5D5D5E",
"6.	c #565656",
"7.	c #C0623A",
"8.	c #FF6060",
"9.	c #FF5959",
"0.	c #DE4536",
"a.	c #FF4A4A",
"b.	c #FD4443",
"c.	c #A5351C",
"d.	c #59463E",
"e.	c #505050",
"f.	c #BE5131",
"g.	c #FF5353",
"h.	c #FF4444",
"i.	c #BA3617",
"j.	c #5A3004",
"k.	c #FF5050",
"l.	c #FF3F3F",
"m.	c #CD331C",
"n.	c #FF4545",
"o.	c #CE3721",
"p.	c #FF3737",
"q.	c #FD3030",
"r.	c #CB2C14",
"s.	c #F7433F",
"t.	c #BD3617",
"u.	c #FF2A2A",
"v.	c #FC2827",
"w.	c #CD2C15",
"x.	c #FF5454",
"y.	c #F84643",
"z.	c #FF2828",
"A.	c #FF5757",
"B.	c #BD391A",
"                                                                      ",
"                                                                      ",
"                                                                      ",
"                                                                      ",
"                                                                      ",
"                                                                      ",
"                                                                      ",
"                . . . . . . . . . . . . . . . . . . . . . . . . +     ",
"            @ # $ % % % % % % % % % % % % % % % % % % % % % % & * =   ",
"        . - ; % % % % % % % % % % % % % % % % % % % % % % % > , ' =   ",
"    ) % ! ~ ~ ) ~ ~ ) ~ ) ) ) ~ ~ ) ~ ) ) ) ~ ~ ) ~ ) ~ ) ) { ] = =   ",
"  % ^ / / / / / / / / / / / / / / / / / / / / / / / / / / ( _ = = =   ",
"  % : < < < < < < < < < < < < < < < < < < < < < < < < < < [ } = = =   ",
"  % : < | 1 2 3 4 5 6 7 7 8 < < < < < < < < < < 9 0 a < < [ } = = =   ",
"  % : < b c d e f g h i j k < < < < < < < < < < l m n < < [ } = = =   ",
"  % : < o p q r s t r u v w < < < < < < < < < < < < < < < [ } = = =   ",
"  % : x y z A A A A A A A A A A A A A A A A A A A A A B & [ } = = =   ",
"  % : w C D D D D D D D D D D D D D D D D D D D D D D E F [ } = = =   ",
"  % : G H I I I I I I I I I I I I I I I I I I I I I I J K [ } = = =   ",
"  % : L M / / / / / / / / / / / / / / / / / / / / / / N O [ } = =     ",
"  % : { P Q Q Q Q Q Q Q Q Q Q Q Q Q Q Q Q Q Q Q Q Q Q R S [ } =       ",
"  T K o o o o o o o o o o o o o o o o o o o o o o o o o o U } =       ",
"    V W W W W W W W W W W W W W W W W W W W W W W W W W W W X         ",
"                              Y Z `                                   ",
"                               ...+.                                  ",
"                      @.@.#.  % $.%.  &.*.=.-.                        ",
"                      ;.>.,.'.).!.~.{.*.].^.                          ",
"     .z z z z z z z z z /.(._.:.<.[.}.|.1.2.z z z z z z z z 3.4.      ",
"    5.6.6.6.6.6.6.6.6.6.6.7.8.9.0.a.b.c.d.6.6.6.6.6.6.6.6.6.e.X       ",
"                            f.g.}.h.i.j.                              ",
"                            k.a.h.l.m.                                ",
"                          k.&.n.o.p.q.r.                              ",
"                        k.&.s.t.    u.v.w.                            ",
"                      x.&.y.-.        z.z.w.                          ",
"                    A.k.}.B.          z.z.v.r.                        "};
