/* XPM */
static char * on_xpm[] = {
"35 35 122 2",
"  	c None",
". 	c #F1F1F1",
"+ 	c #EFEFEF",
"@ 	c #EBEBEB",
"# 	c #EAEAEA",
"$ 	c #E1E1E1",
"% 	c #7F7F7F",
"& 	c #333333",
"* 	c #F8F8F8",
"= 	c #F3F3F3",
"- 	c #EDEDED",
"; 	c #E2E2E2",
"> 	c #DDDDDD",
", 	c #A4A4A4",
"' 	c #3A3A3A",
") 	c #F2F2F2",
"! 	c #ECECEC",
"~ 	c #E8E8E8",
"{ 	c #CBCBCB",
"] 	c #626262",
"^ 	c #343434",
"/ 	c #D6D6D6",
"( 	c #D5D5D5",
"_ 	c #D8D8D8",
": 	c #D9D9D9",
"< 	c #D4D4D4",
"[ 	c #9D9D9D",
"} 	c #3E3E3E",
"| 	c #D7D7D7",
"1 	c #BFBFBF",
"2 	c #BABABA",
"3 	c #B4B4B4",
"4 	c #B9B9B9",
"5 	c #B2B2B2",
"6 	c #AFAFB0",
"7 	c #A9A9A9",
"8 	c #AEAEAF",
"9 	c #B1B1B1",
"0 	c #B0B0B0",
"a 	c #B1B1B2",
"b 	c #97C3A2",
"c 	c #95C4A1",
"d 	c #96B298",
"e 	c #AAAAAA",
"f 	c #535353",
"g 	c #9D9D9E",
"h 	c #B2B2B5",
"i 	c #B2B2B4",
"j 	c #C0C0C2",
"k 	c #B9B9BB",
"l 	c #BEBEC0",
"m 	c #BCBCBE",
"n 	c #AEAEB0",
"o 	c #3BCA53",
"p 	c #33CC4C",
"q 	c #36A63C",
"r 	c #959595",
"s 	c #A6A6A8",
"t 	c #9C9C9E",
"u 	c #969698",
"v 	c #A8A8AB",
"w 	c #A0A0A2",
"x 	c #959597",
"y 	c #A3A3A5",
"z 	c #959596",
"A 	c #97AD97",
"B 	c #95AC95",
"C 	c #96AC96",
"D 	c #999999",
"E 	c #BBBBBB",
"F 	c #C5C5C6",
"G 	c #C9C9CA",
"H 	c #ADADAE",
"I 	c #E3E3E3",
"J 	c #A4A4A5",
"K 	c #878787",
"L 	c #848484",
"M 	c #868686",
"N 	c #A1A1A1",
"O 	c #BFBFC0",
"P 	c #C2C2C2",
"Q 	c #919191",
"R 	c #949494",
"S 	c #929292",
"T 	c #A1A1A2",
"U 	c #AEAEAE",
"V 	c #ADADAD",
"W 	c #A7A7A7",
"X 	c #8E8E8E",
"Y 	c #898989",
"Z 	c #424242",
"` 	c #404040",
" .	c #414141",
"..	c #747474",
"+.	c #494949",
"@.	c #C7C7C7",
"#.	c #7E7E7E",
"$.	c #505050",
"%.	c #DDD5BF",
"&.	c #938D7D",
"*.	c #676151",
"=.	c #FFDF33",
"-.	c #FFCC29",
";.	c #E9BF53",
">.	c #ECB664",
",.	c #A2A2A3",
"'.	c #A3A3A3",
").	c #F3BA24",
"!.	c #FFBD12",
"~.	c #D8A534",
"{.	c #9C9488",
"].	c #6E6E6E",
"^.	c #5F5F5F",
"/.	c #3C3C3C",
"(.	c #96642E",
"_.	c #9D6325",
":.	c #98622B",
"<.	c #594530",
"[.	c #3A3A33",
"}.	c #383838",
"|.	c #804000",
"1.	c #7D3F00",
"                                                                      ",
"                                                                      ",
"                                                                      ",
"                                                                      ",
"                                                                      ",
"                                                                      ",
"                                                                      ",
"                                                                      ",
"                                                                      ",
"                                                                      ",
"                                                                      ",
"                . + @ # # # # # # # # # # # # # # # # # # # # $ % &   ",
"          * = - ; > > > > > > > > > > > > > > > > > > > > > > , ' &   ",
"        ) ! # ~ ; > > > > > > > > > > > > > > > > > > > > > { ] ^ &   ",
"    / ( _ : : : _ ( ( ( ( ( ( ( ( ( ( ( ( ( ( ( ( ( / / ( < [ } & &   ",
"  | 1 2 2 2 2 2 2 2 2 2 2 2 2 2 2 2 2 2 2 2 2 2 2 2 2 2 2 3 ] & & &   ",
"  | 4 5 6 7 8 9 6 0 9 6 0 a 5 5 5 5 5 5 5 5 5 5 b c d 5 5 e f & & &   ",
"  | 4 5 g 9 h i j k i l m n 5 5 5 5 5 5 5 5 5 5 o p q 5 5 e f & & &   ",
"  | 4 5 r s t u v w x s y z 5 5 5 5 5 5 5 5 5 5 A B C 5 5 e f & & &   ",
"  : 4 5 5 D 5 5 5 5 5 5 5 5 5 5 5 5 5 5 5 5 5 5 5 5 5 5 5 e f & & &   ",
"  $ E 8 F | | | | | | | | | | | | | | | | | | | | | | G H e f & & &   ",
"  I E J K L L L L L L L L L L L L L L L L L L L L L L M N e f & & &   ",
"  I E 6 O { { { { { { { { { { { { { { { { { { { { { { P 6 e f & &     ",
"  I E J Q R R R R R R R R R R R R R R R R R R R R R R S T e f & &     ",
"  I E 9 U V V V V V V V V V V V V V V V V V V V V V V U 9 e f &       ",
"  W S X X X X X X X X X X X X X X X X X X X X X X X X X X Y f &       ",
"    Z ` ` ` ` ` ` ` ` ` ` ` ` Z  .` ` ` ` ` ` ` ` ` ` ` ` ` }         ",
"                              5 ..+.                                  ",
"                              @.#.$.                                  ",
"                              %.&.*.                                  ",
"                            =.=.=.-.;.>.                              ",
"    ,.'.'.'.'.'.'.'.'.'.'.).!.!.!.~.{.'.'.'.'.'.'.'.'.'.'.'.D ].^.    ",
"    } /./././././././././.(._._._.:.<.[././././././././././.' }.      ",
"                            |.|.|.|.1.                                ",
"                                                                      "};
