<?xml version="1.0" encoding="UTF-8" standalone="no"?>
<!-- Created with Inkscape (http://www.inkscape.org/) -->

<svg
   xmlns:dc="http://purl.org/dc/elements/1.1/"
   xmlns:cc="http://creativecommons.org/ns#"
   xmlns:rdf="http://www.w3.org/1999/02/22-rdf-syntax-ns#"
   xmlns:svg="http://www.w3.org/2000/svg"
   xmlns="http://www.w3.org/2000/svg"
   xmlns:sodipodi="http://sodipodi.sourceforge.net/DTD/sodipodi-0.dtd"
   xmlns:inkscape="http://www.inkscape.org/namespaces/inkscape"
   width="70mm"
   height="70mm"
   viewBox="0 0 70 70"
   version="1.1"
   id="svg1954"
   inkscape:version="0.92.4 (5da689c313, 2019-01-14)"
   sodipodi:docname="icon-with-wifi.svg"
   inkscape:export-filename="/home/xavier/informatica/progs_meus/chronojump/chronojump/images/icon-with-wifi.png"
   inkscape:export-xdpi="145.14"
   inkscape:export-ydpi="145.14">
  <defs
     id="defs1948" />
  <sodipodi:namedview
     id="base"
     pagecolor="#0e1e46"
     bordercolor="#666666"
     borderopacity="1.0"
     inkscape:pageopacity="1"
     inkscape:pageshadow="2"
     inkscape:zoom="0.77682379"
     inkscape:cx="178.01145"
     inkscape:cy="-100.70719"
     inkscape:document-units="mm"
     inkscape:current-layer="layer1"
     showgrid="false"
     inkscape:pagecheckerboard="true"
     fit-margin-top="0"
     fit-margin-left="0"
     fit-margin-right="0"
     fit-margin-bottom="0"
     inkscape:window-width="1920"
     inkscape:window-height="1043"
     inkscape:window-x="0"
     inkscape:window-y="0"
     inkscape:window-maximized="1" />
  <metadata
     id="metadata1951">
    <rdf:RDF>
      <cc:Work
         rdf:about="">
        <dc:format>image/svg+xml</dc:format>
        <dc:type
           rdf:resource="http://purl.org/dc/dcmitype/StillImage" />
        <dc:title></dc:title>
      </cc:Work>
    </rdf:RDF>
  </metadata>
  <g
     inkscape:label="Capa 1"
     inkscape:groupmode="layer"
     id="layer1"
     transform="translate(-57.901138,-51.854557)">
    <path
       inkscape:connector-curvature="0"
       style="fill:#ffffff;stroke-width:0.26458332"
       d="m -10.433205,34.277653 c -0.52076,-13.353701 -11.31251,-24.140747 -24.661122,-24.6611274 -0.501976,-0.01958 -0.915462,0.3837264 -0.913504,0.8860964 l 0.01057,2.670821 c 0.0016,0.479267 0.383336,0.871216 0.862213,0.891968 10.947973,0.479266 19.774083,9.303031 20.253363,20.253362 0.0208,0.47887 0.41309,0.86025 0.89196,0.86221 l 2.67082,0.0106 c 0.50198,0.002 0.90528,-0.41192 0.88573,-0.91387 z M -30.48216,29.665488 c -1.384158,-1.384158 -3.627786,-1.384159 -5.011948,3e-6 -1.384161,1.384161 -1.384158,3.627782 10e-7,5.011942 1.384159,1.38416 3.627786,1.38417 5.011947,10e-6 1.384162,-1.38417 1.38416,-3.627795 0,-5.011955 z m 11.208755,4.662685 c -0.52195,-8.504261 -7.376572,-15.350268 -15.871431,-15.871434 -0.509026,-0.03133 -0.932302,0.374721 -0.928782,0.884135 l 0.01762,2.679432 c 0.0031,0.46674 0.365717,0.860648 0.832063,0.894713 6.128672,0.445594 11.04782,5.377271 11.49185,11.491844 0.0341,0.46634 0.42757,0.82932 0.8947,0.83206 l 2.67944,0.0176 c 0.5098,0.004 0.91585,-0.42014 0.88454,-0.92837 z"
       id="path5017" />
    <path
       inkscape:connector-curvature="0"
       style="fill:#ffffff;stroke-width:0.26458332"
       d="m 50.049009,28.684724 c -0.5778,-14.81628 -12.55152,-26.7847896 -27.36216,-27.3621636 -0.55695,-0.02172 -1.01572,0.425754 -1.01355,0.983146 l 0.0118,2.963346 c 0.002,0.53176 0.42532,0.966637 0.95665,0.989662 12.14705,0.531758 21.93986,10.3219556 22.47163,22.4716336 0.0231,0.531319 0.45833,0.954469 0.98965,0.956643 l 2.96335,0.01177 c 0.55695,0.0023 1.00443,-0.457036 0.98273,-1.013963 z"
       id="path5017-3-6"
       sodipodi:nodetypes="cccccccccc" />
    <path
       d="m 12.403629,18.145545 c -0.235474,-0.02975 -0.454972,-0.140983 -0.625184,-0.316833 -0.186986,-0.193181 -0.286916,-0.421921 -0.300688,-0.688274 -0.02655,-0.513377 0.316333,-0.965253 0.827474,-1.090523 0.06828,-0.01672 0.104555,-0.02 0.226745,-0.02043 0.195689,-7.93e-4 0.326366,0.0274 0.474073,0.10178 0.36246,0.182534 0.581345,0.518443 0.596839,0.91594 0.01545,0.395846 -0.179097,0.752203 -0.524447,0.960723 -0.192624,0.116306 -0.441555,0.167061 -0.674812,0.137597 z m -1.10377,-2.386603 c -0.04705,-0.02336 -0.461359,-0.43766 -0.483812,-0.483825 -0.01487,-0.0306 -0.01672,-0.04894 -0.01423,-0.141181 0.0024,-0.08749 0.006,-0.112083 0.0209,-0.140745 0.02096,-0.04032 0.18502,-0.201089 0.302157,-0.296109 0.257572,-0.208931 0.596114,-0.373478 0.919387,-0.446868 0.178395,-0.0405 0.284342,-0.05137 0.500549,-0.05137 0.216207,0 0.322154,0.01087 0.500547,0.05137 0.323247,0.07338 0.66157,0.237815 0.919432,0.446868 0.132297,0.107254 0.287534,0.261911 0.303866,0.302734 0.01815,0.04537 0.02617,0.219236 0.01209,0.262906 -0.01355,0.04205 -0.439716,0.471768 -0.492484,0.49657 -0.04779,0.02246 -0.130583,0.02302 -0.178639,0.0013 -0.02045,-0.0093 -0.05729,-0.04125 -0.08984,-0.07794 -0.07555,-0.08517 -0.193752,-0.181954 -0.301234,-0.246647 -0.478406,-0.287954 -1.084667,-0.240242 -1.515446,0.119263 -0.04296,0.03585 -0.102936,0.09317 -0.133281,0.127384 -0.03255,0.03669 -0.06938,0.06865 -0.08984,0.07794 -0.04777,0.0217 -0.134792,0.02096 -0.180131,-0.0016 z m -1.244954,-1.238879 c -0.04482,-0.02273 -0.4847941,-0.467019 -0.4959461,-0.500814 -0.0051,-0.01553 -0.0079,-0.07226 -0.0063,-0.129797 0.0021,-0.08326 0.0061,-0.108569 0.02064,-0.136551 0.03452,-0.0664 0.349362,-0.35845 0.5551041,-0.514917 0.328197,-0.249592 0.772054,-0.480885 1.169263,-0.609301 0.893664,-0.288917 1.868284,-0.258066 2.731677,0.08647 0.320418,0.127862 0.671605,0.324895 0.931879,0.522832 0.205745,0.156467 0.520591,0.448519 0.555106,0.514917 0.01453,0.02798 0.01836,0.05329 0.02064,0.136551 0.0016,0.05768 -0.0013,0.114255 -0.0063,0.129863 -0.01204,0.03653 -0.460947,0.486825 -0.502698,0.504274 -0.0389,0.01624 -0.121335,0.01572 -0.163258,-0.0011 -0.02249,-0.009 -0.06194,-0.04394 -0.120193,-0.106476 -0.306455,-0.328947 -0.75082,-0.610477 -1.209374,-0.766208 -0.333481,-0.113255 -0.627738,-0.161131 -0.990309,-0.161131 -0.362572,0 -0.656828,0.04788 -0.990309,0.161131 -0.458558,0.155731 -0.902923,0.437261 -1.209374,0.76621 -0.05826,0.06253 -0.0977,0.09748 -0.120192,0.106476 -0.04518,0.01807 -0.13199,0.0168 -0.170032,-0.0024 z M 8.8013959,13.261358 c -0.04966,-0.0226 -0.469199,-0.44744 -0.482425,-0.488511 -0.0059,-0.01826 -0.0087,-0.0713 -0.007,-0.132625 0.0021,-0.08319 0.0061,-0.108572 0.02061,-0.13643 0.02633,-0.0506 0.297074,-0.311097 0.498766,-0.479883 0.829577,-0.694237 1.8234901,-1.13906 2.8834981,-1.290505 0.324657,-0.04638 0.413596,-0.05195 0.829969,-0.05195 0.416374,0 0.505311,0.0056 0.829968,0.05195 1.060006,0.151445 2.053921,0.596268 2.883496,1.290505 0.201692,0.168786 0.472434,0.429279 0.498766,0.479883 0.0145,0.02786 0.01834,0.05324 0.02061,0.13643 0.0016,0.06132 -0.0013,0.114371 -0.007,0.132625 -0.0141,0.0438 -0.433425,0.466423 -0.485268,0.48909 -0.04967,0.02172 -0.130656,0.02125 -0.179744,-0.0011 -0.02376,-0.01077 -0.08704,-0.06564 -0.175408,-0.152048 -0.375733,-0.367377 -0.746049,-0.633656 -1.203537,-0.865418 -0.565989,-0.286724 -1.126535,-0.444794 -1.796838,-0.506701 -0.250254,-0.0231 -0.69958,-0.01246 -0.988261,0.02342 -0.551405,0.06856 -1.078588,0.229944 -1.57865,0.483269 -0.4574891,0.231759 -0.8278051,0.498039 -1.2035401,0.865418 -0.08837,0.0864 -0.151672,0.141277 -0.175405,0.152045 -0.04823,0.02188 -0.13502,0.02209 -0.182594,5.29e-4 z"
       id="path26127"
       style="fill:#ffffff;stroke:none;stroke-width:0.26458332"
       inkscape:connector-curvature="0" />
    <g
       id="g10147"
       transform="translate(0.89571418,-3.1795137)">
      <rect
         inkscape:export-ydpi="155"
         inkscape:export-xdpi="155"
         inkscape:export-filename="/home/xavier/Escriptori/chronojump-logo-2013-wallpaper-prova-2-ratlles-4-punts.png"
         y="108.35374"
         x="87.490829"
         height="2.1101584"
         width="2.4824967"
         id="rect8047-1-7-1-5-3"
         style="fill:#ffffff;fill-opacity:1;stroke:none;stroke-width:0.28222224" />
      <rect
         inkscape:export-ydpi="155"
         inkscape:export-xdpi="155"
         inkscape:export-filename="/home/xavier/Escriptori/chronojump-logo-2013-wallpaper-prova-2-ratlles-4-punts.png"
         y="108.35374"
         x="108.91109"
         height="2.1101584"
         width="2.4824967"
         id="rect8047-8-8-9-8-6-5"
         style="fill:#ffffff;fill-opacity:1;stroke:none;stroke-width:0.28222224" />
      <rect
         inkscape:export-ydpi="155"
         inkscape:export-xdpi="155"
         inkscape:export-filename="/home/xavier/Escriptori/chronojump-logo-2013-wallpaper-prova-2-ratlles-4-punts.png"
         y="108.35374"
         x="94.630959"
         height="2.1101584"
         width="2.4824967"
         id="rect8047-8-5-9-9-1-2-6"
         style="fill:#ffffff;fill-opacity:1;stroke:none;stroke-width:0.28222224" />
      <rect
         inkscape:export-ydpi="155"
         inkscape:export-xdpi="155"
         inkscape:export-filename="/home/xavier/Escriptori/chronojump-logo-2013-wallpaper-prova-2-ratlles-4-punts.png"
         y="108.82603"
         x="101.77097"
         height="1.6378713"
         width="2.4824967"
         id="rect8047-8-5-8-9-8-3-5-2"
         style="fill:#ffffff;fill-opacity:1;stroke:none;stroke-width:0.28222224" />
      <path
         inkscape:export-ydpi="155.58435"
         inkscape:export-xdpi="155.58435"
         inkscape:export-filename="/home/xavier/Escriptori/chronojump-logo-2013-wallpaper-prova-4-punts.png"
         sodipodi:nodetypes="cccccccccccccccc"
         id="path3623-5-9-4-5-5-2-3-0-0-42-7-9-8-1-9-0-6-5-9"
         d="m 60.082566,92.213157 c 7.699899,13.280583 22.627317,-10.687728 23.99733,-11.162284 1.260845,-1.585017 6.650593,-3.518013 13.239882,6.697359 1.104053,1.408148 4.318982,2.477375 5.957962,-0.797306 -0.25953,0.304433 -2.53285,-1.978265 -3.971947,-3.189224 1.713657,0.707898 3.184867,0.247763 5.295957,2.870313 1.51902,0.05692 3.39156,0.31671 5.79247,2.073007 1.80599,2.056779 -3.52071,1.364572 -5.62698,1.913523 -3.97198,2.275332 -3.48567,6.563555 -6.454454,5.58117 -1.937147,5.951955 -3.563753,6.091655 -4.633966,4.943295 4.527365,-3.77007 2.120133,-5.567006 0,-5.581145 -2.965767,0.782175 -2.532036,5.137655 -0.661987,11.002825 5.40631,-0.0344 9.157597,1.91717 13.074407,2.07301 -3.06112,2.17929 -5.04407,-0.74416 -14.067415,-0.15946 C 89.780502,99.99106 84.730268,92.518126 77.459941,93.169947 63.857035,103.41408 61.999139,98.23346 60.082566,92.213157 Z"
         style="fill:#ffcc01;fill-opacity:1;stroke:none;stroke-width:0.28222224"
         inkscape:connector-curvature="0" />
      <path
         sodipodi:nodetypes="ccccccscccccccccccccccccccscccccccsscccccccccccscccccccccccscccc"
         inkscape:connector-curvature="0"
         style="fill:#ffffff;stroke:none;stroke-width:0.26458332"
         id="path26127-7"
         d="m 105.23269,83.446442 c -0.10192,-0.118037 -0.76044,-1.729633 -0.76884,-1.881926 -0.006,-0.100939 0.0106,-0.153293 0.12349,-0.403096 0.10617,-0.237345 0.14534,-0.300147 0.21916,-0.361519 0.10391,-0.0863 0.73815,-0.33804 1.16836,-0.463604 0.94593,-0.276078 2.06261,-0.337421 3.03264,-0.166605 0.53527,0.09425 0.83802,0.186342 1.43028,0.435036 0.59229,0.248703 0.87004,0.400358 1.31214,0.716505 0.80111,0.572844 1.53877,1.412467 2.00469,2.281771 0.23904,0.446 0.48639,1.048255 0.48385,1.179001 -0.003,0.145126 -0.18045,0.630702 -0.26932,0.734115 -0.0856,0.09954 -1.74722,0.786582 -1.92031,0.793833 -0.15677,0.0065 -0.38422,-0.08715 -0.49093,-0.201801 -0.0452,-0.04892 -0.10949,-0.178916 -0.15633,-0.316814 -0.10913,-0.320272 -0.32148,-0.721307 -0.5415,-1.022183 -0.97933,-1.339127 -2.69501,-1.905795 -4.28865,-1.416471 -0.15903,0.04873 -0.38917,0.136819 -0.51163,0.195642 -0.13154,0.06303 -0.2691,0.108212 -0.33566,0.110217 -0.15591,0.0045 -0.39337,-0.09761 -0.49152,-0.211811 z m -1.98543,-4.825859 c -0.0966,-0.113769 -0.79082,-1.837038 -0.78256,-1.942416 0.004,-0.04841 0.0615,-0.207045 0.13206,-0.362808 0.1013,-0.225763 0.14157,-0.290414 0.21359,-0.350346 0.17095,-0.142186 1.36939,-0.580078 2.11299,-0.772049 1.18616,-0.306223 2.66813,-0.429272 3.90398,-0.324155 2.78046,0.236488 5.41489,1.442096 7.38381,3.37909 0.7307,0.718837 1.46609,1.662562 1.95143,2.504194 0.38363,0.665287 0.9102,1.827513 0.92834,2.049115 0.007,0.09338 -0.0109,0.167178 -0.10064,0.397765 -0.0607,0.160311 -0.13419,0.311835 -0.16578,0.348857 -0.0749,0.08623 -1.82272,0.803416 -1.95719,0.803174 -0.12523,-3e-4 -0.35047,-0.0965 -0.44606,-0.190547 -0.0514,-0.05053 -0.11902,-0.191578 -0.20677,-0.429964 -0.4611,-1.253643 -1.35461,-2.536017 -2.43164,-3.490093 -0.78328,-0.693858 -1.53432,-1.163489 -2.52755,-1.580546 -0.99324,-0.417061 -1.85443,-0.624377 -2.89825,-0.697738 -1.43532,-0.100855 -2.97646,0.159231 -4.19435,0.70787 -0.23162,0.104249 -0.37977,0.154646 -0.45172,0.153415 -0.14463,-0.0025 -0.38092,-0.105817 -0.46312,-0.202049 z m -1.98606,-4.89003 c -0.11008,-0.118987 -0.77065,-1.765456 -0.75963,-1.893173 0.005,-0.05673 0.0581,-0.205357 0.13338,-0.371373 0.10123,-0.225573 0.14158,-0.290418 0.21336,-0.350045 0.1303,-0.108339 1.17167,-0.510513 1.91833,-0.740895 3.07115,-0.947569 6.30558,-1.022849 9.38363,-0.218415 0.94272,0.246399 1.19279,0.333438 2.3334,0.812384 1.14064,0.478944 1.37785,0.596556 2.21391,1.097015 2.72959,1.634183 4.94071,3.996039 6.41468,6.852103 0.35834,0.694392 0.80045,1.719419 0.81437,1.888339 0.008,0.09299 -0.0111,0.166915 -0.10051,0.397432 -0.065,0.170305 -0.13432,0.312147 -0.17173,0.355265 -0.089,0.103764 -1.72387,0.779163 -1.89198,0.781613 -0.16111,0.0023 -0.38233,-0.09211 -0.49122,-0.209523 -0.0529,-0.05686 -0.16289,-0.279876 -0.30564,-0.618296 -0.60666,-1.438609 -1.31488,-2.594029 -2.30155,-3.755159 -1.22068,-1.436519 -2.57441,-2.514323 -4.33949,-3.45496 -0.65899,-0.351107 -1.90213,-0.838831 -2.73423,-1.072607 -1.58938,-0.446449 -3.21923,-0.610773 -4.88052,-0.492009 -1.51985,0.108637 -2.84059,0.412126 -4.29249,0.986334 -0.34145,0.135072 -0.578,0.212552 -0.6554,0.214759 -0.15728,0.0045 -0.39528,-0.09483 -0.50097,-0.208187 z" />
    </g>
    <g
       id="g10163"
       transform="translate(-110.35321,-24.522936)">
      <path
         sodipodi:nodetypes="ccccccscccccccccccccccccccscccccccsscccccccccccscccccccccccscccc"
         inkscape:connector-curvature="0"
         style="fill:#ffffff;stroke:none;stroke-width:0.26458332"
         id="path26127-7-5"
         d="m 101.99339,137.84381 c -0.0497,-0.14781 -0.0498,-1.88876 2e-5,-2.03291 0.0329,-0.0956 0.0678,-0.1379 0.26677,-0.32645 0.18805,-0.17957 0.24806,-0.22289 0.33961,-0.25178 0.12883,-0.0406 0.81117,-0.0338 1.25691,0.0127 0.98008,0.10218 2.03702,0.46773 2.87039,0.99273 0.45987,0.28969 0.70529,0.48944 1.1595,0.94366 0.45424,0.45424 0.654,0.69967 0.94369,1.15954 0.52497,0.83328 0.89028,1.88952 0.99282,2.87047 0.0526,0.50328 0.0538,1.15434 0.002,1.27442 -0.0573,0.13336 -0.40558,0.51561 -0.52697,0.57773 -0.11691,0.0598 -1.91492,0.0673 -2.07789,0.009 -0.14759,-0.0533 -0.32272,-0.226 -0.37814,-0.37249 -0.0233,-0.0624 -0.0337,-0.20704 -0.0249,-0.3524 0.0201,-0.33776 -0.0248,-0.78932 -0.11469,-1.15106 -0.40013,-1.61005 -1.77406,-2.78351 -3.4344,-2.93325 -0.16565,-0.015 -0.41201,-0.0205 -0.54762,-0.0124 -0.1456,0.009 -0.29004,-0.002 -0.35241,-0.0249 -0.14603,-0.0548 -0.32723,-0.23913 -0.3749,-0.38197 z m -0.0128,-5.2183 c -0.0464,-0.14185 -0.0373,-1.99968 0.0102,-2.09411 0.0219,-0.0434 0.13519,-0.16842 0.25947,-0.28591 0.17916,-0.17068 0.24089,-0.2153 0.33023,-0.24354 0.21203,-0.067 1.48706,-0.0191 2.24803,0.0844 1.21387,0.16513 2.63229,0.61172 3.73659,1.17643 2.4845,1.27051 4.46728,3.38292 5.55736,5.92069 0.40455,0.94179 0.7284,2.09355 0.85938,3.05622 0.10352,0.76096 0.15141,2.03601 0.0844,2.24802 -0.0283,0.0892 -0.0733,0.15063 -0.24361,0.33015 -0.11693,0.12542 -0.24216,0.23792 -0.28541,0.26025 -0.10199,0.0515 -1.99118,0.0544 -2.11557,0.003 -0.11581,-0.0476 -0.28793,-0.22189 -0.34086,-0.3451 -0.0284,-0.0662 -0.0377,-0.22236 -0.0288,-0.47623 0.0473,-1.33491 -0.29485,-2.85996 -0.93104,-4.15051 -0.46267,-0.93856 -0.98031,-1.65735 -1.74203,-2.41907 -0.76174,-0.76174 -1.48055,-1.27936 -2.41908,-1.74205 -1.29057,-0.63621 -2.8156,-0.97831 -4.15052,-0.93103 -0.25385,0.009 -0.41005,-4.7e-4 -0.4762,-0.0288 -0.13294,-0.057 -0.3126,-0.24202 -0.3523,-0.36219 z m 0.0109,-5.27794 c -0.0569,-0.15179 -0.0457,-1.92579 0.0128,-2.03985 0.0259,-0.0507 0.13149,-0.16812 0.26393,-0.29335 0.17902,-0.17053 0.2409,-0.2153 0.3299,-0.24335 0.1616,-0.051 1.27772,-0.0295 2.05605,0.0397 3.2014,0.28434 6.22406,1.43793 8.76923,3.34675 0.77952,0.58464 0.97808,0.75979 1.85283,1.63454 0.87477,0.87477 1.04988,1.07336 1.63456,1.85284 1.90879,2.54515 3.0624,5.56783 3.34671,8.76921 0.0691,0.77834 0.0907,1.89444 0.0397,2.05607 -0.0281,0.089 -0.0734,0.15032 -0.24335,0.3299 -0.12458,0.13307 -0.2424,0.23816 -0.29334,0.26393 -0.12164,0.0624 -1.89051,0.0693 -2.04705,0.008 -0.15002,-0.0588 -0.31911,-0.22987 -0.3755,-0.37974 -0.0274,-0.0726 -0.0449,-0.32069 -0.0491,-0.68797 -0.0175,-1.56119 -0.23613,-2.89864 -0.71037,-4.34669 -0.58671,-1.79148 -1.43226,-3.30122 -2.71047,-4.83954 -0.47725,-0.57426 -1.44359,-1.49592 -2.12546,-2.02704 -1.30248,-1.0144 -2.74912,-1.78293 -4.33193,-2.3013 -1.44804,-0.47425 -2.78546,-0.69281 -4.34668,-0.71036 -0.36718,-0.004 -0.61546,-0.0218 -0.68794,-0.0491 -0.14729,-0.0554 -0.33006,-0.23729 -0.38503,-0.3822 z" />
      <rect
         inkscape:export-ydpi="155"
         inkscape:export-xdpi="155"
         inkscape:export-filename="/home/xavier/Escriptori/chronojump-logo-2013-wallpaper-prova-2-ratlles-4-punts.png"
         y="162.29997"
         x="81.015709"
         height="2.1101584"
         width="2.4824967"
         id="rect8047-1-7-1-5-3-3"
         style="fill:#ffffff;fill-opacity:1;stroke:none;stroke-width:0.28222224" />
      <rect
         inkscape:export-ydpi="155"
         inkscape:export-xdpi="155"
         inkscape:export-filename="/home/xavier/Escriptori/chronojump-logo-2013-wallpaper-prova-2-ratlles-4-punts.png"
         y="162.29997"
         x="102.43599"
         height="2.1101584"
         width="2.4824967"
         id="rect8047-8-8-9-8-6-5-5"
         style="fill:#ffffff;fill-opacity:1;stroke:none;stroke-width:0.28222224" />
      <rect
         inkscape:export-ydpi="155"
         inkscape:export-xdpi="155"
         inkscape:export-filename="/home/xavier/Escriptori/chronojump-logo-2013-wallpaper-prova-2-ratlles-4-punts.png"
         y="162.29997"
         x="88.155853"
         height="2.1101584"
         width="2.4824967"
         id="rect8047-8-5-9-9-1-2-6-6"
         style="fill:#ffffff;fill-opacity:1;stroke:none;stroke-width:0.28222224" />
      <rect
         inkscape:export-ydpi="155"
         inkscape:export-xdpi="155"
         inkscape:export-filename="/home/xavier/Escriptori/chronojump-logo-2013-wallpaper-prova-2-ratlles-4-punts.png"
         y="162.77226"
         x="95.295853"
         height="1.6378713"
         width="2.4824967"
         id="rect8047-8-5-8-9-8-3-5-2-2"
         style="fill:#ffffff;fill-opacity:1;stroke:none;stroke-width:0.28222224" />
      <path
         inkscape:export-ydpi="155.58435"
         inkscape:export-xdpi="155.58435"
         inkscape:export-filename="/home/xavier/Escriptori/chronojump-logo-2013-wallpaper-prova-4-punts.png"
         sodipodi:nodetypes="cccccccccccccccc"
         id="path3623-5-9-4-5-5-2-3-0-0-42-7-9-8-1-9-0-6-5-9-9"
         d="m 53.607453,146.15938 c 7.6999,13.28059 22.62732,-10.68772 23.99733,-11.16228 1.26085,-1.58502 6.65059,-3.51801 13.23988,6.69736 1.10406,1.40815 4.31898,2.47737 5.95797,-0.79731 -0.25953,0.30444 -2.53286,-1.97826 -3.97195,-3.18922 1.71365,0.7079 3.18487,0.24776 5.29595,2.87031 1.51903,0.0569 3.391557,0.31671 5.792467,2.07301 1.806,2.05678 -3.5207,1.36457 -5.626967,1.91352 -3.97198,2.27533 -3.48567,6.56356 -6.45446,5.58117 -1.93715,5.95196 -3.56375,6.09166 -4.63396,4.9433 4.52736,-3.77007 2.12013,-5.56701 0,-5.58115 -2.96577,0.78218 -2.53204,5.13766 -0.66199,11.00283 5.40631,-0.0344 9.1576,1.91717 13.07441,2.07301 -3.06112,2.17929 -5.04407,-0.74416 -14.06742,-0.15946 -2.24332,-8.48718 -7.29356,-15.96012 -14.56388,-15.3083 -13.60291,10.24414 -15.46081,5.06352 -17.37738,-0.95679 z"
         style="fill:#ffcc01;fill-opacity:1;stroke:none;stroke-width:0.28222224"
         inkscape:connector-curvature="0" />
    </g>
    <g
       id="g10177"
       transform="translate(-114.09977,-27.928899)">
      <path
         sodipodi:nodetypes="cccccccccccccccccccc"
         id="path5017-3"
         d="m 123.06238,198.22615 c -0.40756,-10.45081 -8.85334,-18.89292 -19.30017,-19.30018 -0.39285,-0.0153 -0.71645,0.30031 -0.71492,0.69348 l 0.008,2.09022 c 0.001,0.37508 0.3,0.68183 0.67478,0.69807 8.56805,0.37508 15.4755,7.28069 15.85059,15.85059 0.0163,0.37477 0.32329,0.67324 0.69806,0.67477 l 2.09023,0.008 c 0.39285,0.002 0.70848,-0.32237 0.69318,-0.7152 z m -6.91848,0.0395 c -0.40848,-6.65557 -5.77301,-12.01336 -12.42122,-12.42123 -0.39837,-0.0245 -0.72963,0.29326 -0.72688,0.69194 l 0.0138,2.09696 c 0.002,0.36528 0.28622,0.67356 0.65119,0.70022 4.79639,0.34873 8.64618,4.20833 8.99369,8.99369 0.0267,0.36496 0.33462,0.64904 0.7002,0.65118 l 2.09698,0.0138 c 0.39898,0.003 0.71676,-0.32881 0.69225,-0.72655 z"
         style="fill:#ffffff;stroke-width:0.26458332"
         inkscape:connector-curvature="0" />
      <rect
         inkscape:export-ydpi="155"
         inkscape:export-xdpi="155"
         inkscape:export-filename="/home/xavier/Escriptori/chronojump-logo-2013-wallpaper-prova-2-ratlles-4-punts.png"
         y="217.90913"
         x="86.084023"
         height="2.1101584"
         width="2.4824967"
         id="rect8047-1-7-1-5-3-2"
         style="fill:#ffffff;fill-opacity:1;stroke:none;stroke-width:0.28222224" />
      <rect
         inkscape:export-ydpi="155"
         inkscape:export-xdpi="155"
         inkscape:export-filename="/home/xavier/Escriptori/chronojump-logo-2013-wallpaper-prova-2-ratlles-4-punts.png"
         y="217.90913"
         x="107.5043"
         height="2.1101584"
         width="2.4824967"
         id="rect8047-8-8-9-8-6-5-7"
         style="fill:#ffffff;fill-opacity:1;stroke:none;stroke-width:0.28222224" />
      <rect
         inkscape:export-ydpi="155"
         inkscape:export-xdpi="155"
         inkscape:export-filename="/home/xavier/Escriptori/chronojump-logo-2013-wallpaper-prova-2-ratlles-4-punts.png"
         y="217.90913"
         x="93.224167"
         height="2.1101584"
         width="2.4824967"
         id="rect8047-8-5-9-9-1-2-6-0"
         style="fill:#ffffff;fill-opacity:1;stroke:none;stroke-width:0.28222224" />
      <rect
         inkscape:export-ydpi="155"
         inkscape:export-xdpi="155"
         inkscape:export-filename="/home/xavier/Escriptori/chronojump-logo-2013-wallpaper-prova-2-ratlles-4-punts.png"
         y="218.38142"
         x="100.36417"
         height="1.6378713"
         width="2.4824967"
         id="rect8047-8-5-8-9-8-3-5-2-9"
         style="fill:#ffffff;fill-opacity:1;stroke:none;stroke-width:0.28222224" />
      <path
         inkscape:export-ydpi="155.58435"
         inkscape:export-xdpi="155.58435"
         inkscape:export-filename="/home/xavier/Escriptori/chronojump-logo-2013-wallpaper-prova-4-punts.png"
         sodipodi:nodetypes="cccccccccccccccc"
         id="path3623-5-9-4-5-5-2-3-0-0-42-7-9-8-1-9-0-6-5-9-3"
         d="m 58.675766,201.76854 c 7.699899,13.28058 22.627319,-10.68773 23.997329,-11.16229 1.26085,-1.58502 6.65059,-3.51801 13.23988,6.69736 1.10406,1.40815 4.318975,2.47738 5.957965,-0.79731 -0.25953,0.30444 -2.532855,-1.97826 -3.971945,-3.18922 1.71365,0.7079 3.184865,0.24776 5.295945,2.87031 1.51903,0.0569 3.39156,0.31671 5.79247,2.07301 1.80599,2.05678 -3.5207,1.36457 -5.62697,1.91352 -3.971975,2.27534 -3.485675,6.56356 -6.454455,5.58117 -1.93715,5.95196 -3.56375,6.09166 -4.63396,4.9433 4.52736,-3.77007 2.12013,-5.56701 0,-5.58115 -2.96577,0.78218 -2.53204,5.13766 -0.66199,11.00283 5.40631,-0.0344 9.157595,1.91717 13.074405,2.07301 -3.06112,2.17929 -5.044065,-0.74416 -14.067415,-0.15946 -2.24332,-8.48718 -7.29356,-15.96012 -14.563884,-15.30829 -13.602906,10.24413 -15.460802,5.06351 -17.377375,-0.95679 z"
         style="fill:#ffcc01;fill-opacity:1;stroke:none;stroke-width:0.28222224"
         inkscape:connector-curvature="0" />
    </g>
    <g
       id="g10209"
       transform="translate(7.4931193,-67.097477)">
      <rect
         inkscape:export-ydpi="155"
         inkscape:export-xdpi="155"
         inkscape:export-filename="/home/xavier/Escriptori/chronojump-logo-2013-wallpaper-prova-2-ratlles-4-punts.png"
         y="111.30247"
         x="192.00949"
         height="2.1101584"
         width="2.4824967"
         id="rect8047-1-7-1-5-3-0"
         style="fill:#ffffff;fill-opacity:1;stroke:none;stroke-width:0.28222224" />
      <rect
         inkscape:export-ydpi="155"
         inkscape:export-xdpi="155"
         inkscape:export-filename="/home/xavier/Escriptori/chronojump-logo-2013-wallpaper-prova-2-ratlles-4-punts.png"
         y="111.30247"
         x="213.42975"
         height="2.1101584"
         width="2.4824967"
         id="rect8047-8-8-9-8-6-5-6"
         style="fill:#ffffff;fill-opacity:1;stroke:none;stroke-width:0.28222224" />
      <rect
         inkscape:export-ydpi="155"
         inkscape:export-xdpi="155"
         inkscape:export-filename="/home/xavier/Escriptori/chronojump-logo-2013-wallpaper-prova-2-ratlles-4-punts.png"
         y="111.30247"
         x="199.14963"
         height="2.1101584"
         width="2.4824967"
         id="rect8047-8-5-9-9-1-2-6-2"
         style="fill:#ffffff;fill-opacity:1;stroke:none;stroke-width:0.28222224" />
      <rect
         inkscape:export-ydpi="155"
         inkscape:export-xdpi="155"
         inkscape:export-filename="/home/xavier/Escriptori/chronojump-logo-2013-wallpaper-prova-2-ratlles-4-punts.png"
         y="111.77476"
         x="206.28964"
         height="1.6378713"
         width="2.4824967"
         id="rect8047-8-5-8-9-8-3-5-2-6"
         style="fill:#ffffff;fill-opacity:1;stroke:none;stroke-width:0.28222224" />
      <path
         inkscape:export-ydpi="155.58435"
         inkscape:export-xdpi="155.58435"
         inkscape:export-filename="/home/xavier/Escriptori/chronojump-logo-2013-wallpaper-prova-4-punts.png"
         sodipodi:nodetypes="cccccccccccccccc"
         id="path3623-5-9-4-5-5-2-3-0-0-42-7-9-8-1-9-0-6-5-9-1"
         d="m 164.60123,95.161883 c 7.6999,13.280577 22.62731,-10.68773 23.99733,-11.16228 1.26084,-1.58502 6.65059,-3.51801 13.23988,6.69736 1.10405,1.40815 4.31898,2.47737 5.95796,-0.79731 -0.25953,0.30443 -2.53285,-1.97826 -3.97195,-3.18922 1.71366,0.7079 3.18487,0.24776 5.29596,2.87031 1.51902,0.0569 3.39156,0.31671 5.79247,2.07301 1.80599,2.05678 -3.52071,1.36457 -5.62698,1.91352 -3.97198,2.27533 -3.48567,6.563557 -6.45445,5.58117 -1.93715,5.951957 -3.56376,6.091657 -4.63397,4.943297 4.52737,-3.77007 2.12013,-5.567007 0,-5.581147 -2.96577,0.78218 -2.53203,5.137657 -0.66199,11.002827 5.40631,-0.0344 9.1576,1.91717 13.07441,2.07301 -3.06112,2.17928 -5.04407,-0.74417 -14.06741,-0.15947 -2.24333,-8.48718 -7.29356,-15.960107 -14.56389,-15.308287 -13.6029,10.244137 -15.4608,5.063507 -17.37737,-0.95679 z"
         style="fill:#ffcc01;fill-opacity:1;stroke:none;stroke-width:0.28222224"
         inkscape:connector-curvature="0" />
      <path
         sodipodi:nodetypes="ccccccscccccccccccccccccccscccccccsscccccccccccscccccccccccscccc"
         inkscape:connector-curvature="0"
         style="fill:#ffffff;stroke:none;stroke-width:0.26458332"
         id="path26127-7-8"
         d="m 160.46412,95.239373 c -0.15591,-0.0039 -1.79167,-0.599852 -1.91007,-0.696016 -0.0787,-0.06342 -0.10634,-0.1109 -0.21538,-0.362409 -0.10434,-0.238163 -0.12449,-0.30938 -0.1203,-0.405286 0.005,-0.134979 0.246,-0.773707 0.44227,-1.176608 0.43154,-0.885873 1.13685,-1.753784 1.91545,-2.357055 0.42958,-0.33293 0.70132,-0.495111 1.28359,-0.766369 0.58231,-0.271268 0.8813,-0.374934 1.41256,-0.489677 0.96264,-0.20795 2.08013,-0.18957 3.03691,0.04992 0.49086,0.122875 1.103,0.344646 1.19808,0.434426 0.10543,0.09979 0.34559,0.557594 0.36241,0.692912 0.0161,0.130263 -0.59232,1.822263 -0.70332,1.955275 -0.10017,0.120765 -0.32285,0.225814 -0.47943,0.227768 -0.0666,6.39e-4 -0.20606,-0.03923 -0.33963,-0.09726 -0.31047,-0.134524 -0.75011,-0.246926 -1.12077,-0.286322 -1.64973,-0.175276 -3.22265,0.713881 -3.93177,2.222607 -0.0709,0.150468 -0.16036,0.380083 -0.19914,0.510284 -0.0418,0.139733 -0.1008,0.27196 -0.14406,0.322586 -0.10187,0.118107 -0.33671,0.225596 -0.48724,0.221475 z m -4.90733,-1.774526 c -0.14917,-0.005 -1.89161,-0.649565 -1.96407,-0.726524 -0.0331,-0.0355 -0.11192,-0.184717 -0.17981,-0.341675 -0.099,-0.226765 -0.11981,-0.30004 -0.11576,-0.393645 0.009,-0.222177 0.49118,-1.403732 0.84898,-2.083274 0.57074,-1.083976 1.47595,-2.263796 2.3846,-3.108029 2.04431,-1.899377 4.7079,-3.039128 7.46551,-3.194512 1.02339,-0.05767 2.21642,0.03237 3.16576,0.238841 0.75043,0.163262 1.96481,0.554781 2.14106,0.69033 0.0739,0.0576 0.11643,0.120461 0.22681,0.341916 0.0779,0.15271 0.14063,0.308978 0.14681,0.357258 0.0134,0.113398 -0.63062,1.88947 -0.7212,1.988856 -0.0844,0.09251 -0.30705,0.194578 -0.44094,0.202115 -0.0719,0.0041 -0.22184,-0.04068 -0.4573,-0.135983 -1.23806,-0.501447 -2.7881,-0.702105 -4.21845,-0.546186 -1.04025,0.113391 -1.89282,0.35366 -2.8693,0.808564 -0.97649,0.45491 -1.70892,0.953069 -2.46497,1.676487 -1.03959,0.994763 -1.88314,2.31051 -2.29574,3.58095 -0.0786,0.24155 -0.14083,0.38511 -0.19011,0.437547 -0.0987,0.105726 -0.33442,0.210853 -0.46093,0.207013 z m -4.95526,-1.817198 c -0.1621,0.0015 -1.82506,-0.616375 -1.91221,-0.710398 -0.0386,-0.04182 -0.11295,-0.181063 -0.18525,-0.348405 -0.0989,-0.226586 -0.11982,-0.300055 -0.11569,-0.393275 0.007,-0.169313 0.40975,-1.210596 0.74116,-1.918226 1.36319,-2.910594 3.48191,-5.35564 6.14675,-7.0935 0.81618,-0.532243 1.04872,-0.65886 2.1701,-1.18126 1.12139,-0.52243 1.36793,-0.618963 2.30049,-0.901446 3.04483,-0.922077 6.27979,-0.971129 9.38505,-0.14223 0.75496,0.201547 1.811,0.563361 1.94542,0.666618 0.0742,0.0566 0.11609,0.120428 0.22664,0.341592 0.0824,0.162619 0.14078,0.30929 0.14756,0.365973 0.0169,0.135637 -0.58212,1.799988 -0.69332,1.926087 -0.10678,0.120618 -0.32522,0.22112 -0.48535,0.222792 -0.0777,8.74e-4 -0.3167,-0.06758 -0.66319,-0.189407 -1.47285,-0.518041 -2.80433,-0.770514 -4.32722,-0.820691 -1.8841,-0.06208 -3.59207,0.215498 -5.47505,0.889806 -0.70296,0.251804 -1.89975,0.844212 -2.63223,1.303046 -1.39901,0.876473 -2.61637,1.972576 -3.64531,3.282264 -0.94134,1.198175 -1.60457,2.379945 -2.15557,3.840812 -0.12956,0.343579 -0.23123,0.570784 -0.28162,0.629569 -0.10276,0.119125 -0.33593,0.228892 -0.49092,0.230904 z" />
    </g>
    <g
       id="g10201"
       transform="translate(-1.021789,-75.612385)">
      <rect
         inkscape:export-ydpi="155"
         inkscape:export-xdpi="155"
         inkscape:export-filename="/home/xavier/Escriptori/chronojump-logo-2013-wallpaper-prova-2-ratlles-4-punts.png"
         y="179.57787"
         x="184.92593"
         height="2.1101584"
         width="2.4824967"
         id="rect8047-1-7-1-5-3-0-7"
         style="fill:#ffffff;fill-opacity:1;stroke:none;stroke-width:0.28222224" />
      <rect
         inkscape:export-ydpi="155"
         inkscape:export-xdpi="155"
         inkscape:export-filename="/home/xavier/Escriptori/chronojump-logo-2013-wallpaper-prova-2-ratlles-4-punts.png"
         y="179.57787"
         x="206.34619"
         height="2.1101584"
         width="2.4824967"
         id="rect8047-8-8-9-8-6-5-6-9"
         style="fill:#ffffff;fill-opacity:1;stroke:none;stroke-width:0.28222224" />
      <rect
         inkscape:export-ydpi="155"
         inkscape:export-xdpi="155"
         inkscape:export-filename="/home/xavier/Escriptori/chronojump-logo-2013-wallpaper-prova-2-ratlles-4-punts.png"
         y="179.57787"
         x="192.06607"
         height="2.1101584"
         width="2.4824967"
         id="rect8047-8-5-9-9-1-2-6-2-2"
         style="fill:#ffffff;fill-opacity:1;stroke:none;stroke-width:0.28222224" />
      <rect
         inkscape:export-ydpi="155"
         inkscape:export-xdpi="155"
         inkscape:export-filename="/home/xavier/Escriptori/chronojump-logo-2013-wallpaper-prova-2-ratlles-4-punts.png"
         y="180.05016"
         x="199.20609"
         height="1.6378713"
         width="2.4824967"
         id="rect8047-8-5-8-9-8-3-5-2-6-0"
         style="fill:#ffffff;fill-opacity:1;stroke:none;stroke-width:0.28222224" />
      <path
         inkscape:export-ydpi="155.58435"
         inkscape:export-xdpi="155.58435"
         inkscape:export-filename="/home/xavier/Escriptori/chronojump-logo-2013-wallpaper-prova-4-punts.png"
         sodipodi:nodetypes="cccccccccccccccc"
         id="path3623-5-9-4-5-5-2-3-0-0-42-7-9-8-1-9-0-6-5-9-1-2"
         d="m 157.51767,163.43728 c 7.6999,13.28057 22.62731,-10.68773 23.99733,-11.16228 1.26084,-1.58502 6.65059,-3.51801 13.23988,6.69736 1.10405,1.40815 4.31898,2.47737 5.95796,-0.79731 -0.25953,0.30443 -2.53285,-1.97826 -3.97195,-3.18922 1.71366,0.7079 3.18487,0.24776 5.29596,2.87031 1.51902,0.0569 3.39156,0.31671 5.79247,2.07301 1.80599,2.05678 -3.52071,1.36457 -5.62698,1.91352 -3.97198,2.27533 -3.48567,6.56355 -6.45445,5.58117 -1.93715,5.95195 -3.56376,6.09165 -4.63397,4.94329 4.52737,-3.77007 2.12013,-5.567 0,-5.58114 -2.96577,0.78218 -2.53203,5.13765 -0.66199,11.00282 5.40631,-0.0344 9.1576,1.91717 13.07441,2.07301 -3.06112,2.17928 -5.04407,-0.74417 -14.06741,-0.15947 -2.24333,-8.48718 -7.29356,-15.9601 -14.56389,-15.30828 -13.6029,10.24413 -15.4608,5.0635 -17.37737,-0.95679 z"
         style="fill:#ffcc01;fill-opacity:1;stroke:none;stroke-width:0.28222224"
         inkscape:connector-curvature="0" />
      <path
         sodipodi:nodetypes="ccccccscccccccccccccccccccscccccccsscccccccccccscccccccccccscccc"
         inkscape:connector-curvature="0"
         style="fill:#ffffff;stroke:none;stroke-width:0.26458332"
         id="path26127-7-8-3"
         d="m 180.45659,148.04145 c -0.1399,-0.0689 -1.37571,-1.29512 -1.44294,-1.43203 -0.045,-0.0905 -0.0501,-0.14524 -0.0438,-0.4193 0.005,-0.25995 0.0161,-0.3331 0.0605,-0.41842 0.0611,-0.12047 0.54743,-0.59953 0.89441,-0.88318 0.7629,-0.62371 1.76687,-1.11642 2.72655,-1.33812 0.52954,-0.1224 0.84421,-0.15586 1.48657,-0.15831 0.64239,-0.002 0.95731,0.0286 1.48778,0.14699 0.96124,0.21436 1.96829,0.69909 2.73681,1.31727 0.39427,0.31715 0.85725,0.77492 0.90598,0.89627 0.054,0.13478 0.0803,0.65108 0.0389,0.78099 -0.04,0.12504 -1.3011,1.40667 -1.45759,1.48096 -0.14155,0.0677 -0.38775,0.0698 -0.53076,0.006 -0.0607,-0.0273 -0.17069,-0.12189 -0.26765,-0.2306 -0.22558,-0.25219 -0.57773,-0.53839 -0.89781,-0.72942 -1.42465,-0.85011 -3.22537,-0.70148 -4.50119,0.37153 -0.12741,0.10694 -0.30481,0.27798 -0.39456,0.37997 -0.0965,0.10938 -0.20544,0.20474 -0.26593,0.23259 -0.14196,0.0646 -0.40024,0.0639 -0.5352,-0.003 z m -3.71295,-3.66673 c -0.13335,-0.067 -1.44564,-1.38212 -1.4792,-1.48234 -0.0152,-0.0461 -0.0243,-0.21462 -0.0202,-0.38558 0.005,-0.24738 0.0167,-0.32264 0.0597,-0.40594 0.10123,-0.19798 1.03396,-1.06896 1.64347,-1.53617 0.97228,-0.74527 2.28841,-1.43749 3.46712,-1.82354 2.65188,-0.86853 5.54794,-0.78792 8.11711,0.22595 0.95347,0.37623 1.99908,0.95772 2.77468,1.54279 0.61307,0.46255 1.55182,1.3267 1.6551,1.52361 0.043,0.0832 0.0553,0.15815 0.0628,0.40548 0.007,0.1713 -0.002,0.33947 -0.016,0.38592 -0.0353,0.10858 -1.36401,1.45164 -1.48789,1.50394 -0.11538,0.0487 -0.36032,0.0481 -0.48506,-0.001 -0.067,-0.0264 -0.18439,-0.12987 -0.35829,-0.31502 -0.91423,-0.97387 -2.23772,-1.80529 -3.60187,-2.26278 -0.99211,-0.33272 -1.86693,-0.47162 -2.94416,-0.46753 -1.07725,0.004 -1.95099,0.1497 -2.94052,0.48997 -1.36065,0.46788 -2.67773,1.30937 -3.58449,2.29019 -0.17255,0.18643 -0.28917,0.29073 -0.35589,0.31771 -0.13391,0.0547 -0.39199,0.0514 -0.50526,-0.005 z m -3.73859,-3.72555 c -0.14803,-0.0661 -1.39912,-1.3241 -1.43887,-1.44598 -0.0175,-0.0541 -0.0268,-0.21172 -0.0223,-0.39396 0.005,-0.24718 0.0167,-0.32266 0.0597,-0.40557 0.0773,-0.15082 0.87911,-0.92768 1.47642,-1.43145 2.45692,-2.07207 5.40491,-3.40494 8.55263,-3.86691 0.96406,-0.14148 1.22825,-0.15906 2.46533,-0.16376 1.23711,-0.005 1.50142,0.0109 2.46655,0.14498 3.15109,0.43797 6.10919,1.74833 8.5818,3.80159 0.60113,0.49923 1.40855,1.27008 1.48737,1.42014 0.0436,0.0824 0.055,0.15799 0.0627,0.40511 0.007,0.18218 -0.002,0.33982 -0.0193,0.39413 -0.0414,0.13024 -1.28249,1.39069 -1.43628,1.45863 -0.14749,0.0648 -0.38794,0.0646 -0.53404,-0.001 -0.0709,-0.0318 -0.25927,-0.19404 -0.52289,-0.44975 -1.12048,-1.08729 -2.22379,-1.87423 -3.58566,-2.55762 -1.68488,-0.8455 -3.35209,-1.30879 -5.34438,-1.48511 -0.7438,-0.0657 -2.07868,-0.0291 -2.93599,0.0808 -1.63748,0.20994 -3.20201,0.6954 -4.68489,1.45373 -1.35663,0.69377 -2.45385,1.48911 -3.56605,2.58489 -0.26155,0.25773 -0.44903,0.42147 -0.5194,0.45373 -0.14321,0.0652 -0.40091,0.0671 -0.5425,0.004 z" />
    </g>
    <g
       id="g10193"
       transform="translate(-10.21789,-78.337156)">
      <rect
         inkscape:export-ydpi="155"
         inkscape:export-xdpi="155"
         inkscape:export-filename="/home/xavier/Escriptori/chronojump-logo-2013-wallpaper-prova-2-ratlles-4-punts.png"
         y="235.43565"
         x="202.63695"
         height="2.1101584"
         width="2.4824967"
         id="rect8047-1-7-1-5-3-0-75"
         style="fill:#ffffff;fill-opacity:1;stroke:none;stroke-width:0.28222224" />
      <rect
         inkscape:export-ydpi="155"
         inkscape:export-xdpi="155"
         inkscape:export-filename="/home/xavier/Escriptori/chronojump-logo-2013-wallpaper-prova-2-ratlles-4-punts.png"
         y="235.43565"
         x="224.05721"
         height="2.1101584"
         width="2.4824967"
         id="rect8047-8-8-9-8-6-5-6-92"
         style="fill:#ffffff;fill-opacity:1;stroke:none;stroke-width:0.28222224" />
      <rect
         inkscape:export-ydpi="155"
         inkscape:export-xdpi="155"
         inkscape:export-filename="/home/xavier/Escriptori/chronojump-logo-2013-wallpaper-prova-2-ratlles-4-punts.png"
         y="235.43565"
         x="209.77708"
         height="2.1101584"
         width="2.4824967"
         id="rect8047-8-5-9-9-1-2-6-2-28"
         style="fill:#ffffff;fill-opacity:1;stroke:none;stroke-width:0.28222224" />
      <rect
         inkscape:export-ydpi="155"
         inkscape:export-xdpi="155"
         inkscape:export-filename="/home/xavier/Escriptori/chronojump-logo-2013-wallpaper-prova-2-ratlles-4-punts.png"
         y="235.90794"
         x="216.9171"
         height="1.6378713"
         width="2.4824967"
         id="rect8047-8-5-8-9-8-3-5-2-6-9"
         style="fill:#ffffff;fill-opacity:1;stroke:none;stroke-width:0.28222224" />
      <path
         inkscape:export-ydpi="155.58435"
         inkscape:export-xdpi="155.58435"
         inkscape:export-filename="/home/xavier/Escriptori/chronojump-logo-2013-wallpaper-prova-4-punts.png"
         sodipodi:nodetypes="cccccccccccccccc"
         id="path3623-5-9-4-5-5-2-3-0-0-42-7-9-8-1-9-0-6-5-9-1-7"
         d="m 175.22868,219.29507 c 7.6999,13.28058 22.62731,-10.68773 23.99733,-11.16228 1.26084,-1.58502 6.65059,-3.51801 13.23988,6.69736 1.10405,1.40815 4.31898,2.47737 5.95796,-0.79731 -0.25953,0.30443 -2.53285,-1.97826 -3.97195,-3.18922 1.71366,0.7079 3.18487,0.24776 5.29596,2.87031 1.51902,0.0569 3.39156,0.31671 5.79247,2.07301 1.80599,2.05678 -3.52071,1.36457 -5.62698,1.91352 -3.97198,2.27533 -3.48567,6.56356 -6.45445,5.58117 -1.93715,5.95196 -3.56376,6.09166 -4.63397,4.9433 4.52737,-3.77007 2.12013,-5.56701 0,-5.58115 -2.96577,0.78218 -2.53203,5.13766 -0.66199,11.00283 5.40631,-0.0344 9.1576,1.91717 13.07441,2.07301 -3.06112,2.17928 -5.04407,-0.74417 -14.06741,-0.15947 -2.24333,-8.48718 -7.29356,-15.96011 -14.56389,-15.30829 -13.6029,10.24414 -15.4608,5.06351 -17.37737,-0.95679 z"
         style="fill:#ffcc01;fill-opacity:1;stroke:none;stroke-width:0.28222224"
         inkscape:connector-curvature="0" />
      <path
         sodipodi:nodetypes="ccccccscccccccccccccccccccscccccccsscccccccccccscccccccccccscccc"
         inkscape:connector-curvature="0"
         style="fill:#ffffff;stroke:none;stroke-width:0.26458332"
         id="path26127-7-8-36"
         d="m 191.49817,236.16679 c 0.0363,0.15167 -0.11749,1.88576 -0.17987,2.02496 -0.041,0.0924 -0.0797,0.13134 -0.2946,0.30156 -0.2032,0.16223 -0.26681,0.20006 -0.36056,0.22075 -0.1317,0.03 -0.81097,-0.0381 -1.25086,-0.12387 -0.9672,-0.18848 -1.98765,-0.6461 -2.77131,-1.24278 -0.43245,-0.32918 -0.65923,-0.54991 -1.07148,-1.04252 -0.41227,-0.49266 -0.58953,-0.7548 -0.83741,-1.23849 -0.44917,-0.87645 -0.71961,-1.96088 -0.73499,-2.94705 -0.008,-0.50595 0.0485,-1.15457 0.11075,-1.26959 0.0692,-0.1276 0.4496,-0.4777 0.57601,-0.52885 0.1217,-0.0491 1.91337,0.10233 2.07052,0.17527 0.14251,0.0656 0.30143,0.25369 0.3437,0.40447 0.0178,0.0642 0.0153,0.2092 -0.006,0.35324 -0.0499,0.33466 -0.0451,0.78841 0.0124,1.1567 0.25612,1.63912 1.52084,2.92952 3.16141,3.22556 0.16367,0.0297 0.40858,0.0569 0.54438,0.0608 0.14579,0.004 0.28875,0.0273 0.34883,0.056 0.14038,0.068 0.3048,0.26714 0.33963,0.41364 z m -0.44891,5.19897 c 0.0336,0.14542 -0.13976,1.99515 -0.19543,2.085 -0.0258,0.0411 -0.1496,0.15577 -0.28374,0.26185 -0.19357,0.15413 -0.25899,0.19313 -0.35048,0.21336 -0.21697,0.0486 -1.48292,-0.11255 -2.23175,-0.28299 -1.1945,-0.27188 -2.56786,-0.8422 -3.61787,-1.50239 -2.36235,-1.48531 -4.15047,-3.76486 -5.01177,-6.38912 -0.31968,-0.97389 -0.5403,-2.1498 -0.58568,-3.12027 -0.0358,-0.76714 0.0293,-2.04142 0.11481,-2.24666 0.0366,-0.0863 0.0864,-0.14356 0.27186,-0.30732 0.12745,-0.11465 0.26225,-0.21556 0.3073,-0.23398 0.10611,-0.0422 1.98819,0.122 2.10758,0.18389 0.11114,0.0577 0.26718,0.24648 0.30899,0.3739 0.0224,0.0684 0.0179,0.22483 -0.0134,0.4769 -0.16519,1.3255 0.0407,2.87485 0.56022,4.21661 0.37783,0.97581 0.82985,1.73758 1.52119,2.56371 0.69136,0.82614 1.36156,1.40532 2.25549,1.94923 1.22921,0.74788 2.718,1.22356 4.05188,1.29456 0.25364,0.0137 0.4084,0.0368 0.47176,0.0708 0.12761,0.0681 0.28998,0.26873 0.31889,0.39195 z m -0.47779,5.25629 c 0.0428,0.15636 -0.12485,1.92228 -0.19321,2.03073 -0.0304,0.0481 -0.14581,0.15583 -0.28884,0.26884 -0.19342,0.15399 -0.25901,0.19315 -0.35014,0.2132 -0.16539,0.0369 -1.27532,-0.0837 -2.04448,-0.22139 -3.1637,-0.56644 -6.07244,-1.98292 -8.43877,-4.10943 -0.72473,-0.65131 -0.90703,-0.84333 -1.70096,-1.79205 -0.79396,-0.94873 -0.95081,-1.16203 -1.46424,-1.99019 -1.67614,-2.70403 -2.55782,-5.81691 -2.55779,-9.0309 3e-5,-0.7814 0.0772,-1.89503 0.14235,-2.05153 0.0356,-0.0863 0.0864,-0.14322 0.27159,-0.30707 0.13587,-0.12155 0.26252,-0.21578 0.31553,-0.23695 0.1267,-0.0513 1.88923,0.0982 2.03974,0.17314 0.14408,0.0721 0.29752,0.25719 0.34043,0.41147 0.0209,0.0748 0.0164,0.32342 -0.012,0.68961 -0.12067,1.55662 -0.0212,2.90817 0.32304,4.39249 0.42591,1.83638 1.1346,3.41498 2.27171,5.06037 0.42457,0.61424 1.30559,1.61776 1.93781,2.20713 1.20762,1.12565 2.5806,2.01915 4.11134,2.67552 1.40041,0.60049 2.71325,0.93651 4.2668,1.09212 0.36537,0.0366 0.61112,0.0762 0.6809,0.10973 0.14161,0.0686 0.30779,0.26554 0.3497,0.41477 z" />
    </g>
    <g
       id="g10185"
       transform="translate(-0.68119266,-24.863532)">
      <path
         id="path5017-7"
         d="M 8.0073726,95.496956 C 7.6296022,85.809897 -0.19896366,77.984744 -9.8823313,77.607249 c -0.3641437,-0.0142 -0.6640947,0.278363 -0.6626747,0.642793 l 0.0077,1.93747 c 0.0012,0.347671 0.27808,0.631999 0.6254667,0.647053 7.941893,0.34767 14.3445414,6.748617 14.6922213,14.692221 0.015089,0.347382 0.2996643,0.624043 0.6470471,0.625465 l 1.9374698,0.0077 c 0.364147,0.0015 0.6567094,-0.298815 0.6425274,-0.66294 z M -6.5365676,92.151193 c -1.0040977,-1.004097 -2.631673,-1.004098 -3.6357724,3e-6 -1.0041,1.004099 -1.004098,2.63167 0,3.635769 1.0040984,1.004097 2.6316724,1.004104 3.6357724,7e-6 1.0041012,-1.004106 1.0040997,-2.631679 0,-3.635779 z m 8.1310704,3.382411 C 1.2158691,89.364432 -3.7566198,84.398193 -9.9189713,84.020128 c -0.3692577,-0.02273 -0.6763117,0.27183 -0.6737577,0.64137 l 0.01278,1.943717 c 0.0022,0.338583 0.265298,0.624333 0.6035957,0.649044 4.445869,0.323244 8.0143238,3.900787 8.3364326,8.336429 0.024737,0.338293 0.3101684,0.601606 0.64903447,0.603594 l 1.94372286,0.01277 c 0.36981977,0.0029 0.66437717,-0.304778 0.64166417,-0.673459 z"
         style="fill:#ffffff;stroke-width:0.26458332"
         inkscape:connector-curvature="0" />
      <rect
         inkscape:export-ydpi="155"
         inkscape:export-xdpi="155"
         inkscape:export-filename="/home/xavier/Escriptori/chronojump-logo-2013-wallpaper-prova-2-ratlles-4-punts.png"
         y="113.34604"
         x="-29.037531"
         height="2.1101584"
         width="2.4824967"
         id="rect8047-1-7-1-5-3-1"
         style="fill:#ffffff;fill-opacity:1;stroke:none;stroke-width:0.28222224" />
      <rect
         inkscape:export-ydpi="155"
         inkscape:export-xdpi="155"
         inkscape:export-filename="/home/xavier/Escriptori/chronojump-logo-2013-wallpaper-prova-2-ratlles-4-punts.png"
         y="113.34604"
         x="-7.6172724"
         height="2.1101584"
         width="2.4824967"
         id="rect8047-8-8-9-8-6-5-2"
         style="fill:#ffffff;fill-opacity:1;stroke:none;stroke-width:0.28222224" />
      <rect
         inkscape:export-ydpi="155"
         inkscape:export-xdpi="155"
         inkscape:export-filename="/home/xavier/Escriptori/chronojump-logo-2013-wallpaper-prova-2-ratlles-4-punts.png"
         y="113.34604"
         x="-21.897402"
         height="2.1101584"
         width="2.4824967"
         id="rect8047-8-5-9-9-1-2-6-9"
         style="fill:#ffffff;fill-opacity:1;stroke:none;stroke-width:0.28222224" />
      <rect
         inkscape:export-ydpi="155"
         inkscape:export-xdpi="155"
         inkscape:export-filename="/home/xavier/Escriptori/chronojump-logo-2013-wallpaper-prova-2-ratlles-4-punts.png"
         y="113.81833"
         x="-14.757386"
         height="1.6378713"
         width="2.4824967"
         id="rect8047-8-5-8-9-8-3-5-2-3"
         style="fill:#ffffff;fill-opacity:1;stroke:none;stroke-width:0.28222224" />
      <path
         inkscape:export-ydpi="155.58435"
         inkscape:export-xdpi="155.58435"
         inkscape:export-filename="/home/xavier/Escriptori/chronojump-logo-2013-wallpaper-prova-4-punts.png"
         sodipodi:nodetypes="cccccccccccccccc"
         id="path3623-5-9-4-5-5-2-3-0-0-42-7-9-8-1-9-0-6-5-9-19"
         d="m -56.445794,97.205463 c 7.699899,13.280587 22.627317,-10.687728 23.99733,-11.162284 1.260845,-1.585017 6.650593,-3.518013 13.239882,6.697359 1.104054,1.408148 4.318982,2.477375 5.957962,-0.797306 -0.25953,0.304433 -2.532848,-1.978265 -3.971946,-3.189224 1.713656,0.707898 3.184866,0.247763 5.295955,2.870313 1.519021,0.05692 3.3915619,0.31671 5.7924699,2.073007 1.805991,2.056779 -3.52071,1.364572 -5.6269779,1.913523 -3.971981,2.275332 -3.485671,6.563559 -6.454455,5.581169 -1.937147,5.95196 -3.563752,6.09166 -4.633965,4.9433 4.527364,-3.77007 2.120132,-5.56701 0,-5.58115 -2.965768,0.78218 -2.532036,5.13766 -0.661988,11.00283 5.406311,-0.0344 9.157597,1.91717 13.074407,2.07301 -3.061118,2.17929 -5.04407,-0.74416 -14.067415,-0.15946 -2.243322,-8.48718 -7.293557,-15.960118 -14.563884,-15.308297 -13.602906,10.244137 -15.460802,5.063517 -17.377375,-0.95679 z"
         style="fill:#ffcc01;fill-opacity:1;stroke:none;stroke-width:0.28222224"
         inkscape:connector-curvature="0" />
    </g>
  </g>
</svg>
